<svg width="356" height="100" viewBox="0 0 356 100" fill="none" xmlns="http://www.w3.org/2000/svg">
<path d="M324.479 74.1672C324.479 72.5263 323.353 71.7076 321.107 71.7076H316.69V76.6839H321.107C323.355 76.6839 324.479 75.845 324.479 74.1691V74.1672ZM316.69 70.6461H320.678C321.685 70.6461 322.457 70.4383 322.998 70.0317C323.537 69.6215 323.808 69.0254 323.808 68.2436C323.808 67.4599 323.537 66.8638 322.998 66.4536C322.457 66.0433 321.685 65.8391 320.678 65.8391H316.69V70.648V70.6461ZM325.13 72.1436C325.603 72.6845 325.837 73.3909 325.837 74.2592C325.837 75.3925 325.438 76.2589 324.637 76.8697C323.835 77.4786 322.66 77.7822 321.107 77.7822H315.331V64.739H320.75C322.141 64.739 323.23 65.026 324.012 65.5963C324.796 66.1666 325.186 66.9944 325.186 68.0761C325.186 68.8083 325 69.4265 324.626 69.9305C324.255 70.4327 323.732 70.8099 323.061 71.0564C323.966 71.2422 324.658 71.6064 325.129 72.1473L325.13 72.1436Z" fill="white"/>
<path d="M305.483 55.0963C305.483 53.4554 304.359 52.6367 302.11 52.6367H297.695V57.613H302.11C304.36 57.613 305.483 56.7741 305.483 55.0982V55.0963ZM297.695 51.5752H301.68C302.686 51.5752 303.461 51.3673 304.002 50.9608C304.543 50.5505 304.811 49.9545 304.811 49.1726C304.811 48.3889 304.543 47.7929 304.002 47.3826C303.461 46.9724 302.686 46.7682 301.68 46.7682H297.695V51.5771V51.5752ZM306.136 53.0727C306.607 53.6136 306.842 54.32 306.842 55.1883C306.842 56.3215 306.443 57.188 305.641 57.7988C304.839 58.4077 303.665 58.7112 302.109 58.7112H296.334V45.6681H301.755C303.146 45.6681 304.235 45.9551 305.017 46.5254C305.801 47.0957 306.191 47.9235 306.191 49.0052C306.191 49.7374 306.005 50.3555 305.632 50.8596C305.256 51.3618 304.736 51.739 304.066 51.9855C304.971 52.1713 305.661 52.5355 306.134 53.0764L306.136 53.0727Z" fill="white"/>
<path d="M305.993 92.4742L302.862 85.4669L299.729 92.4742H305.991H305.993ZM306.495 93.5908H299.229L297.663 97.0751H296.23L302.19 84.032H303.552L309.512 97.0751H308.059L306.493 93.5908H306.495Z" fill="white"/>
<path d="M286.763 84.032L290.471 89.1941L294.158 84.032H295.782L291.329 90.2942L296.136 97.0751H294.511L290.471 91.4679L286.428 97.0751H284.844L289.631 90.3475L285.179 84.032H286.763Z" fill="white"/>
<path d="M280.88 84.032H282.238V97.0751H280.88V84.032V84.032ZM276.305 95.1766C276.932 94.6431 277.247 93.8539 277.247 92.8108C277.247 90.8111 276.016 89.8103 273.558 89.8103H269.776V95.9787H273.558C274.763 95.9787 275.678 95.7101 276.305 95.1766ZM277.405 89.7349C278.216 90.4321 278.625 91.4513 278.625 92.7924C278.625 94.1961 278.194 95.2612 277.33 95.9879C276.465 96.7146 275.221 97.0788 273.593 97.0788H268.415V84.0357H269.774V88.6955H273.873C275.413 88.6955 276.59 89.0432 277.405 89.7368V89.7349Z" fill="white"/>
<path d="M251.857 85.2259H247.273V97.0751H245.915V85.2259H241.329V84.032H251.857V85.2259Z" fill="white"/>
<path d="M255.466 93.302C255.225 94.5861 254.82 95.447 254.246 95.883H262.276V85.2278H256.036L255.924 88.3938C255.861 90.3843 255.709 92.0179 255.466 93.3038V93.302ZM265.595 95.883V100H264.307V97.0751H252.923L252.907 100H251.617L251.636 95.883H252.291C253.146 95.8352 253.742 95.1545 254.077 93.8429C254.412 92.533 254.618 90.6731 254.691 88.2632L254.84 84.032H263.634V95.883H265.593H265.595Z" fill="white"/>
<path d="M207.428 84.032H208.791V94.8381L217.136 84.032H218.385V97.0751H217.024V86.2874L208.677 97.0751H207.428V84.032Z" fill="white"/>
<path d="M329.296 64.7351H330.659V75.5412L339.002 64.7351H340.253V77.7783H338.892V66.9905L330.543 77.7783H329.296V64.7351Z" fill="white"/>
<path d="M312.915 65.929H308.332V77.7783H306.973V65.929H302.388V64.7351H312.915V65.929Z" fill="white"/>
<path d="M288.221 76.5862V77.7783H278.997V64.7351H287.939V65.929H280.376V70.5687H287.121V71.7424H280.376V76.5862H288.221Z" fill="white"/>
<path d="M274.603 64.7351V77.7783H258.615V64.7351H259.974V76.5862H265.938V64.7351H267.298V76.5862H273.242V64.7351H274.603Z" fill="white"/>
<path d="M255.56 76.5862V77.7783H246.336V64.7351H255.28V65.929H247.718V70.5687H254.462V71.7424H247.718V76.5862H255.56Z" fill="white"/>
<path d="M243.903 65.929H239.319V77.7783H237.959V65.929H233.376V64.7351H243.903V65.929Z" fill="white"/>
<path d="M218.404 64.7351V77.7783H217.044V65.929H208.79V77.7783H207.428V64.7351H218.404Z" fill="white"/>
<path d="M293.917 46.858H289.336V58.7072H287.973V46.858H283.391V45.6641H293.917V46.858Z" fill="white"/>
<path d="M269.973 46.858H265.388V58.7072H264.029V46.858H259.444V45.6641H269.973V46.858Z" fill="white"/>
<path d="M257.045 45.6641V58.7072H255.684V52.6897H247.525V58.7072H246.143V45.6641H247.525V51.4774H255.684V45.6641H257.045Z" fill="white"/>
<path d="M243.088 57.5151V58.7072H233.864V45.6641H242.807V46.858H235.244V51.4976H241.99V52.6713H235.244V57.5151H243.088Z" fill="white"/>
<path d="M231.49 46.858H224.539L224.558 58.7072H223.198V45.6641H231.49V46.858Z" fill="white"/>
<path d="M217.191 54.1062L214.06 47.099L210.927 54.1062H217.189H217.191ZM217.693 55.2229H210.427L208.861 58.7072H207.428L213.389 45.6641H214.748L220.711 58.7072H219.257L217.692 55.2229H217.693Z" fill="white"/>
<path d="M233.042 64.7349L227.116 75.7103C226.693 76.494 226.2 77.0716 225.635 77.4524C225.07 77.8314 224.452 78.019 223.783 78.019C223.284 78.019 222.751 77.8995 222.18 77.6658L222.572 76.5455C223.019 76.7221 223.429 76.8067 223.801 76.8067C224.66 76.8067 225.361 76.3431 225.906 75.4086L226.279 74.7757L220.988 64.7312H222.46L227.008 73.5652L231.666 64.7312H233.045L233.042 64.7349Z" fill="white"/>
<path d="M293.413 77.0321C292.375 76.4618 291.56 75.6689 290.971 74.6571C290.381 73.6435 290.088 72.5103 290.088 71.2575C290.088 70.0028 290.381 68.8677 290.971 67.8559C291.562 66.8441 292.379 66.0512 293.422 65.4809C294.465 64.9106 295.635 64.6237 296.926 64.6237C297.894 64.6237 298.788 64.7837 299.609 65.1093C300.429 65.4313 301.126 65.9022 301.695 66.524L300.821 67.4015C299.802 66.3695 298.514 65.8562 296.965 65.8562C295.933 65.8562 294.995 66.0935 294.15 66.5627C293.306 67.0354 292.644 67.683 292.165 68.4998C291.689 69.3203 291.45 70.2401 291.45 71.2593C291.45 72.2766 291.689 73.1946 292.165 74.0151C292.646 74.8356 293.306 75.4813 294.15 75.9559C294.993 76.4269 295.933 76.6624 296.965 76.6624C298.531 76.6624 299.815 76.1417 300.821 75.0968L301.695 75.9706C301.126 76.5924 300.427 77.0671 299.601 77.3982C298.775 77.7275 297.877 77.8894 296.908 77.8894C295.615 77.8894 294.452 77.6043 293.414 77.034L293.413 77.0321Z" fill="white"/>
<path d="M274.412 57.9611C273.376 57.3908 272.559 56.5979 271.97 55.5861C271.378 54.5724 271.085 53.4392 271.085 52.1864C271.085 50.9318 271.378 49.7967 271.97 48.7849C272.559 47.7731 273.376 46.9802 274.421 46.4099C275.466 45.8396 276.632 45.5526 277.923 45.5526C278.891 45.5526 279.787 45.7127 280.608 46.0383C281.426 46.3602 282.122 46.8312 282.694 47.453L281.818 48.3305C280.799 47.2984 279.515 46.7852 277.962 46.7852C276.93 46.7852 275.994 47.0225 275.147 47.4916C274.301 47.9644 273.641 48.612 273.162 49.4288C272.684 50.2493 272.447 51.1691 272.447 52.1882C272.447 53.2056 272.684 54.1236 273.162 54.944C273.643 55.7645 274.303 56.4103 275.147 56.8849C275.992 57.3558 276.93 57.5913 277.962 57.5913C279.528 57.5913 280.812 57.0707 281.818 56.0258L282.694 56.8996C282.123 57.5214 281.424 57.996 280.596 58.3272C279.77 58.6565 278.873 58.8184 277.903 58.8184C276.61 58.8184 275.447 58.5332 274.41 57.9629L274.412 57.9611Z" fill="white"/>
<path d="M236.175 95.2586C237.01 94.7913 237.661 94.1474 238.134 93.3214C238.607 92.4954 238.844 91.5719 238.844 90.5564C238.844 89.5373 238.607 88.6137 238.134 87.7877C237.661 86.9617 237.01 86.3142 236.175 85.8506C235.343 85.3852 234.412 85.1515 233.384 85.1515C232.35 85.1515 231.417 85.3833 230.579 85.8506C229.74 86.3142 229.083 86.9617 228.603 87.7877C228.123 88.6137 227.885 89.5373 227.885 90.5564C227.885 91.5738 228.124 92.4954 228.603 93.3214C229.083 94.1474 229.738 94.7931 230.579 95.2586C231.417 95.724 232.35 95.9576 233.384 95.9576C234.412 95.9576 235.343 95.7259 236.175 95.2586ZM229.87 96.3182C228.82 95.7424 227.999 94.9495 227.409 93.9432C226.818 92.9369 226.524 91.8074 226.524 90.5546C226.524 89.2999 226.818 88.1667 227.409 87.1604C227.999 86.156 228.82 85.3631 229.87 84.7854C230.919 84.2078 232.087 83.9189 233.382 83.9189C234.674 83.9189 235.836 84.2059 236.872 84.7762C237.911 85.3465 238.728 86.1394 239.324 87.1512C239.92 88.163 240.218 89.2981 240.218 90.5527C240.218 91.8055 239.922 92.9406 239.324 93.9524C238.728 94.9642 237.911 95.7571 236.872 96.3274C235.836 96.8977 234.674 97.1829 233.382 97.1829C232.087 97.1829 230.917 96.8959 229.87 96.3164V96.3182Z" fill="white"/>
<path d="M318.807 56.8909C319.64 56.4236 320.291 55.7798 320.764 54.9537C321.235 54.1277 321.471 53.2042 321.471 52.1887C321.471 51.1696 321.233 50.2461 320.764 49.4201C320.291 48.5941 319.638 47.9465 318.807 47.4829C317.975 47.0175 317.042 46.7838 316.012 46.7838C314.982 46.7838 314.046 47.0156 313.207 47.4829C312.37 47.9465 311.711 48.5941 311.231 49.4201C310.755 50.2461 310.515 51.1696 310.515 52.1887C310.515 53.2061 310.753 54.1277 311.231 54.9537C311.711 55.7798 312.37 56.4255 313.207 56.8909C314.046 57.3563 314.982 57.59 316.012 57.59C317.042 57.59 317.975 57.3582 318.807 56.8909ZM312.5 57.9505C311.45 57.3747 310.629 56.5818 310.043 55.5756C309.45 54.5693 309.158 53.4397 309.158 52.1869C309.158 50.9323 309.45 49.799 310.043 48.7927C310.629 47.7883 311.45 46.9954 312.5 46.4178C313.551 45.8401 314.721 45.5513 316.012 45.5513C317.304 45.5513 318.468 45.8383 319.504 46.4085C320.541 46.9788 321.36 47.7717 321.954 48.7835C322.55 49.7954 322.85 50.9304 322.85 52.1851C322.85 53.4379 322.55 54.5729 321.954 55.5847C321.36 56.5966 320.543 57.3895 319.504 57.9597C318.468 58.53 317.304 58.8152 316.012 58.8152C314.719 58.8152 313.551 58.5282 312.5 57.9487V57.9505Z" fill="white"/>
<path d="M347.865 63.1528C347.326 62.7297 347.05 62.1392 347.035 61.3812H348.06C348.073 61.8779 348.259 62.2698 348.621 62.5549C348.978 62.8419 349.464 62.9836 350.073 62.9836C350.669 62.9836 351.151 62.8419 351.517 62.5549C351.883 62.2698 352.072 61.8779 352.085 61.3812H353.108C353.095 62.141 352.815 62.7297 352.271 63.1528C351.723 63.5759 350.991 63.7838 350.073 63.7838C349.142 63.7838 348.406 63.5741 347.863 63.1528H347.865ZM344.633 64.7349H345.994V75.5411L354.341 64.7349H355.59V77.7781H354.227V66.9903L345.88 77.7781H344.631V64.7349H344.633Z" fill="white"/>
<rect x="181.282" y="24.4033" width="1.7431" height="73.2101" fill="url(#paint0_radial_786_9971)"/>
<g clip-path="url(#clip0_786_9971)">
<path fill-rule="evenodd" clip-rule="evenodd" d="M181.967 0.0250897C181.864 0.0643119 181.612 0.287297 181.408 0.520542C180.587 1.45879 180.311 3.17303 180.301 7.40603L180.296 9.74021L179.868 10.0793C179.633 10.2658 176.913 12.3563 173.824 14.7249L168.209 19.0312L168.213 19.9454C168.217 20.7966 168.306 21.5775 168.412 21.6842C168.46 21.7319 171.603 20.6306 174.392 19.5891C178.858 17.9213 179.746 17.6672 180.158 17.9387C180.513 18.1724 180.574 18.6037 180.575 20.8665L180.575 22.9617L179.022 23.908C178.168 24.4285 177.258 25.0586 176.999 25.3083C176.552 25.7412 176.527 25.7897 176.47 26.3524C176.437 26.677 176.423 27.1557 176.439 27.4161L176.468 27.8895L179.174 26.8032C180.662 26.2057 181.993 25.7169 182.131 25.7169C182.27 25.7169 183.601 26.202 185.09 26.795L187.797 27.873L187.796 26.9084C187.796 25.4811 187.821 25.5107 185.201 23.8778L183.735 22.9635V20.7964C183.735 18.4285 183.792 18.0937 184.228 17.8934C184.579 17.7329 185.473 17.9614 187.669 18.7725C193.803 21.0384 195.772 21.7264 195.862 21.6358C195.975 21.5217 196.09 20.5555 196.095 19.6792L196.099 19.0437L192.66 16.4107C190.769 14.9626 188.824 13.4713 188.338 13.0968C187.852 12.7223 186.701 11.8439 185.781 11.1448C184.861 10.4457 184.086 9.82246 184.059 9.75991C184.033 9.69735 184.005 8.59423 183.997 7.30852C183.976 3.89274 183.795 2.26103 183.318 1.20303C182.955 0.398427 182.357 -0.122901 181.967 0.0250897Z" fill="white"/>
</g>
<path d="M5.6834 86.6787C5.659 86.5842 5.63309 86.492 5.60336 86.4028C5.57363 86.3136 5.54695 86.2221 5.52256 86.1269C5.2855 86.8746 5.00575 87.611 4.6856 88.3359C4.36545 89.06 4.04988 89.7842 3.74116 90.5091H7.28642C7.01277 89.8673 6.74598 89.2293 6.48453 88.5943C6.22307 87.9586 5.95628 87.3198 5.6834 86.6787V86.6787ZM11.0459 96.7085H9.92307C9.55414 95.8533 9.19283 94.9957 8.83609 94.1336C8.48012 93.273 8.11728 92.4147 7.74911 91.5595H3.27695C2.92173 92.414 2.56195 93.273 2.19988 94.1336C1.83704 94.9957 1.47268 95.8525 1.10375 96.7085H0C0.926143 94.5239 1.84619 92.3499 2.76166 90.1882C3.67637 88.0272 4.59642 85.8532 5.52256 83.6686C6.44946 85.8532 7.36951 88.0279 8.28422 90.1882C9.19893 92.3507 10.119 94.5239 11.0459 96.7085V96.7085Z" fill="white"/>
<path d="M13.8789 83.67C14.9712 85.0833 16.0582 86.4934 17.1391 87.9013C18.22 89.3085 19.3062 90.7194 20.3993 92.1319C21.4916 90.7186 22.5793 89.3085 23.6602 87.9013C24.7403 86.4934 25.8273 85.0833 26.9204 83.67V96.7108H25.8159V87.4112C25.8159 87.2931 25.8189 87.1825 25.8242 87.0811C25.8311 86.9813 25.8395 86.8769 25.8517 86.7694C24.9972 87.9936 24.1031 89.1926 23.1708 90.368C22.2378 91.5442 21.3147 92.7318 20.4008 93.9316C19.5928 92.8743 18.7917 91.8262 17.9959 90.7872C17.2008 89.7483 16.3982 88.7002 15.5909 87.6429L15.2174 87.1612C15.1694 87.1017 15.1244 87.0362 15.084 86.966C15.0421 86.8944 14.9971 86.8296 14.9506 86.7694C14.9621 86.8769 14.9712 86.9813 14.9766 87.0811C14.9827 87.1825 14.9857 87.2931 14.9857 87.4112V96.7108H13.8812V83.67H13.8789Z" fill="white"/>
<path d="M30.1606 96.7102V84.2396H37.6956V85.3083H31.2644V89.9047H37.0004V90.9559H31.2644V95.6582H37.9448V96.7102H30.1606Z" fill="white"/>
<path d="M41.7756 89.9223H43.4686C44.038 89.9223 44.5129 89.8483 44.8933 89.6997C45.2736 89.5518 45.5732 89.3612 45.7935 89.1295C46.013 88.8985 46.1678 88.6424 46.2569 88.3634C46.3461 88.0845 46.3903 87.8146 46.3903 87.5524C46.3903 87.2559 46.3156 86.9716 46.1678 86.6979C46.0191 86.425 45.8164 86.1841 45.5618 85.976C45.3064 85.7687 45.0007 85.6025 44.644 85.4775C44.288 85.3525 43.9016 85.29 43.4861 85.29H41.7756V89.9223ZM40.6719 96.7102V84.2396H43.4694C43.8604 84.2396 44.288 84.3014 44.7515 84.4264C45.2149 84.5514 45.6517 84.7473 46.061 85.0148C46.4711 85.2816 46.8119 85.6231 47.0855 86.0393C47.3584 86.4555 47.4948 86.9594 47.4948 87.5524C47.4948 88.432 47.2692 89.1623 46.8172 89.7439C46.3659 90.3263 45.7135 90.7127 44.8574 90.9018C45.3095 91.8637 45.763 92.828 46.2204 93.7968C46.6769 94.7641 47.1373 95.736 47.6016 96.7094H46.3903C45.9383 95.7467 45.4878 94.7916 45.0366 93.841C44.5853 92.8912 44.1341 91.9346 43.6828 90.9719C43.6111 90.9841 43.5372 90.9902 43.4595 90.9902C43.3825 90.9902 43.3024 90.9902 43.2193 90.9902H41.7756V96.7086H40.6719V96.7102Z" fill="white"/>
<path d="M50.4126 96.7109H51.5354V84.2396H50.4126V96.7109Z" fill="white"/>
<path d="M63.4024 95.0697L64.0084 95.96C63.5335 96.2336 63.0251 96.4501 62.4854 96.6109C61.945 96.771 61.3718 96.8511 60.7658 96.8511C59.8869 96.8511 59.0621 96.6856 58.2892 96.3525C57.517 96.0202 56.844 95.5659 56.2677 94.9896C55.6914 94.4134 55.2371 93.7395 54.9048 92.9674C54.5717 92.1959 54.4062 91.3704 54.4062 90.4908C54.4062 89.6119 54.5717 88.7841 54.9048 88.0058C55.2371 87.2283 55.6914 86.5514 56.2677 85.9752C56.8432 85.3997 57.517 84.9415 58.2892 84.6031C59.0614 84.2654 59.8869 84.0962 60.7658 84.0962C61.3718 84.0962 61.9442 84.1732 62.4854 84.3279C63.0251 84.4827 63.5389 84.7022 64.0259 84.9865C63.9307 85.1412 63.83 85.2929 63.7233 85.4416C63.6166 85.5895 63.5091 85.7419 63.4032 85.8951C62.6081 85.408 61.7293 85.1649 60.7665 85.1649C60.0424 85.1649 59.3625 85.3051 58.7267 85.5841C58.0918 85.8631 57.5361 86.2458 57.0612 86.7328C56.5863 87.2199 56.209 87.787 55.93 88.435C55.6503 89.0821 55.5108 89.7682 55.5108 90.4923C55.5108 91.2294 55.6472 91.9177 55.9209 92.5588C56.1937 93.2006 56.5673 93.7616 57.0437 94.2426C57.5178 94.7236 58.0735 95.104 58.7092 95.3822C59.3442 95.6619 60.0241 95.8014 60.749 95.8014C61.2361 95.8014 61.6988 95.7389 62.1386 95.6139C62.5777 95.4889 62.9999 95.309 63.4032 95.0712L63.4024 95.0697Z" fill="white"/>
<path d="M72.0061 86.6802C71.9825 86.5857 71.9558 86.4934 71.9261 86.4043C71.8964 86.3151 71.8697 86.2236 71.8461 86.1283C71.609 86.8761 71.3293 87.6124 71.0091 88.3373C70.6882 89.0615 70.3734 89.7856 70.0647 90.5105H73.6099C73.3363 89.8687 73.0695 89.2307 72.808 88.5958C72.5466 87.96 72.2798 87.3213 72.0069 86.6802H72.0061ZM77.3686 96.71H76.2458C75.8777 95.8547 75.5156 94.9972 75.1596 94.1351C74.8036 93.2745 74.4408 92.4162 74.0726 91.5609H69.6005C69.2445 92.4154 68.8855 93.2745 68.5234 94.1351C68.1606 94.9972 67.7947 95.854 67.4273 96.71H66.3228C67.2489 94.5254 68.1689 92.3514 69.0844 90.1896C69.9991 88.0286 70.9192 85.8547 71.8453 83.67C72.7715 85.8547 73.6923 88.0294 74.607 90.1896C75.5217 92.3522 76.4417 94.5254 77.3686 96.71V96.71Z" fill="white"/>
<path d="M91.0867 84.2395V97.2802C89.4959 95.5103 87.9119 93.7563 86.3386 92.0161C84.7653 90.2758 83.1821 88.5211 81.5913 86.7511C81.5318 86.6688 81.4754 86.5903 81.422 86.5202C81.3687 86.4485 81.3115 86.3715 81.2528 86.2885C81.2643 86.3837 81.2734 86.4783 81.2795 86.5728C81.2848 86.6681 81.294 86.7626 81.3054 86.8571V96.7093H80.2017V83.6686C81.7925 85.4614 83.3757 87.2436 84.949 89.0128C86.5223 90.7827 88.1063 92.5649 89.6963 94.3577C89.7558 94.44 89.813 94.5178 89.8663 94.5887C89.9205 94.6603 89.9761 94.7373 90.0355 94.8196C90.0234 94.7251 90.0142 94.6298 90.0089 94.5353C90.0028 94.44 89.9936 94.3455 89.9814 94.2502V84.238H91.0859L91.0867 84.2395Z" fill="white"/>
<path d="M100.526 90.9734V95.6582H102.699C103.102 95.6582 103.482 95.6118 103.839 95.5165C104.195 95.4212 104.507 95.2794 104.774 95.0896C105.041 94.899 105.252 94.6589 105.407 94.3677C105.56 94.0766 105.638 93.7404 105.638 93.3608C105.638 92.9454 105.549 92.5856 105.371 92.2837C105.193 91.9804 104.952 91.7311 104.649 91.5352C104.346 91.3401 104.002 91.1975 103.616 91.1083C103.23 91.0184 102.835 90.9742 102.431 90.9742H100.525L100.526 90.9734ZM100.526 85.3091V89.9047H102.663C103.434 89.9047 104.046 89.6814 104.498 89.237C104.95 88.7911 105.175 88.2125 105.175 87.499C105.175 86.7154 104.938 86.1537 104.464 85.816C103.988 85.4775 103.371 85.3083 102.61 85.3083H100.526L100.526 85.3091ZM99.4212 96.7102V84.2396H102.467C103.037 84.2396 103.556 84.2991 104.027 84.418C104.496 84.5369 104.899 84.7206 105.237 84.9706C105.576 85.2199 105.837 85.5431 106.021 85.941C106.205 86.3396 106.297 86.8115 106.297 87.3573C106.297 88.0936 106.119 88.7408 105.763 89.2995C105.407 89.8575 104.861 90.2378 104.124 90.4398C104.468 90.5115 104.799 90.6304 105.112 90.7958C105.428 90.962 105.706 91.1762 105.95 91.4376C106.194 91.6991 106.386 92.0017 106.529 92.3462C106.672 92.6908 106.743 93.0772 106.743 93.5041C106.743 94.0385 106.632 94.505 106.412 94.9021C106.193 95.3007 105.898 95.6323 105.531 95.8999C105.162 96.1667 104.74 96.3694 104.266 96.5059C103.791 96.6431 103.298 96.7109 102.787 96.7109H99.4204L99.4212 96.7102Z" fill="white"/>
<path d="M113.624 96.8527C112.996 96.8527 112.416 96.7635 111.888 96.5859C111.359 96.4075 110.901 96.1438 110.516 95.7924C110.13 95.4425 109.826 95.0065 109.607 94.4836C109.388 93.9607 109.277 93.3608 109.277 92.6839V84.2396H110.382V92.6298C110.382 93.1413 110.461 93.5925 110.622 93.9843C110.783 94.3761 111.005 94.7062 111.29 94.973C111.575 95.2398 111.916 95.4441 112.315 95.5874C112.712 95.7299 113.148 95.8015 113.624 95.8015C114.087 95.8015 114.518 95.7299 114.916 95.5874C115.314 95.4441 115.659 95.2398 115.949 94.973C116.24 94.7062 116.466 94.3761 116.627 93.9843C116.787 93.5925 116.867 93.1413 116.867 92.6298V84.2396H117.972V92.6839C117.972 93.3608 117.862 93.9615 117.642 94.4836C117.423 95.0065 117.117 95.4425 116.725 95.7924C116.334 96.1438 115.874 96.4075 115.344 96.5859C114.815 96.7643 114.242 96.8527 113.625 96.8527H113.624Z" fill="white"/>
<path d="M129.244 84.2396V85.3083H124.878V96.7102H123.774V85.3083H119.392V84.2396H129.244Z" fill="white"/>
<path d="M130.614 96.7102V84.2396H131.718V95.6582H138.398V96.7102H130.614Z" fill="white"/>
<path d="M141.182 96.7102V84.2396H148.717V85.3083H142.287V89.9047H148.023V90.9559H142.287V95.6582H148.966V96.7102H141.182Z" fill="white"/>
<path d="M152.798 89.9223H154.49C155.061 89.9223 155.535 89.8483 155.916 89.6997C156.295 89.5518 156.596 89.3612 156.815 89.1295C157.036 88.8985 157.19 88.6424 157.279 88.3634C157.368 88.0845 157.412 87.8146 157.412 87.5524C157.412 87.2559 157.338 86.9716 157.19 86.6979C157.042 86.425 156.84 86.1841 156.584 85.976C156.329 85.7687 156.023 85.6025 155.667 85.4775C155.311 85.3525 154.924 85.29 154.509 85.29H152.8V89.9223H152.798ZM151.694 96.7102V84.2396H154.491C154.883 84.2396 155.311 84.3014 155.773 84.4264C156.237 84.5514 156.673 84.7473 157.082 85.0148C157.492 85.2816 157.834 85.6231 158.107 86.0393C158.38 86.4555 158.517 86.9594 158.517 87.5524C158.517 88.432 158.291 89.1623 157.84 89.7439C157.388 90.3263 156.736 90.7127 155.88 90.9018C156.331 91.8637 156.786 92.828 157.242 93.7968C157.699 94.7641 158.16 95.736 158.623 96.7094H157.411C156.96 95.7467 156.509 94.7916 156.058 93.841C155.606 92.8912 155.155 91.9346 154.703 90.9719C154.632 90.9841 154.557 90.9902 154.481 90.9902C154.403 90.9902 154.323 90.9902 154.24 90.9902H152.797V96.7086H151.693L151.694 96.7102Z" fill="white"/>
<path d="M63.0399 0.000208492L36.605 69.8755L38.1805 69.9072L59.8963 12.6663L67.1364 31.7681H55.5776C55.3688 32.3093 55.2093 32.7177 55.0485 33.1445H67.6972L81.5952 69.9072H91.9224L65.3258 0H63.0399V0.000208492Z" fill="white"/>
<path d="M96.7133 32.71H87.7836L87.7796 1.59235C89.2069 1.57883 89.6728 1.59235 90.8409 1.59235H94.3872C96.0691 1.59235 97.7639 1.70911 99.4796 2.04157C101.193 2.37554 102.746 3.07481 104.138 4.13938C105.529 5.20567 106.662 6.78686 107.536 8.88423C108.409 10.9825 108.846 13.7634 108.846 17.2252C108.846 20.29 108.555 22.8198 107.972 24.8176C107.39 26.8154 106.565 28.3989 105.497 29.5631C104.429 30.7288 103.151 31.5457 101.663 32.0105C100.174 32.4772 98.5235 32.71 96.7129 32.71H96.7133ZM116.126 66.1751C118.325 64.3763 119.975 62.2289 121.076 59.7315C122.176 57.2338 122.726 54.4867 122.726 51.4905C122.726 48.6275 122.111 46.0959 120.882 43.8981C119.652 41.7003 118.051 39.8523 116.078 38.354C114.103 36.8556 111.904 35.691 109.477 34.8572C107.05 34.0257 104.672 33.5089 102.343 33.3093V33.1095C104.607 32.8444 106.774 32.2773 108.847 31.4109C110.917 30.5461 112.744 29.4131 114.33 28.0148C115.915 26.6156 117.177 24.9848 118.116 23.1201C119.053 21.2556 119.523 19.2237 119.523 17.0258C119.523 15.4275 119.198 13.6469 118.553 11.6815C117.905 9.71808 116.708 7.88556 114.962 6.18739C113.214 4.48944 110.819 3.05764 107.778 1.89219C104.736 0.7276 100.793 0 96.0701 0C95.1634 0 78.0729 0 78.0729 0L78.0552 13.062L87.7896 39.4246L87.7838 34.1079H98.4605C102.795 34.1079 106.063 35.641 108.264 38.7034C110.463 41.7675 111.564 45.9629 111.564 51.29C111.564 55.021 111.239 58.1174 110.593 60.581C109.165 65.725 105.314 70.9739 99.8558 71.9633C99.8558 71.9633 103.325 71.7605 107.778 70.4203C111.147 69.4066 113.925 67.9731 116.126 66.1753L116.126 66.1751Z" fill="white"/>
<defs>
<radialGradient id="paint0_radial_786_9971" cx="0" cy="0" r="1" gradientUnits="userSpaceOnUse" gradientTransform="translate(182.154 61.0083) rotate(90) scale(36.605 0.871548)">
<stop stop-color="white"/>
<stop offset="1" stop-color="white" stop-opacity="0"/>
</radialGradient>
<clipPath id="clip0_786_9971">
<rect width="27.8895" height="27.8895" fill="white" transform="translate(168.209)"/>
</clipPath>
</defs>
</svg>
