<svg width="230" height="252" viewBox="0 0 230 252" fill="none" xmlns="http://www.w3.org/2000/svg">
<g filter="url(#filter0_d_486)">
<path d="M161.556 236.414L158.491 229.43L155.425 236.414H161.554H161.556ZM162.047 237.527H154.935L153.403 241H152L157.834 228H159.166L165 241H163.578L162.045 237.527H162.047Z" fill="white"/>
<path d="M142.869 228L146.482 233.145L150.073 228H151.656L147.317 234.241L152 241H150.418L146.482 235.411L142.543 241H141L145.663 234.295L141.326 228H142.869Z" fill="white"/>
<path d="M136.723 228H138V240.996H136.723V228ZM132.42 239.105C133.01 238.573 133.306 237.787 133.306 236.747C133.306 234.755 132.149 233.758 129.837 233.758H126.28V239.904H129.837C130.971 239.904 131.83 239.636 132.42 239.105ZM133.455 233.682C134.218 234.377 134.602 235.393 134.602 236.729C134.602 238.128 134.197 239.189 133.384 239.913C132.571 240.637 131.401 241 129.87 241H125V228.004H126.279V232.647H130.133C131.581 232.647 132.689 232.993 133.455 233.684V233.682Z" fill="white"/>
<path d="M111.855 237.288C111.613 238.575 111.208 239.438 110.633 239.875H118.676V229.198H112.426L112.314 232.371C112.251 234.365 112.098 236.002 111.855 237.29V237.288ZM122 239.875V244H120.71V241.069H109.308L109.292 244H108L108.018 239.875H108.674C109.531 239.827 110.128 239.145 110.464 237.83C110.799 236.518 111.005 234.654 111.079 232.24L111.228 228H120.036V239.875H121.998H122Z" fill="white"/>
<path d="M108 229.19H103.646V241H102.356V229.19H98V228H108V229.19Z" fill="white"/>
<path d="M92.8662 239.114C93.72 238.656 94.3858 238.025 94.8692 237.215C95.3525 236.406 95.5951 235.501 95.5951 234.505C95.5951 233.507 95.3525 232.601 94.8692 231.792C94.3858 230.982 93.72 230.348 92.8662 229.893C92.0161 229.437 91.0645 229.208 90.0132 229.208C88.9562 229.208 88.0027 229.435 87.1451 229.893C86.2875 230.348 85.6161 230.982 85.1252 231.792C84.6343 232.601 84.3917 233.507 84.3917 234.505C84.3917 235.502 84.6362 236.406 85.1252 237.215C85.6161 238.025 86.2856 238.658 87.1451 239.114C88.0027 239.57 88.9562 239.799 90.0132 239.799C91.0645 239.799 92.0161 239.572 92.8662 239.114ZM86.421 240.153C85.3471 239.588 84.5083 238.811 83.9046 237.825C83.3009 236.839 83 235.731 83 234.504C83 233.274 83.3009 232.163 83.9046 231.177C84.5083 230.193 85.3471 229.415 86.421 228.849C87.493 228.283 88.6873 228 90.0113 228C91.3315 228 92.5202 228.281 93.579 228.84C94.6416 229.399 95.4766 230.176 96.086 231.168C96.6953 232.16 97 233.272 97 234.502C97 235.73 96.6972 236.842 96.086 237.834C95.4766 238.826 94.6416 239.603 93.579 240.162C92.5202 240.721 91.3315 241 90.0113 241C88.6873 241 87.4911 240.719 86.421 240.151V240.153Z" fill="white"/>
<path d="M65 228H66.2441V238.77L73.86 228H75V241H73.7576V230.248L66.14 241H65V228Z" fill="white"/>
<path d="M162 209H163.369V219.77L171.744 209H173V222H171.633V211.248L163.252 222H162V209Z" fill="white"/>
<path d="M157.579 218.397C157.579 216.761 156.4 215.946 154.048 215.946H149.423V220.905H154.048C156.402 220.905 157.579 220.069 157.579 218.399V218.397ZM149.423 214.888H153.599C154.653 214.888 155.462 214.68 156.028 214.275C156.592 213.866 156.876 213.272 156.876 212.493C156.876 211.712 156.592 211.118 156.028 210.709C155.462 210.3 154.653 210.096 153.599 210.096H149.423V214.889V214.888ZM158.26 216.38C158.755 216.919 159 217.623 159 218.489C159 219.618 158.582 220.482 157.744 221.091C156.904 221.697 155.674 222 154.048 222H148V209H153.674C155.13 209 156.271 209.286 157.089 209.854C157.91 210.423 158.318 211.248 158.318 212.326C158.318 213.056 158.124 213.672 157.733 214.174C157.344 214.675 156.797 215.051 156.093 215.296C157.041 215.482 157.765 215.845 158.258 216.384L158.26 216.38Z" fill="white"/>
<path d="M146 210.19H141.647V222H140.355V210.19H136V209H146V210.19Z" fill="white"/>
<path d="M126.437 221.16C125.364 220.601 124.522 219.824 123.913 218.832C123.302 217.839 123 216.729 123 215.501C123 214.271 123.302 213.159 123.913 212.168C124.524 211.176 125.368 210.399 126.446 209.84C127.525 209.281 128.735 209 130.07 209C131.07 209 131.995 209.157 132.843 209.476C133.691 209.791 134.412 210.253 135 210.862L134.097 211.722C133.043 210.711 131.711 210.208 130.11 210.208C129.043 210.208 128.073 210.44 127.2 210.9C126.327 211.363 125.642 211.998 125.147 212.799C124.655 213.603 124.408 214.504 124.408 215.503C124.408 216.5 124.655 217.399 125.147 218.203C125.644 219.007 126.327 219.64 127.2 220.105C128.071 220.567 129.043 220.798 130.11 220.798C131.728 220.798 133.056 220.287 134.097 219.263L135 220.12C134.412 220.729 133.689 221.194 132.835 221.519C131.981 221.841 131.053 222 130.051 222C128.714 222 127.512 221.721 126.439 221.162L126.437 221.16Z" fill="white"/>
<path d="M122 220.812V222H113V209H121.725V210.19H114.346V214.814H120.927V215.984H114.346V220.812H122Z" fill="white"/>
<path d="M108 209V222H93V209H94.2755V220.812H99.8709V209H101.146V220.812H106.723V209H108Z" fill="white"/>
<path d="M89 220.812V222H80V209H88.7272V210.19H81.348V214.814H87.9284V215.984H81.348V220.812H89Z" fill="white"/>
<path d="M78 210.19H73.6449V222H72.3534V210.19H68V209H78V210.19Z" fill="white"/>
<path d="M66.9963 209.004L61.0989 219.741C60.6778 220.508 60.1871 221.073 59.625 221.446C59.0629 221.816 58.4477 222 57.7812 222C57.285 222 56.754 221.883 56.1864 221.654L56.5764 220.558C57.0214 220.731 57.4297 220.814 57.7995 220.814C58.6546 220.814 59.3521 220.36 59.8941 219.446L60.2658 218.827L55 209H56.4648L60.9908 217.643L65.6268 209H67L66.9963 209.004Z" fill="white"/>
<path d="M53 209V222H51.6374V210.19H43.3644V222H42V209H53Z" fill="white"/>
<path d="M180.246 207.729C179.705 207.316 179.428 206.74 179.413 206H180.442C180.455 206.485 180.641 206.867 181.005 207.145C181.363 207.425 181.851 207.564 182.462 207.564C183.06 207.564 183.544 207.425 183.912 207.145C184.279 206.867 184.469 206.485 184.482 206H185.509C185.496 206.741 185.215 207.316 184.669 207.729C184.119 208.142 183.384 208.344 182.462 208.344C181.528 208.344 180.789 208.14 180.244 207.729H180.246ZM177.002 209.273H178.368V219.817L186.746 209.273H188V222H186.632V211.473L178.254 222H177V209.273H177.002Z" fill="white"/>
<path d="M166.866 200.114C167.718 199.656 168.384 199.025 168.867 198.215C169.349 197.406 169.589 196.501 169.589 195.505C169.589 194.507 169.347 193.601 168.867 192.792C168.384 191.982 167.716 191.348 166.866 190.893C166.015 190.437 165.062 190.208 164.008 190.208C162.955 190.208 161.998 190.435 161.14 190.893C160.284 191.348 159.611 191.982 159.12 192.792C158.633 193.601 158.388 194.507 158.388 195.505C158.388 196.502 158.631 197.406 159.12 198.215C159.611 199.025 160.284 199.658 161.14 200.114C161.998 200.57 162.955 200.799 164.008 200.799C165.062 200.799 166.015 200.572 166.866 200.114ZM160.418 201.153C159.344 200.588 158.505 199.811 157.905 198.825C157.299 197.839 157 196.731 157 195.504C157 194.274 157.299 193.163 157.905 192.177C158.505 191.193 159.344 190.415 160.418 189.849C161.492 189.283 162.688 189 164.008 189C165.329 189 166.52 189.281 167.579 189.84C168.639 190.399 169.476 191.176 170.084 192.168C170.693 193.16 171 194.272 171 195.502C171 196.73 170.693 197.842 170.084 198.834C169.476 199.826 168.641 200.603 167.579 201.162C166.52 201.721 165.329 202 164.008 202C162.686 202 161.492 201.719 160.418 201.151V201.153Z" fill="white"/>
<path d="M153.706 198.397C153.706 196.761 152.637 195.946 150.497 195.946H146.296V200.905H150.497C152.638 200.905 153.706 200.069 153.706 198.399V198.397ZM146.296 194.888H150.088C151.045 194.888 151.782 194.68 152.297 194.275C152.812 193.866 153.067 193.272 153.067 192.493C153.067 191.712 152.812 191.118 152.297 190.709C151.782 190.3 151.045 190.096 150.088 190.096H146.296V194.889V194.888ZM154.328 196.38C154.776 196.919 155 197.623 155 198.489C155 199.618 154.62 200.482 153.857 201.091C153.093 201.697 151.977 202 150.495 202H145V189H150.159C151.483 189 152.519 189.286 153.263 189.854C154.009 190.423 154.38 191.248 154.38 192.326C154.38 193.056 154.203 193.672 153.848 194.174C153.491 194.675 152.995 195.051 152.358 195.296C153.22 195.482 153.876 195.845 154.326 196.384L154.328 196.38Z" fill="white"/>
<path d="M142 190.19H137.648V202H136.353V190.19H132V189H142V190.19Z" fill="white"/>
<path d="M123.152 201.16C122.17 200.601 121.396 199.824 120.839 198.832C120.277 197.839 120 196.729 120 195.501C120 194.271 120.277 193.159 120.839 192.168C121.396 191.176 122.17 190.399 123.161 189.84C124.151 189.281 125.256 189 126.48 189C127.397 189 128.246 189.157 129.023 189.476C129.799 189.791 130.458 190.253 131 190.862L130.17 191.722C129.204 190.711 127.988 190.208 126.516 190.208C125.538 190.208 124.651 190.44 123.849 190.9C123.047 191.363 122.421 191.998 121.968 192.799C121.515 193.603 121.29 194.504 121.29 195.503C121.29 196.5 121.515 197.399 121.968 198.203C122.423 199.007 123.049 199.64 123.849 200.105C124.649 200.567 125.538 200.798 126.516 200.798C128 200.798 129.217 200.287 130.17 199.263L131 200.12C130.46 200.729 129.797 201.194 129.013 201.519C128.23 201.841 127.379 202 126.461 202C125.235 202 124.133 201.721 123.15 201.162L123.152 201.16Z" fill="white"/>
<path d="M119 190.19H114.21V202H112.79V190.19H108V189H119V190.19Z" fill="white"/>
<path d="M106 189V202H104.626V196.002H96.394V202H95V189H96.394V194.794H104.626V189H106Z" fill="white"/>
<path d="M92 200.812V202H83V189H91.7254V190.19H84.3462V194.814H90.9284V195.984H84.3462V200.812H92Z" fill="white"/>
<path d="M81 190.19H74.294L74.3117 202H73V189H81V190.19Z" fill="white"/>
<path d="M66.5555 197.414L63.491 190.43L60.4247 197.414H66.5537H66.5555ZM67.0471 198.527H59.9349L58.4026 202H57L62.8338 189H64.1644L70 202H68.5776L67.0453 198.527H67.0471Z" fill="white"/>
</g>
<path d="M43 155H185.5" stroke="url(#paint0_radial_486)"/>
<g filter="url(#filter1_d_486)">
<path d="M11.921 107.197C11.887 107.066 11.8508 106.937 11.8094 106.813C11.768 106.689 11.7308 106.561 11.6968 106.428C11.3664 107.471 10.9765 108.497 10.5303 109.507C10.0841 110.516 9.64431 111.526 9.21406 112.536H14.1551C13.7737 111.641 13.4019 110.752 13.0375 109.867C12.6731 108.981 12.3013 108.091 11.921 107.197ZM19.3946 121.176H17.8298C17.3156 119.984 16.8121 118.789 16.3149 117.587C15.8187 116.388 15.3131 115.192 14.7999 114H8.56708C8.07202 115.191 7.57059 116.388 7.06597 117.587C6.56029 118.789 6.05248 119.983 5.5383 121.176H4C5.29077 118.131 6.57303 115.101 7.84893 112.089C9.12376 109.077 10.406 106.047 11.6968 103.002C12.9886 106.047 14.2709 109.078 15.5457 112.089C16.8205 115.102 18.1028 118.131 19.3946 121.176Z" fill="white"/>
<path d="M23.3398 103.001C24.8622 104.971 26.3771 106.936 27.8836 108.898C29.39 110.859 30.9038 112.826 32.4273 114.794C33.9496 112.825 35.4656 110.859 36.972 108.898C38.4774 106.936 39.9923 104.971 41.5157 103.001V121.176H39.9764V108.215C39.9764 108.05 39.9806 107.896 39.9881 107.755C39.9976 107.616 40.0093 107.47 40.0263 107.321C38.8354 109.027 37.5893 110.698 36.29 112.336C34.9897 113.975 33.7032 115.63 32.4294 117.302C31.3033 115.829 30.1867 114.368 29.0776 112.92C27.9696 111.472 26.8509 110.011 25.7259 108.538L25.2053 107.867C25.1384 107.784 25.0757 107.692 25.0194 107.595C24.961 107.495 24.8983 107.404 24.8335 107.321C24.8495 107.47 24.8622 107.616 24.8696 107.755C24.8781 107.896 24.8824 108.05 24.8824 108.215V121.176H23.343V103.001H23.3398Z" fill="white"/>
<path d="M46.0396 121.176V103.796H56.541V105.285H47.5778V111.691H55.5721V113.156H47.5778V119.71H56.8884V121.176H46.0396Z" fill="white"/>
<path d="M62.2219 111.716H64.5814C65.375 111.716 66.0368 111.612 66.5669 111.405C67.0971 111.199 67.5146 110.934 67.8216 110.611C68.1275 110.289 68.3432 109.932 68.4675 109.543C68.5918 109.154 68.6534 108.778 68.6534 108.413C68.6534 107.999 68.5493 107.603 68.3432 107.222C68.136 106.841 67.8535 106.506 67.4986 106.216C67.1427 105.927 66.7167 105.695 66.2196 105.521C65.7234 105.347 65.1848 105.26 64.6058 105.26H62.2219V111.716ZM60.6836 121.176V103.796H64.5825C65.1274 103.796 65.7234 103.882 66.3693 104.056C67.0153 104.23 67.624 104.503 68.1945 104.876C68.766 105.248 69.2409 105.724 69.6223 106.304C70.0026 106.884 70.1928 107.586 70.1928 108.413C70.1928 109.639 69.8783 110.656 69.2483 111.467C68.6194 112.279 67.71 112.817 66.517 113.081C67.147 114.421 67.7791 115.765 68.4165 117.116C69.0529 118.464 69.6945 119.818 70.3415 121.175H68.6534C68.0234 119.833 67.3956 118.502 66.7667 117.177C66.1377 115.853 65.5088 114.52 64.8799 113.178C64.7801 113.195 64.677 113.204 64.5686 113.204C64.4613 113.204 64.3498 113.204 64.234 113.204H62.2219V121.174H60.6836V121.176Z" fill="white"/>
<path d="M74.2656 121.177H75.8305V103.796H74.2656V121.177Z" fill="white"/>
<path d="M92.3656 118.89L93.2102 120.131C92.5483 120.512 91.8397 120.814 91.0876 121.038C90.3344 121.261 89.5355 121.373 88.6909 121.373C87.466 121.373 86.3165 121.142 85.2393 120.678C84.1631 120.215 83.2251 119.582 82.4219 118.779C81.6188 117.975 80.9856 117.036 80.5224 115.96C80.0582 114.885 79.8276 113.735 79.8276 112.509C79.8276 111.284 80.0582 110.13 80.5224 109.045C80.9856 107.962 81.6188 107.018 82.4219 106.215C83.224 105.413 84.1631 104.775 85.2393 104.303C86.3155 103.832 87.466 103.596 88.6909 103.596C89.5355 103.596 90.3333 103.704 91.0876 103.919C91.8397 104.135 92.5558 104.441 93.2346 104.837C93.1018 105.053 92.9616 105.264 92.8129 105.471C92.6641 105.678 92.5143 105.89 92.3667 106.104C91.2586 105.425 90.0337 105.086 88.692 105.086C87.6827 105.086 86.7351 105.281 85.8491 105.67C84.9641 106.059 84.1897 106.592 83.5278 107.271C82.866 107.95 82.3401 108.74 81.9513 109.643C81.5614 110.545 81.367 111.501 81.367 112.511C81.367 113.538 81.5572 114.497 81.9385 115.391C82.3189 116.285 82.8394 117.067 83.5034 117.737C84.1642 118.408 84.9386 118.938 85.8247 119.326C86.7096 119.716 87.6572 119.91 88.6675 119.91C89.3464 119.91 89.9912 119.823 90.6042 119.649C91.2161 119.474 91.8047 119.224 92.3667 118.892L92.3656 118.89Z" fill="white"/>
<path d="M104.354 107.196C104.321 107.065 104.284 106.936 104.243 106.812C104.201 106.687 104.164 106.56 104.131 106.427C103.801 107.469 103.411 108.496 102.964 109.506C102.517 110.515 102.078 111.524 101.648 112.535H106.589C106.208 111.64 105.836 110.751 105.472 109.866C105.107 108.98 104.735 108.09 104.355 107.196H104.354ZM111.828 121.175H110.263C109.75 119.983 109.245 118.788 108.749 117.586C108.253 116.387 107.747 115.191 107.234 113.999H101.001C100.505 115.189 100.005 116.387 99.5001 117.586C98.9945 118.788 98.4845 119.982 97.9725 121.175H96.4331C97.7239 118.13 99.0061 115.1 100.282 112.087C101.557 109.076 102.839 106.046 104.13 103.001C105.421 106.046 106.704 109.077 107.979 112.087C109.254 115.101 110.536 118.13 111.828 121.175Z" fill="white"/>
<path d="M130.948 103.796V121.971C128.731 119.504 126.523 117.059 124.33 114.634C122.138 112.209 119.931 109.763 117.714 107.296C117.631 107.181 117.553 107.072 117.478 106.974C117.404 106.874 117.324 106.767 117.242 106.651C117.258 106.784 117.271 106.916 117.28 107.048C117.287 107.18 117.3 107.312 117.316 107.444V121.175H115.777V103C117.994 105.499 120.201 107.982 122.394 110.448C124.586 112.915 126.794 115.399 129.01 117.897C129.093 118.012 129.173 118.121 129.247 118.219C129.322 118.319 129.4 118.427 129.483 118.541C129.466 118.41 129.453 118.277 129.446 118.145C129.437 118.012 129.424 117.88 129.407 117.748V103.794H130.947L130.948 103.796Z" fill="white"/>
<path d="M144.103 113.181V119.71H147.132C147.694 119.71 148.224 119.645 148.721 119.512C149.217 119.379 149.652 119.182 150.023 118.917C150.396 118.652 150.691 118.317 150.906 117.911C151.12 117.505 151.228 117.037 151.228 116.508C151.228 115.929 151.104 115.427 150.856 115.007C150.608 114.584 150.272 114.237 149.849 113.963C149.427 113.692 148.948 113.493 148.41 113.369C147.872 113.243 147.322 113.182 146.758 113.182H144.102L144.103 113.181ZM144.103 105.286V111.691H147.082C148.157 111.691 149.009 111.38 149.639 110.76C150.269 110.139 150.583 109.333 150.583 108.338C150.583 107.246 150.252 106.463 149.591 105.993C148.928 105.521 148.069 105.285 147.008 105.285H144.104L144.103 105.286ZM142.564 121.176V103.796H146.809C147.603 103.796 148.327 103.879 148.982 104.044C149.637 104.21 150.198 104.466 150.669 104.814C151.141 105.162 151.505 105.612 151.761 106.167C152.017 106.722 152.147 107.38 152.147 108.141C152.147 109.167 151.899 110.069 151.402 110.848C150.906 111.625 150.145 112.155 149.118 112.437C149.597 112.537 150.058 112.702 150.495 112.933C150.935 113.165 151.323 113.463 151.663 113.828C152.003 114.192 152.27 114.614 152.47 115.094C152.669 115.574 152.768 116.113 152.768 116.708C152.768 117.452 152.613 118.102 152.306 118.656C152.002 119.212 151.59 119.674 151.078 120.047C150.565 120.418 149.977 120.701 149.316 120.891C148.654 121.082 147.967 121.177 147.255 121.177H142.562L142.564 121.176Z" fill="white"/>
<path d="M162.359 121.375C161.483 121.375 160.676 121.25 159.939 121.003C159.202 120.754 158.564 120.387 158.027 119.897C157.488 119.409 157.066 118.801 156.761 118.073C156.455 117.344 156.301 116.508 156.301 115.564V103.796H157.84V115.489C157.84 116.202 157.951 116.831 158.175 117.377C158.399 117.923 158.709 118.383 159.105 118.755C159.503 119.127 159.979 119.411 160.534 119.611C161.088 119.81 161.695 119.91 162.358 119.91C163.004 119.91 163.604 119.81 164.159 119.611C164.714 119.411 165.195 119.127 165.6 118.755C166.004 118.383 166.32 117.923 166.544 117.377C166.767 116.831 166.879 116.202 166.879 115.489V103.796H168.419V115.564C168.419 116.508 168.265 117.345 167.959 118.073C167.653 118.801 167.227 119.409 166.681 119.897C166.135 120.387 165.494 120.754 164.756 121.003C164.019 121.251 163.22 121.375 162.36 121.375H162.359Z" fill="white"/>
<path d="M184.128 103.796V105.285H178.044V121.176H176.505V105.285H170.398V103.796H184.128Z" fill="white"/>
<path d="M186.039 121.176V103.796H187.577V119.71H196.888V121.176H186.039Z" fill="white"/>
<path d="M200.765 121.176V103.796H211.267V105.285H202.304V111.691H210.299V113.156H202.304V119.71H211.614V121.176H200.765Z" fill="white"/>
<path d="M216.954 111.716H219.313C220.108 111.716 220.769 111.612 221.3 111.405C221.829 111.199 222.247 110.934 222.553 110.611C222.86 110.289 223.075 109.932 223.199 109.543C223.323 109.154 223.385 108.778 223.385 108.413C223.385 107.999 223.282 107.603 223.075 107.222C222.869 106.841 222.587 106.506 222.231 106.216C221.875 105.927 221.449 105.695 220.953 105.521C220.457 105.347 219.917 105.26 219.339 105.26H216.957V111.716H216.954ZM215.415 121.176V103.796H219.314C219.86 103.796 220.456 103.882 221.101 104.056C221.747 104.23 222.356 104.503 222.925 104.876C223.496 105.248 223.972 105.724 224.354 106.304C224.734 106.884 224.924 107.586 224.924 108.413C224.924 109.639 224.61 110.656 223.981 111.467C223.351 112.279 222.443 112.817 221.25 113.081C221.879 114.421 222.512 115.765 223.148 117.116C223.785 118.464 224.427 119.818 225.073 121.175H223.384C222.755 119.833 222.126 118.502 221.497 117.177C220.868 115.853 220.239 114.52 219.609 113.178C219.511 113.195 219.406 113.204 219.3 113.204C219.192 113.204 219.08 113.204 218.964 113.204H216.953V121.174H215.414L215.415 121.176Z" fill="white"/>
</g>
<g filter="url(#filter2_d_486)">
<path d="M95.0434 0.000244838L64 82.057L65.8502 82.0942L91.3518 14.8744L99.854 37.3062H86.2801C86.035 37.9418 85.8476 38.4215 85.6588 38.9226H100.513L116.833 82.0942H128.961L97.7278 0H95.0434V0.000244838Z" fill="white"/>
<path d="M134.587 38.4124H124.1L124.096 1.86995C125.772 1.85407 126.319 1.86995 127.69 1.86995H131.855C133.83 1.86995 135.82 2.00706 137.835 2.39748C139.848 2.78967 141.671 3.61084 143.306 4.861C144.939 6.11318 146.27 7.97002 147.295 10.433C148.322 12.8971 148.835 16.1628 148.835 20.2281C148.835 23.8271 148.492 26.798 147.809 29.1441C147.125 31.4902 146.155 33.3498 144.902 34.7169C143.647 36.0858 142.147 37.045 140.399 37.591C138.65 38.1389 136.712 38.4124 134.586 38.4124H134.587ZM157.383 77.7115C159.966 75.5991 161.903 73.0774 163.197 70.1445C164.488 67.2114 165.134 63.9855 165.134 60.4669C165.134 57.1048 164.411 54.1319 162.969 51.5509C161.524 48.97 159.644 46.7998 157.327 45.0403C155.007 43.2807 152.426 41.9131 149.575 40.9339C146.726 39.9575 143.933 39.3505 141.198 39.1161V38.8815C143.857 38.5702 146.401 37.9043 148.835 36.8868C151.266 35.8713 153.412 34.5407 155.274 32.8986C157.136 31.2555 158.618 29.3404 159.72 27.1506C160.821 24.9611 161.373 22.575 161.373 19.994C161.373 18.117 160.992 16.026 160.234 13.718C159.473 11.4122 158.067 9.26025 156.016 7.26605C153.964 5.27209 151.152 3.59068 147.581 2.22206C144.008 0.854444 139.377 0 133.831 0C132.766 0 112.697 0 112.697 0L112.676 15.3392L124.107 46.2975L124.1 40.054H136.638C141.728 40.054 145.566 41.8544 148.151 45.4506C150.733 49.0488 152.027 53.9756 152.027 60.2315C152.027 64.6128 151.645 68.2491 150.886 71.1421C149.209 77.183 144.687 83.3468 138.277 84.5088C138.277 84.5088 142.351 84.2706 147.581 82.6968C151.537 81.5064 154.799 79.8229 157.384 77.7118L157.383 77.7115Z" fill="white"/>
</g>
<defs>
<filter id="filter0_d_486" x="38" y="189" width="154" height="63" filterUnits="userSpaceOnUse" color-interpolation-filters="sRGB">
<feFlood flood-opacity="0" result="BackgroundImageFix"/>
<feColorMatrix in="SourceAlpha" type="matrix" values="0 0 0 0 0 0 0 0 0 0 0 0 0 0 0 0 0 0 127 0" result="hardAlpha"/>
<feOffset dy="4"/>
<feGaussianBlur stdDeviation="2"/>
<feColorMatrix type="matrix" values="0 0 0 0 0 0 0 0 0 0 0 0 0 0 0 0 0 0 0.25 0"/>
<feBlend mode="normal" in2="BackgroundImageFix" result="effect1_dropShadow_486"/>
<feBlend mode="normal" in="SourceGraphic" in2="effect1_dropShadow_486" result="shape"/>
</filter>
<filter id="filter1_d_486" x="0" y="103" width="229.073" height="26.9706" filterUnits="userSpaceOnUse" color-interpolation-filters="sRGB">
<feFlood flood-opacity="0" result="BackgroundImageFix"/>
<feColorMatrix in="SourceAlpha" type="matrix" values="0 0 0 0 0 0 0 0 0 0 0 0 0 0 0 0 0 0 127 0" result="hardAlpha"/>
<feOffset dy="4"/>
<feGaussianBlur stdDeviation="2"/>
<feColorMatrix type="matrix" values="0 0 0 0 0 0 0 0 0 0 0 0 0 0 0 0 0 0 0.25 0"/>
<feBlend mode="normal" in2="BackgroundImageFix" result="effect1_dropShadow_486"/>
<feBlend mode="normal" in="SourceGraphic" in2="effect1_dropShadow_486" result="shape"/>
</filter>
<filter id="filter2_d_486" x="60" y="0" width="109.134" height="92.5088" filterUnits="userSpaceOnUse" color-interpolation-filters="sRGB">
<feFlood flood-opacity="0" result="BackgroundImageFix"/>
<feColorMatrix in="SourceAlpha" type="matrix" values="0 0 0 0 0 0 0 0 0 0 0 0 0 0 0 0 0 0 127 0" result="hardAlpha"/>
<feOffset dy="4"/>
<feGaussianBlur stdDeviation="2"/>
<feColorMatrix type="matrix" values="0 0 0 0 0 0 0 0 0 0 0 0 0 0 0 0 0 0 0.25 0"/>
<feBlend mode="normal" in2="BackgroundImageFix" result="effect1_dropShadow_486"/>
<feBlend mode="normal" in="SourceGraphic" in2="effect1_dropShadow_486" result="shape"/>
</filter>
<radialGradient id="paint0_radial_486" cx="0" cy="0" r="1" gradientUnits="userSpaceOnUse" gradientTransform="translate(114.246 154.727) rotate(90) scale(0.726999 71.2463)">
<stop stop-color="white"/>
<stop offset="1" stop-color="white" stop-opacity="0.06"/>
</radialGradient>
</defs>
</svg>
