<svg width="115" height="57" viewBox="0 0 115 57" fill="none" xmlns="http://www.w3.org/2000/svg">
<path d="M3.26052 50.7269C3.24652 50.6727 3.23165 50.6198 3.2146 50.5686C3.19755 50.5174 3.18224 50.465 3.16825 50.4103C3.03225 50.8393 2.87176 51.2617 2.68809 51.6776C2.50442 52.093 2.32338 52.5085 2.14627 52.9243H4.18016C4.02317 52.5561 3.87011 52.1901 3.72012 51.8258C3.57013 51.4611 3.41707 51.0947 3.26052 50.7269ZM6.33693 56.4809H5.69278C5.48113 55.9903 5.27385 55.4983 5.06919 55.0037C4.86497 54.51 4.65682 54.0176 4.4456 53.5269H1.87996C1.67617 54.0172 1.46977 54.51 1.26205 55.0037C1.0539 55.4983 0.844866 55.9898 0.633212 56.4809H0C0.531321 55.2276 1.05914 53.9804 1.58434 52.7402C2.1091 51.5005 2.63693 50.2533 3.16825 49C3.7 50.2533 4.22783 51.5009 4.75259 52.7402C5.27735 53.9809 5.80517 55.2276 6.33693 56.4809Z" fill="#07273E"/>
<path d="M7.96191 49.001C8.58857 49.8117 9.21216 50.6207 9.83225 51.4284C10.4523 52.2357 11.0755 53.0451 11.7026 53.8555C12.3292 53.0447 12.9533 52.2357 13.5734 51.4284C14.193 50.6207 14.8166 49.8117 15.4437 49.001V56.4823H14.81V51.1472C14.81 51.0795 14.8118 51.0161 14.8149 50.9579C14.8188 50.9006 14.8236 50.8407 14.8306 50.779C14.3404 51.4813 13.8274 52.1692 13.2926 52.8435C12.7574 53.5183 12.2278 54.1996 11.7035 54.8879C11.2399 54.2814 10.7803 53.6801 10.3238 53.0841C9.86767 52.488 9.40719 51.8867 8.94409 51.2802L8.72981 51.0038C8.70226 50.9697 8.67646 50.9321 8.65329 50.8919C8.62924 50.8508 8.60343 50.8136 8.57676 50.779C8.58332 50.8407 8.58857 50.9006 8.59163 50.9579C8.59513 51.0161 8.59687 51.0795 8.59687 51.1472V56.4823H7.96323V49.001H7.96191Z" fill="#07273E"/>
<path d="M17.3027 56.4819V49.3276H21.6255V49.9407H17.9359V52.5777H21.2266V53.1807H17.9359V55.8784H21.7685V56.4819H17.3027Z" fill="#07273E"/>
<path d="M23.9662 52.5877H24.9375C25.2641 52.5877 25.5366 52.5453 25.7548 52.46C25.973 52.3752 26.1449 52.2659 26.2712 52.1329C26.3972 52.0004 26.4859 51.8535 26.5371 51.6934C26.5883 51.5334 26.6136 51.3786 26.6136 51.2281C26.6136 51.058 26.5708 50.8949 26.4859 50.7379C26.4007 50.5814 26.2844 50.4432 26.1383 50.3238C25.9918 50.2049 25.8164 50.1095 25.6118 50.0378C25.4076 49.9661 25.1859 49.9302 24.9475 49.9302H23.9662V52.5877ZM23.333 56.4819V49.3276H24.9379C25.1622 49.3276 25.4076 49.3631 25.6734 49.4348C25.9393 49.5065 26.1899 49.6189 26.4247 49.7724C26.66 49.9254 26.8555 50.1213 27.0125 50.3601C27.169 50.5989 27.2473 50.8879 27.2473 51.2281C27.2473 51.7328 27.1179 52.1517 26.8585 52.4854C26.5996 52.8195 26.2253 53.0412 25.7342 53.1496C25.9935 53.7015 26.2537 54.2547 26.5161 54.8105C26.7781 55.3655 27.0422 55.923 27.3085 56.4814H26.6136C26.3543 55.9291 26.0959 55.3812 25.837 54.8359C25.5781 54.291 25.3192 53.7422 25.0603 53.1899C25.0192 53.1969 24.9768 53.2004 24.9322 53.2004C24.8881 53.2004 24.8421 53.2004 24.7945 53.2004H23.9662V56.481H23.333V56.4819Z" fill="#07273E"/>
<path d="M28.9214 56.4823H29.5655V49.3276H28.9214V56.4823Z" fill="#07273E"/>
<path d="M36.3734 55.5405L36.7211 56.0513C36.4486 56.2083 36.157 56.3325 35.8474 56.4247C35.5373 56.5166 35.2085 56.5625 34.8608 56.5625C34.3566 56.5625 33.8834 56.4676 33.44 56.2765C32.997 56.0858 32.6109 55.8252 32.2803 55.4946C31.9497 55.164 31.6891 54.7774 31.4984 54.3344C31.3073 53.8919 31.2124 53.4183 31.2124 52.9136C31.2124 52.4094 31.3073 51.9345 31.4984 51.488C31.6891 51.042 31.9497 50.6537 32.2803 50.3231C32.6105 49.9929 32.997 49.7301 33.44 49.5359C33.883 49.3422 34.3566 49.2451 34.8608 49.2451C35.2085 49.2451 35.5369 49.2893 35.8474 49.3781C36.157 49.4668 36.4517 49.5928 36.7311 49.7559C36.6765 49.8447 36.6188 49.9317 36.5575 50.017C36.4963 50.1018 36.4347 50.1893 36.3739 50.2771C35.9178 49.9977 35.4136 49.8582 34.8612 49.8582C34.4458 49.8582 34.0557 49.9387 33.691 50.0987C33.3268 50.2588 33.008 50.4783 32.7355 50.7577C32.4631 51.0372 32.2466 51.3625 32.0866 51.7342C31.9261 52.1055 31.8461 52.4991 31.8461 52.9145C31.8461 53.3374 31.9243 53.7323 32.0813 54.1C32.2379 54.4682 32.4522 54.7901 32.7255 55.066C32.9975 55.342 33.3163 55.5602 33.681 55.7198C34.0452 55.8803 34.4353 55.9603 34.8512 55.9603C35.1306 55.9603 35.3961 55.9245 35.6484 55.8527C35.9003 55.781 36.1425 55.6778 36.3739 55.5414L36.3734 55.5405Z" fill="#07273E"/>
<path d="M41.3093 50.7279C41.2958 50.6737 41.2805 50.6207 41.2634 50.5696C41.2464 50.5184 41.2311 50.4659 41.2175 50.4113C41.0815 50.8403 40.921 51.2627 40.7374 51.6786C40.5533 52.094 40.3726 52.5094 40.1955 52.9253H42.2294C42.0724 52.5571 41.9194 52.1911 41.7694 51.8268C41.6194 51.4621 41.4663 51.0956 41.3098 50.7279H41.3093ZM44.3858 56.4819H43.7416C43.5304 55.9912 43.3227 55.4993 43.1185 55.0047C42.9142 54.511 42.7061 54.0186 42.4949 53.5279H39.9292C39.725 54.0181 39.519 54.511 39.3113 55.0047C39.1032 55.4993 38.8933 55.9908 38.6825 56.4819H38.0488C38.5801 55.2286 39.108 53.9814 39.6332 52.7412C40.1579 51.5015 40.6858 50.2543 41.2171 49.001C41.7484 50.2543 42.2767 51.5019 42.8014 52.7412C43.3262 53.9818 43.854 55.2286 44.3858 56.4819Z" fill="#07273E"/>
<path d="M52.2554 49.3275V56.8089C51.3428 55.7935 50.434 54.7872 49.5315 53.7889C48.6289 52.7905 47.7206 51.7839 46.8079 50.7684C46.7738 50.7212 46.7415 50.6762 46.7109 50.6359C46.6803 50.5948 46.6475 50.5507 46.6138 50.503C46.6203 50.5577 46.6256 50.6119 46.6291 50.6661C46.6321 50.7208 46.6374 50.775 46.644 50.8292V56.4813H46.0107V49C46.9234 50.0285 47.8317 51.0509 48.7343 52.0659C49.6368 53.0813 50.5456 54.1037 51.4578 55.1323C51.4919 55.1795 51.5247 55.2241 51.5553 55.2648C51.5863 55.3059 51.6183 55.35 51.6524 55.3973C51.6454 55.3431 51.6401 55.2884 51.6371 55.2342C51.6336 55.1795 51.6283 55.1253 51.6213 55.0706V49.3267H52.255L52.2554 49.3275Z" fill="#07273E"/>
<path d="M57.6707 53.1908V55.8784H58.9175C59.1488 55.8784 59.367 55.8517 59.5717 55.7971C59.7759 55.7424 59.9547 55.6611 60.1078 55.5522C60.2613 55.4429 60.3824 55.3051 60.4712 55.1381C60.5591 54.971 60.6037 54.7782 60.6037 54.5604C60.6037 54.3221 60.5525 54.1156 60.4506 53.9425C60.3483 53.7684 60.2101 53.6254 60.0361 53.513C59.8625 53.4011 59.6652 53.3193 59.4435 53.2682C59.2222 53.2166 58.9957 53.1912 58.7635 53.1912H57.6703L57.6707 53.1908ZM57.6707 49.9412V52.5777H58.8969C59.3394 52.5777 59.6902 52.4495 59.9495 52.1946C60.2088 51.9388 60.3382 51.6068 60.3382 51.1975C60.3382 50.748 60.2018 50.4257 59.9298 50.232C59.6569 50.0378 59.3032 49.9407 58.8667 49.9407H57.6711L57.6707 49.9412ZM57.0371 56.4819V49.3276H58.7845C59.1116 49.3276 59.4094 49.3617 59.6792 49.43C59.9486 49.4982 60.1795 49.6036 60.3737 49.747C60.5678 49.89 60.7178 50.0754 60.8232 50.3037C60.9286 50.5324 60.9819 50.8031 60.9819 51.1162C60.9819 51.5386 60.8796 51.9099 60.6754 52.2304C60.4712 52.5505 60.1576 52.7688 59.7352 52.8846C59.9324 52.9257 60.1222 52.994 60.3019 53.0889C60.483 53.1842 60.6426 53.3071 60.7825 53.4571C60.9225 53.6071 61.0327 53.7807 61.1149 53.9783C61.1967 54.176 61.2373 54.3977 61.2373 54.6426C61.2373 54.9491 61.1739 55.2168 61.0475 55.4446C60.922 55.6733 60.7528 55.8635 60.542 56.017C60.3308 56.1701 60.0885 56.2864 59.8165 56.3647C59.5441 56.4434 59.2612 56.4823 58.9682 56.4823H57.0366L57.0371 56.4819Z" fill="#07273E"/>
<path d="M65.1853 56.5637C64.8246 56.5637 64.4922 56.5125 64.1892 56.4106C63.8857 56.3083 63.6229 56.157 63.402 55.9554C63.1803 55.7546 63.0063 55.5045 62.8808 55.2045C62.7548 54.9045 62.6914 54.5604 62.6914 54.1721V49.3276H63.3251V54.141C63.3251 54.4344 63.3705 54.6933 63.4628 54.9181C63.5551 55.1429 63.6828 55.3322 63.8459 55.4853C64.0094 55.6383 64.2053 55.7555 64.434 55.8377C64.6619 55.9195 64.912 55.9606 65.1849 55.9606C65.4508 55.9606 65.6978 55.9195 65.9261 55.8377C66.1544 55.7555 66.3525 55.6383 66.5191 55.4853C66.6857 55.3322 66.8156 55.1429 66.9079 54.9181C66.9997 54.6933 67.0456 54.4344 67.0456 54.141V49.3276H67.6797V54.1721C67.6797 54.5604 67.6163 54.905 67.4903 55.2045C67.3644 55.5045 67.189 55.7546 66.9643 55.9554C66.7395 56.157 66.4758 56.3083 66.1719 56.4106C65.8684 56.5129 65.5395 56.5637 65.1858 56.5637H65.1853Z" fill="#07273E"/>
<path d="M74.1458 49.3276V49.9407H71.6414V56.4819H71.0082V49.9407H68.4941V49.3276H74.1458Z" fill="#07273E"/>
<path d="M74.9321 56.4819V49.3276H75.5653V55.8784H79.3978V56.4819H74.9321Z" fill="#07273E"/>
<path d="M80.9951 56.4819V49.3276H85.3178V49.9407H81.6288V52.5777H84.9195V53.1807H81.6288V55.8784H85.4608V56.4819H80.9951Z" fill="#07273E"/>
<path d="M87.659 52.5877H88.6298C88.9569 52.5877 89.2293 52.5453 89.4476 52.46C89.6653 52.3752 89.8376 52.2659 89.9636 52.1329C90.0899 52.0004 90.1783 51.8535 90.2294 51.6934C90.2806 51.5334 90.306 51.3786 90.306 51.2281C90.306 51.058 90.2636 50.8949 90.1783 50.7379C90.0934 50.5814 89.9776 50.4432 89.8311 50.3238C89.6846 50.2049 89.5092 50.1095 89.305 50.0378C89.1008 49.9661 88.8786 49.9302 88.6407 49.9302H87.6599V52.5877H87.659ZM87.0253 56.4819V49.3276H88.6302C88.855 49.3276 89.1003 49.3631 89.3658 49.4348C89.6317 49.5065 89.8822 49.6189 90.1166 49.7724C90.3519 49.9254 90.5478 50.1213 90.7048 50.3601C90.8613 50.5989 90.9396 50.8879 90.9396 51.2281C90.9396 51.7328 90.8102 52.1517 90.5513 52.4854C90.292 52.8195 89.9181 53.0412 89.427 53.1496C89.6859 53.7015 89.9465 54.2547 90.2085 54.8105C90.4708 55.3655 90.735 55.923 91.0008 56.4814H90.3055C90.0466 55.9291 89.7878 55.3812 89.5289 54.8359C89.27 54.291 89.0111 53.7422 88.7518 53.1899C88.7111 53.1969 88.6683 53.2004 88.6245 53.2004C88.5799 53.2004 88.534 53.2004 88.4864 53.2004H87.6586V56.481H87.0249L87.0253 56.4819Z" fill="#07273E"/>
<path d="M36.1655 1.00012L21 41.087L21.9039 41.1052L34.3621 8.26654L38.5156 19.2251H31.8844C31.7647 19.5356 31.6731 19.7699 31.5809 20.0147H38.8373L46.8105 41.1052H52.7351L37.4769 1H36.1655V1.00012Z" fill="#07273E"/>
<path d="M55.4833 19.7655H50.3604L50.3581 1.91352C51.177 1.90576 51.4442 1.91352 52.1143 1.91352H54.1488C55.1137 1.91352 56.086 1.9805 57.0703 2.17123C58.0534 2.36283 58.9443 2.76399 59.743 3.37473C60.5407 3.98645 61.1909 4.89356 61.6919 6.09681C62.1932 7.30055 62.4439 8.89598 62.4439 10.882C62.4439 12.6402 62.2766 14.0915 61.9426 15.2377C61.6084 16.3838 61.1349 17.2922 60.5224 17.9601C59.9098 18.6288 59.1766 19.0975 58.3227 19.3642C57.4686 19.6319 56.5218 19.7655 55.4831 19.7655H55.4833ZM66.6202 38.9641C67.8816 37.9322 68.8281 36.7002 69.4601 35.2674C70.0909 33.8346 70.4067 32.2586 70.4067 30.5397C70.4067 28.8972 70.0535 27.4449 69.3487 26.184C68.6429 24.9231 67.7243 23.8629 66.5924 23.0034C65.4594 22.1438 64.1982 21.4757 62.8057 20.9973C61.4136 20.5203 60.0494 20.2238 58.713 20.1093V19.9946C60.0119 19.8426 61.2551 19.5172 62.4441 19.0202C63.6317 18.5241 64.6799 17.874 65.5897 17.0718C66.4992 16.2691 67.2234 15.3336 67.7618 14.2638C68.2996 13.1942 68.5691 12.0285 68.5691 10.7676C68.5691 9.85062 68.3828 8.82912 68.0125 7.70159C67.6409 6.57518 66.9543 5.52388 65.9522 4.54966C64.9497 3.57556 63.5758 2.75414 61.8313 2.08553C60.086 1.41742 57.8237 1 55.1143 1C54.5941 1 44.7895 1 44.7895 1L44.7793 8.49358L50.3639 23.6175L50.3605 20.5674H56.4856C58.9723 20.5674 60.8469 21.447 62.1098 23.2038C63.3714 24.9617 64.0033 27.3685 64.0033 30.4247C64.0033 32.5651 63.8169 34.3415 63.4461 35.7548C62.6268 38.7059 60.4176 41.7171 57.2862 42.2848C57.2862 42.2848 59.2765 42.1684 61.8312 41.3996C63.764 40.818 65.3577 39.9956 66.6203 38.9642L66.6202 38.9641Z" fill="#07273E"/>
<path fill-rule="evenodd" clip-rule="evenodd" d="M95.1854 13.7145C95.6814 13.4962 102.036 11.0989 102.119 11.0992C102.146 11.0991 102.177 11.6868 102.188 12.405C102.199 13.1231 102.229 13.8913 102.255 14.112L102.303 14.5132L100.998 15.3574L99.6931 16.2016L99.7003 16.9276L99.7075 17.6538L101.485 16.9435L103.262 16.2333L104.665 16.8015C105.437 17.114 106.214 17.4402 106.392 17.5264C106.569 17.6127 106.74 17.6586 106.77 17.6284C106.8 17.5984 106.821 17.2723 106.817 16.9038L106.809 16.2339L105.507 15.3594L104.206 14.4848L104.266 14.1559C104.299 13.975 104.312 13.2494 104.294 12.5435C104.277 11.8376 104.302 11.2201 104.351 11.1712C104.4 11.1224 104.808 11.2311 105.258 11.4127C107.299 12.2354 111.579 13.8631 111.709 13.8655C111.794 13.8669 111.841 13.5189 111.825 13L111.799 12.132L109.821 10.5862C108.733 9.73597 107.037 8.39635 106.053 7.60933L104.263 6.17842L104.253 3.93372C104.243 1.63477 104.112 0.923267 103.603 0.407125C103.269 0.0684201 102.985 0.111243 102.689 0.544863C102.24 1.20165 102.135 1.85773 102.128 4.05543L102.12 6.25653L98.381 9.19003L94.6421 12.1235L94.6565 12.6437C94.6644 12.9297 94.6824 13.3336 94.6965 13.5411L94.7221 13.9184L95.1854 13.7145Z" fill="#FF831E"/>
<rect x="102.696" y="16" width="1" height="39" fill="url(#paint0_radial_560)"/>
<defs>
<radialGradient id="paint0_radial_560" cx="0" cy="0" r="1" gradientUnits="userSpaceOnUse" gradientTransform="translate(103.196 35.5) rotate(90) scale(19.5 0.5)">
<stop stop-color="#FF831E"/>
<stop offset="1" stop-color="#FF831E" stop-opacity="0"/>
</radialGradient>
</defs>
</svg>
