<svg width="204" height="58" viewBox="0 0 204 58" fill="none" xmlns="http://www.w3.org/2000/svg">
<path d="M186.151 42.549C186.151 41.6076 185.505 41.138 184.217 41.138H181.683V43.9928H184.217C185.506 43.9928 186.151 43.5116 186.151 42.5501V42.549ZM181.683 40.529H183.971C184.548 40.529 184.991 40.4097 185.302 40.1765C185.611 39.9412 185.766 39.5992 185.766 39.1507C185.766 38.7011 185.611 38.3591 185.302 38.1238C184.991 37.8884 184.548 37.7713 183.971 37.7713H181.683V40.5301V40.529ZM186.525 41.3881C186.796 41.6984 186.93 42.1037 186.93 42.6018C186.93 43.2519 186.701 43.749 186.242 44.0994C185.782 44.4487 185.108 44.6229 184.217 44.6229H180.903V37.1401H184.012C184.81 37.1401 185.435 37.3048 185.883 37.6319C186.333 37.9591 186.557 38.434 186.557 39.0546C186.557 39.4747 186.45 39.8293 186.236 40.1185C186.023 40.4066 185.723 40.6229 185.338 40.7644C185.857 40.871 186.254 41.0799 186.524 41.3902L186.525 41.3881Z" fill="#07273E"/>
<path d="M175.253 31.6081C175.253 30.6667 174.608 30.1971 173.318 30.1971H170.785V33.0519H173.318C174.609 33.0519 175.253 32.5706 175.253 31.6092V31.6081ZM170.785 29.5881H173.071C173.649 29.5881 174.093 29.4688 174.403 29.2356C174.714 29.0002 174.868 28.6583 174.868 28.2097C174.868 27.7601 174.714 27.4182 174.403 27.1828C174.093 26.9475 173.649 26.8303 173.071 26.8303H170.785V29.5891V29.5881ZM175.628 30.4472C175.898 30.7575 176.033 31.1627 176.033 31.6609C176.033 32.311 175.804 32.8081 175.344 33.1585C174.883 33.5078 174.21 33.682 173.317 33.682H170.004V26.1992H173.115C173.913 26.1992 174.537 26.3639 174.986 26.691C175.435 27.0182 175.659 27.4931 175.659 28.1137C175.659 28.5338 175.553 28.8884 175.338 29.1775C175.123 29.4657 174.824 29.682 174.44 29.8234C174.959 29.93 175.355 30.139 175.626 30.4493L175.628 30.4472Z" fill="#07273E"/>
<path d="M175.546 53.0517L173.75 49.0317L171.952 53.0517H175.545H175.546ZM175.834 53.6923H171.665L170.767 55.6912H169.945L173.364 48.2085H174.145L177.565 55.6912H176.731L175.833 53.6923H175.834Z" fill="#07273E"/>
<path d="M164.513 48.2085L166.641 51.1699L168.756 48.2085H169.688L167.133 51.8011L169.891 55.6912H168.959L166.641 52.4744L164.321 55.6912H163.413L166.159 51.8317L163.605 48.2085H164.513Z" fill="#07273E"/>
<path d="M161.139 48.2085H161.918V55.6912H161.139V48.2085ZM158.514 54.6021C158.874 54.296 159.054 53.8433 159.054 53.2448C159.054 52.0976 158.348 51.5235 156.938 51.5235H154.768V55.0622H156.938C157.629 55.0622 158.154 54.9081 158.514 54.6021ZM159.145 51.4802C159.61 51.8802 159.845 52.4649 159.845 53.2343C159.845 54.0396 159.598 54.6506 159.102 55.0675C158.606 55.4844 157.892 55.6934 156.958 55.6934H153.987V48.2106H154.767V50.8839H157.119C158.002 50.8839 158.677 51.0834 159.145 51.4813V51.4802Z" fill="#07273E"/>
<path d="M144.489 48.8934H141.859V55.6912H141.08V48.8934H138.449V48.2085H144.489V48.8934Z" fill="#07273E"/>
<path d="M146.558 53.5266C146.42 54.2633 146.188 54.7572 145.859 55.0073H150.466V48.8945H146.886L146.821 50.7108C146.785 51.8528 146.698 52.79 146.558 53.5277V53.5266ZM152.369 55.0073V57.3693H151.631V55.6912H145.1L145.09 57.3693H144.351L144.361 55.0073H144.737C145.228 54.9799 145.57 54.5894 145.762 53.8369C145.954 53.0855 146.072 52.0185 146.114 50.6359L146.2 48.2085H151.244V55.0073H152.368H152.369Z" fill="#07273E"/>
<path d="M119 48.2085H119.782V54.4079L124.569 48.2085H125.286V55.6912H124.505V49.5024L119.717 55.6912H119V48.2085Z" fill="#07273E"/>
<path d="M188.915 37.1382H189.697V43.3376L194.483 37.1382H195.2V44.6209H194.419V38.4321L189.63 44.6209H188.915V37.1382Z" fill="#07273E"/>
<path d="M179.517 37.8231H176.888V44.6209H176.108V37.8231H173.478V37.1382H179.517V37.8231Z" fill="#07273E"/>
<path d="M165.35 43.937V44.6209H160.058V37.1382H165.188V37.8231H160.85V40.4848H164.719V41.1582H160.85V43.937H165.35Z" fill="#07273E"/>
<path d="M157.538 37.1382V44.6209H148.365V37.1382H149.145V43.937H152.567V37.1382H153.347V43.937H156.757V37.1382H157.538Z" fill="#07273E"/>
<path d="M146.613 43.937V44.6209H141.321V37.1382H146.452V37.8231H142.113V40.4848H145.982V41.1582H142.113V43.937H146.613Z" fill="#07273E"/>
<path d="M139.925 37.8231H137.295V44.6209H136.515V37.8231H133.886V37.1382H139.925V37.8231Z" fill="#07273E"/>
<path d="M125.296 37.1382V44.6209H124.517V37.8231H119.781V44.6209H119V37.1382H125.296Z" fill="#07273E"/>
<path d="M168.618 26.8822H165.99V33.68H165.208V26.8822H162.579V26.1973H168.618V26.8822Z" fill="#07273E"/>
<path d="M154.881 26.8822H152.251V33.68H151.471V26.8822H148.841V26.1973H154.881V26.8822Z" fill="#07273E"/>
<path d="M147.465 26.1973V33.68H146.684V30.2278H142.003V33.68H141.21V26.1973H142.003V29.5323H146.684V26.1973H147.465Z" fill="#07273E"/>
<path d="M139.458 32.9961V33.68H134.166V26.1973H139.296V26.8822H134.958V29.5439H138.828V30.2173H134.958V32.9961H139.458Z" fill="#07273E"/>
<path d="M132.804 26.8822H128.817L128.827 33.68H128.047V26.1973H132.804V26.8822Z" fill="#07273E"/>
<path d="M124.601 31.0405L122.805 27.0205L121.007 31.0405H124.6H124.601ZM124.889 31.6811H120.72L119.822 33.68H119L122.419 26.1973H123.199L126.62 33.68H125.786L124.888 31.6811H124.889Z" fill="#07273E"/>
<path d="M133.694 37.1379L130.295 43.4343C130.052 43.8839 129.769 44.2153 129.445 44.4338C129.121 44.6512 128.767 44.7589 128.382 44.7589C128.096 44.7589 127.79 44.6903 127.463 44.5562L127.688 43.9135C127.944 44.0148 128.18 44.0634 128.393 44.0634C128.886 44.0634 129.288 43.7974 129.6 43.2613L129.815 42.8982L126.779 37.1357H127.624L130.233 42.2037L132.905 37.1357H133.696L133.694 37.1379Z" fill="#07273E"/>
<path d="M168.328 44.1924C167.733 43.8652 167.266 43.4103 166.928 42.8299C166.589 42.2483 166.421 41.5982 166.421 40.8795C166.421 40.1597 166.589 39.5085 166.928 38.9281C167.267 38.3476 167.735 37.8927 168.334 37.5655C168.932 37.2384 169.603 37.0737 170.344 37.0737C170.899 37.0737 171.412 37.1656 171.883 37.3524C172.354 37.5371 172.754 37.8072 173.08 38.164L172.579 38.6674C171.994 38.0753 171.255 37.7808 170.366 37.7808C169.774 37.7808 169.236 37.917 168.752 38.1861C168.267 38.4574 167.887 38.8289 167.613 39.2974C167.34 39.7682 167.202 40.2959 167.202 40.8805C167.202 41.4642 167.34 41.9908 167.613 42.4615C167.888 42.9322 168.267 43.3027 168.752 43.575C169.235 43.8451 169.774 43.9802 170.366 43.9802C171.265 43.9802 172.001 43.6816 172.579 43.0821L173.08 43.5834C172.754 43.9401 172.353 44.2124 171.879 44.4024C171.405 44.5913 170.89 44.6842 170.334 44.6842C169.592 44.6842 168.925 44.5206 168.33 44.1934L168.328 44.1924Z" fill="#07273E"/>
<path d="M157.428 33.2519C156.833 32.9248 156.365 32.4699 156.027 31.8894C155.687 31.3079 155.52 30.6578 155.52 29.9391C155.52 29.2193 155.687 28.5681 156.027 27.9876C156.365 27.4072 156.833 26.9523 157.433 26.6251C158.032 26.2979 158.702 26.1333 159.442 26.1333C159.998 26.1333 160.512 26.2251 160.982 26.4119C161.452 26.5966 161.851 26.8668 162.179 27.2235L161.677 27.7269C161.092 27.1349 160.355 26.8404 159.465 26.8404C158.873 26.8404 158.335 26.9766 157.85 27.2457C157.364 27.5169 156.985 27.8884 156.711 28.357C156.437 28.8277 156.301 29.3554 156.301 29.9401C156.301 30.5237 156.437 31.0504 156.711 31.5211C156.987 31.9918 157.365 32.3622 157.85 32.6345C158.334 32.9047 158.873 33.0398 159.465 33.0398C160.363 33.0398 161.099 32.7411 161.677 32.1417L162.179 32.643C161.852 32.9997 161.451 33.272 160.976 33.462C160.502 33.6509 159.987 33.7438 159.431 33.7438C158.689 33.7438 158.022 33.5802 157.427 33.253L157.428 33.2519Z" fill="#07273E"/>
<path d="M135.492 54.649C135.971 54.3809 136.344 54.0116 136.616 53.5377C136.887 53.0638 137.023 52.534 137.023 51.9514C137.023 51.3667 136.887 50.8369 136.616 50.363C136.344 49.8892 135.971 49.5177 135.492 49.2517C135.015 48.9847 134.481 48.8507 133.891 48.8507C133.298 48.8507 132.762 48.9836 132.281 49.2517C131.8 49.5177 131.423 49.8892 131.148 50.363C130.872 50.8369 130.736 51.3667 130.736 51.9514C130.736 52.5351 130.873 53.0638 131.148 53.5377C131.423 54.0116 131.799 54.382 132.281 54.649C132.762 54.916 133.298 55.0501 133.891 55.0501C134.481 55.0501 135.015 54.9171 135.492 54.649ZM131.875 55.2569C131.272 54.9266 130.801 54.4717 130.463 53.8944C130.124 53.3171 129.955 52.6691 129.955 51.9504C129.955 51.2306 130.124 50.5805 130.463 50.0032C130.801 49.4269 131.272 48.972 131.875 48.6406C132.476 48.3093 133.147 48.1436 133.89 48.1436C134.63 48.1436 135.297 48.3082 135.892 48.6354C136.488 48.9625 136.957 49.4174 137.299 49.9979C137.64 50.5784 137.811 51.2295 137.811 51.9493C137.811 52.668 137.642 53.3192 137.299 53.8997C136.957 54.4801 136.488 54.935 135.892 55.2622C135.297 55.5894 134.63 55.753 133.89 55.753C133.147 55.753 132.475 55.5883 131.875 55.2559V55.2569Z" fill="#07273E"/>
<path d="M182.897 32.6378C183.375 32.3697 183.749 32.0003 184.02 31.5264C184.29 31.0526 184.425 30.5228 184.425 29.9402C184.425 29.3555 184.289 28.8257 184.02 28.3518C183.749 27.8779 183.374 27.5064 182.897 27.2405C182.42 26.9735 181.885 26.8394 181.294 26.8394C180.703 26.8394 180.166 26.9724 179.684 27.2405C179.204 27.5064 178.826 27.8779 178.551 28.3518C178.277 28.8257 178.14 29.3555 178.14 29.9402C178.14 30.5238 178.276 31.0526 178.551 31.5264C178.826 32.0003 179.204 32.3708 179.684 32.6378C180.166 32.9048 180.703 33.0388 181.294 33.0388C181.885 33.0388 182.42 32.9058 182.897 32.6378ZM179.279 33.2457C178.676 32.9153 178.206 32.4605 177.869 31.8832C177.529 31.3059 177.361 30.6579 177.361 29.9391C177.361 29.2194 177.529 28.5692 177.869 27.9919C178.206 27.4157 178.676 26.9608 179.279 26.6294C179.882 26.298 180.553 26.1323 181.294 26.1323C182.035 26.1323 182.703 26.297 183.297 26.6241C183.892 26.9513 184.362 27.4062 184.703 27.9867C185.045 28.5671 185.217 29.2183 185.217 29.9381C185.217 30.6568 185.045 31.308 184.703 31.8884C184.362 32.4689 183.893 32.9238 183.297 33.251C182.703 33.5781 182.035 33.7417 181.294 33.7417C180.552 33.7417 179.882 33.5771 179.279 33.2446V33.2457Z" fill="#07273E"/>
<path d="M199.567 36.2302C199.258 35.9875 199.1 35.6487 199.091 35.2139H199.679C199.687 35.4988 199.793 35.7236 200.001 35.8872C200.206 36.0519 200.484 36.1331 200.834 36.1331C201.176 36.1331 201.452 36.0519 201.662 35.8872C201.872 35.7236 201.981 35.4988 201.988 35.2139H202.575C202.568 35.6497 202.407 35.9875 202.095 36.2302C201.78 36.473 201.36 36.5922 200.834 36.5922C200.3 36.5922 199.878 36.4719 199.566 36.2302H199.567ZM197.713 37.1379H198.494V43.3372L203.282 37.1379H203.999V44.6206H203.217V38.4318L198.429 44.6206H197.712V37.1379H197.713Z" fill="#07273E"/>
<rect x="104" y="14" width="1" height="42" fill="url(#paint0_radial_535)"/>
<g clip-path="url(#clip0_535:0)">
<path fill-rule="evenodd" clip-rule="evenodd" d="M104.393 0.0143937C104.334 0.0368952 104.189 0.16482 104.072 0.298631C103.601 0.836894 103.443 1.82034 103.437 4.24878L103.434 5.58788L103.189 5.78242C103.054 5.88941 101.493 7.0887 99.7216 8.44754L96.5 10.9181L96.5023 11.4425C96.5043 11.9308 96.5557 12.3788 96.6165 12.44C96.6438 12.4674 98.4473 11.8356 100.047 11.2381C102.61 10.2813 103.119 10.1355 103.355 10.2913C103.559 10.4254 103.594 10.6728 103.594 11.9709L103.594 13.1729L102.703 13.7158C102.213 14.0145 101.691 14.3759 101.543 14.5192C101.286 14.7675 101.272 14.7953 101.239 15.1182C101.22 15.3044 101.212 15.579 101.221 15.7284L101.238 16L102.791 15.3768C103.644 15.034 104.408 14.7536 104.487 14.7536C104.567 14.7536 105.33 15.0319 106.184 15.372L107.737 15.9905L107.737 15.4372C107.737 14.6183 107.751 14.6353 106.248 13.6985L105.407 13.174V11.9307C105.407 10.5723 105.44 10.3802 105.69 10.2653C105.891 10.1732 106.405 10.3043 107.664 10.7696C111.183 12.0695 112.312 12.4643 112.364 12.4123C112.429 12.3468 112.495 11.7925 112.498 11.2898L112.5 10.9252L110.527 9.41468C109.442 8.5839 108.327 7.72838 108.048 7.51352C107.769 7.29866 107.109 6.79472 106.581 6.39366C106.053 5.99259 105.609 5.63507 105.593 5.59918C105.578 5.56329 105.562 4.93044 105.557 4.19284C105.546 2.23323 105.441 1.29713 105.168 0.690166C104.96 0.228574 104.617 -0.0705075 104.393 0.0143937Z" fill="#FF831E"/>
</g>
<path d="M3.26052 49.7269C3.24652 49.6727 3.23165 49.6198 3.2146 49.5686C3.19755 49.5174 3.18224 49.465 3.16825 49.4103C3.03225 49.8393 2.87176 50.2617 2.68809 50.6776C2.50442 51.093 2.32338 51.5085 2.14627 51.9243H4.18016C4.02317 51.5561 3.87011 51.1901 3.72012 50.8258C3.57013 50.4611 3.41707 50.0947 3.26052 49.7269ZM6.33693 55.4809H5.69278C5.48113 54.9903 5.27385 54.4983 5.06919 54.0037C4.86497 53.51 4.65682 53.0176 4.4456 52.5269H1.87996C1.67617 53.0172 1.46977 53.51 1.26205 54.0037C1.0539 54.4983 0.844866 54.9898 0.633212 55.4809H0C0.531321 54.2276 1.05914 52.9804 1.58434 51.7402C2.1091 50.5005 2.63693 49.2533 3.16825 48C3.7 49.2533 4.22783 50.5009 4.75259 51.7402C5.27735 52.9809 5.80517 54.2276 6.33693 55.4809Z" fill="#07273E"/>
<path d="M7.96191 48.001C8.58857 48.8117 9.21216 49.6207 9.83225 50.4284C10.4523 51.2357 11.0755 52.0451 11.7026 52.8555C12.3292 52.0447 12.9533 51.2357 13.5734 50.4284C14.193 49.6207 14.8166 48.8117 15.4437 48.001V55.4823H14.81V50.1472C14.81 50.0795 14.8118 50.0161 14.8149 49.9579C14.8188 49.9006 14.8236 49.8407 14.8306 49.779C14.3404 50.4813 13.8274 51.1692 13.2926 51.8435C12.7574 52.5183 12.2278 53.1996 11.7035 53.8879C11.2399 53.2814 10.7803 52.6801 10.3238 52.0841C9.86767 51.488 9.40719 50.8867 8.94409 50.2802L8.72981 50.0038C8.70226 49.9697 8.67646 49.9321 8.65329 49.8919C8.62924 49.8508 8.60343 49.8136 8.57676 49.779C8.58332 49.8407 8.58857 49.9006 8.59163 49.9579C8.59513 50.0161 8.59687 50.0795 8.59687 50.1472V55.4823H7.96323V48.001H7.96191Z" fill="#07273E"/>
<path d="M17.3027 55.4819V48.3276H21.6255V48.9407H17.9359V51.5777H21.2266V52.1807H17.9359V54.8784H21.7685V55.4819H17.3027Z" fill="#07273E"/>
<path d="M23.9662 51.5877H24.9375C25.2641 51.5877 25.5366 51.5453 25.7548 51.46C25.973 51.3752 26.1449 51.2659 26.2712 51.1329C26.3972 51.0004 26.4859 50.8535 26.5371 50.6934C26.5883 50.5334 26.6136 50.3786 26.6136 50.2281C26.6136 50.058 26.5708 49.8949 26.4859 49.7379C26.4007 49.5814 26.2844 49.4432 26.1383 49.3238C25.9918 49.2049 25.8164 49.1095 25.6118 49.0378C25.4076 48.9661 25.1859 48.9302 24.9475 48.9302H23.9662V51.5877ZM23.333 55.4819V48.3276H24.9379C25.1622 48.3276 25.4076 48.3631 25.6734 48.4348C25.9393 48.5065 26.1899 48.6189 26.4247 48.7724C26.66 48.9254 26.8555 49.1213 27.0125 49.3601C27.169 49.5989 27.2473 49.8879 27.2473 50.2281C27.2473 50.7328 27.1179 51.1517 26.8585 51.4854C26.5996 51.8195 26.2253 52.0412 25.7342 52.1496C25.9935 52.7015 26.2537 53.2547 26.5161 53.8105C26.7781 54.3655 27.0422 54.923 27.3085 55.4814H26.6136C26.3543 54.9291 26.0959 54.3812 25.837 53.8359C25.5781 53.291 25.3192 52.7422 25.0603 52.1899C25.0192 52.1969 24.9768 52.2004 24.9322 52.2004C24.8881 52.2004 24.8421 52.2004 24.7945 52.2004H23.9662V55.481H23.333V55.4819Z" fill="#07273E"/>
<path d="M28.9214 55.4823H29.5655V48.3276H28.9214V55.4823Z" fill="#07273E"/>
<path d="M36.3734 54.5405L36.7211 55.0513C36.4486 55.2083 36.157 55.3325 35.8474 55.4247C35.5373 55.5166 35.2085 55.5625 34.8608 55.5625C34.3566 55.5625 33.8834 55.4676 33.44 55.2765C32.997 55.0858 32.6109 54.8252 32.2803 54.4946C31.9497 54.164 31.6891 53.7774 31.4984 53.3344C31.3073 52.8919 31.2124 52.4183 31.2124 51.9136C31.2124 51.4094 31.3073 50.9345 31.4984 50.488C31.6891 50.042 31.9497 49.6537 32.2803 49.3231C32.6105 48.9929 32.997 48.7301 33.44 48.5359C33.883 48.3422 34.3566 48.2451 34.8608 48.2451C35.2085 48.2451 35.5369 48.2893 35.8474 48.3781C36.157 48.4668 36.4517 48.5928 36.7311 48.7559C36.6765 48.8447 36.6188 48.9317 36.5575 49.017C36.4963 49.1018 36.4347 49.1893 36.3739 49.2771C35.9178 48.9977 35.4136 48.8582 34.8612 48.8582C34.4458 48.8582 34.0557 48.9387 33.691 49.0987C33.3268 49.2588 33.008 49.4783 32.7355 49.7577C32.4631 50.0372 32.2466 50.3625 32.0866 50.7342C31.9261 51.1055 31.8461 51.4991 31.8461 51.9145C31.8461 52.3374 31.9243 52.7323 32.0813 53.1C32.2379 53.4682 32.4522 53.7901 32.7255 54.066C32.9975 54.342 33.3163 54.5602 33.681 54.7198C34.0452 54.8803 34.4353 54.9603 34.8512 54.9603C35.1306 54.9603 35.3961 54.9245 35.6484 54.8527C35.9003 54.781 36.1425 54.6778 36.3739 54.5414L36.3734 54.5405Z" fill="#07273E"/>
<path d="M41.3093 49.7279C41.2958 49.6737 41.2805 49.6207 41.2634 49.5696C41.2464 49.5184 41.2311 49.4659 41.2175 49.4113C41.0815 49.8403 40.921 50.2627 40.7374 50.6786C40.5533 51.094 40.3726 51.5094 40.1955 51.9253H42.2294C42.0724 51.5571 41.9194 51.1911 41.7694 50.8268C41.6194 50.4621 41.4663 50.0956 41.3098 49.7279H41.3093ZM44.3858 55.4819H43.7416C43.5304 54.9912 43.3227 54.4993 43.1185 54.0047C42.9142 53.511 42.7061 53.0186 42.4949 52.5279H39.9292C39.725 53.0181 39.519 53.511 39.3113 54.0047C39.1032 54.4993 38.8933 54.9908 38.6825 55.4819H38.0488C38.5801 54.2286 39.108 52.9814 39.6332 51.7412C40.1579 50.5015 40.6858 49.2543 41.2171 48.001C41.7484 49.2543 42.2767 50.5019 42.8014 51.7412C43.3262 52.9818 43.854 54.2286 44.3858 55.4819Z" fill="#07273E"/>
<path d="M52.2554 48.3275V55.8089C51.3428 54.7935 50.434 53.7872 49.5315 52.7889C48.6289 51.7905 47.7206 50.7839 46.8079 49.7684C46.7738 49.7212 46.7415 49.6762 46.7109 49.6359C46.6803 49.5948 46.6475 49.5507 46.6138 49.503C46.6203 49.5577 46.6256 49.6119 46.6291 49.6661C46.6321 49.7208 46.6374 49.775 46.644 49.8292V55.4813H46.0107V48C46.9234 49.0285 47.8317 50.0509 48.7343 51.0659C49.6368 52.0813 50.5456 53.1037 51.4578 54.1323C51.4919 54.1795 51.5247 54.2241 51.5553 54.2648C51.5863 54.3059 51.6183 54.35 51.6524 54.3973C51.6454 54.3431 51.6401 54.2884 51.6371 54.2342C51.6336 54.1795 51.6283 54.1253 51.6213 54.0706V48.3267H52.255L52.2554 48.3275Z" fill="#07273E"/>
<path d="M57.6707 52.1908V54.8784H58.9175C59.1488 54.8784 59.367 54.8517 59.5717 54.7971C59.7759 54.7424 59.9547 54.6611 60.1078 54.5522C60.2613 54.4429 60.3824 54.3051 60.4712 54.1381C60.5591 53.971 60.6037 53.7782 60.6037 53.5604C60.6037 53.3221 60.5525 53.1156 60.4506 52.9425C60.3483 52.7684 60.2101 52.6254 60.0361 52.513C59.8625 52.4011 59.6652 52.3193 59.4435 52.2682C59.2222 52.2166 58.9957 52.1912 58.7635 52.1912H57.6703L57.6707 52.1908ZM57.6707 48.9412V51.5777H58.8969C59.3394 51.5777 59.6902 51.4495 59.9495 51.1946C60.2088 50.9388 60.3382 50.6068 60.3382 50.1975C60.3382 49.748 60.2018 49.4257 59.9298 49.232C59.6569 49.0378 59.3032 48.9407 58.8667 48.9407H57.6711L57.6707 48.9412ZM57.0371 55.4819V48.3276H58.7845C59.1116 48.3276 59.4094 48.3617 59.6792 48.43C59.9486 48.4982 60.1795 48.6036 60.3737 48.747C60.5678 48.89 60.7178 49.0754 60.8232 49.3037C60.9286 49.5324 60.9819 49.8031 60.9819 50.1162C60.9819 50.5386 60.8796 50.9099 60.6754 51.2304C60.4712 51.5505 60.1576 51.7688 59.7352 51.8846C59.9324 51.9257 60.1222 51.994 60.3019 52.0889C60.483 52.1842 60.6426 52.3071 60.7825 52.4571C60.9225 52.6071 61.0327 52.7807 61.1149 52.9783C61.1967 53.176 61.2373 53.3977 61.2373 53.6426C61.2373 53.9491 61.1739 54.2168 61.0475 54.4446C60.922 54.6733 60.7528 54.8635 60.542 55.017C60.3308 55.1701 60.0885 55.2864 59.8165 55.3647C59.5441 55.4434 59.2612 55.4823 58.9682 55.4823H57.0366L57.0371 55.4819Z" fill="#07273E"/>
<path d="M65.1853 55.5637C64.8246 55.5637 64.4922 55.5125 64.1892 55.4106C63.8857 55.3083 63.6229 55.157 63.402 54.9554C63.1803 54.7546 63.0063 54.5045 62.8808 54.2045C62.7548 53.9045 62.6914 53.5604 62.6914 53.1721V48.3276H63.3251V53.141C63.3251 53.4344 63.3705 53.6933 63.4628 53.9181C63.5551 54.1429 63.6828 54.3322 63.8459 54.4853C64.0094 54.6383 64.2053 54.7555 64.434 54.8377C64.6619 54.9195 64.912 54.9606 65.1849 54.9606C65.4508 54.9606 65.6978 54.9195 65.9261 54.8377C66.1544 54.7555 66.3525 54.6383 66.5191 54.4853C66.6857 54.3322 66.8156 54.1429 66.9079 53.9181C66.9997 53.6933 67.0456 53.4344 67.0456 53.141V48.3276H67.6797V53.1721C67.6797 53.5604 67.6163 53.905 67.4903 54.2045C67.3644 54.5045 67.189 54.7546 66.9643 54.9554C66.7395 55.157 66.4758 55.3083 66.1719 55.4106C65.8684 55.5129 65.5395 55.5637 65.1858 55.5637H65.1853Z" fill="#07273E"/>
<path d="M74.1458 48.3276V48.9407H71.6414V55.4819H71.0082V48.9407H68.4941V48.3276H74.1458Z" fill="#07273E"/>
<path d="M74.9321 55.4819V48.3276H75.5653V54.8784H79.3978V55.4819H74.9321Z" fill="#07273E"/>
<path d="M80.9951 55.4819V48.3276H85.3178V48.9407H81.6288V51.5777H84.9195V52.1807H81.6288V54.8784H85.4608V55.4819H80.9951Z" fill="#07273E"/>
<path d="M87.659 51.5877H88.6298C88.9569 51.5877 89.2293 51.5453 89.4476 51.46C89.6653 51.3752 89.8376 51.2659 89.9636 51.1329C90.0899 51.0004 90.1783 50.8535 90.2294 50.6934C90.2806 50.5334 90.306 50.3786 90.306 50.2281C90.306 50.058 90.2636 49.8949 90.1783 49.7379C90.0934 49.5814 89.9776 49.4432 89.8311 49.3238C89.6846 49.2049 89.5092 49.1095 89.305 49.0378C89.1008 48.9661 88.8786 48.9302 88.6407 48.9302H87.6599V51.5877H87.659ZM87.0253 55.4819V48.3276H88.6302C88.855 48.3276 89.1003 48.3631 89.3658 48.4348C89.6317 48.5065 89.8822 48.6189 90.1166 48.7724C90.3519 48.9254 90.5478 49.1213 90.7048 49.3601C90.8613 49.5989 90.9396 49.8879 90.9396 50.2281C90.9396 50.7328 90.8102 51.1517 90.5513 51.4854C90.292 51.8195 89.9181 52.0412 89.427 52.1496C89.6859 52.7015 89.9465 53.2547 90.2085 53.8105C90.4708 54.3655 90.735 54.923 91.0008 55.4814H90.3055C90.0466 54.9291 89.7878 54.3812 89.5289 53.8359C89.27 53.291 89.0111 52.7422 88.7518 52.1899C88.7111 52.1969 88.6683 52.2004 88.6245 52.2004C88.5799 52.2004 88.534 52.2004 88.4864 52.2004H87.6586V55.481H87.0249L87.0253 55.4819Z" fill="#07273E"/>
<path d="M36.1655 0.00011961L21 40.087L21.9039 40.1052L34.3621 7.26654L38.5156 18.2251H31.8844C31.7647 18.5356 31.6731 18.7699 31.5809 19.0147H38.8373L46.8105 40.1052H52.7351L37.4769 0H36.1655V0.00011961Z" fill="#07273E"/>
<path d="M55.4833 18.7655H50.3604L50.3581 0.913518C51.177 0.905761 51.4442 0.913518 52.1143 0.913518H54.1488C55.1137 0.913518 56.086 0.980502 57.0703 1.17123C58.0534 1.36283 58.9443 1.76399 59.743 2.37473C60.5407 2.98645 61.1909 3.89356 61.6919 5.09681C62.1932 6.30055 62.4439 7.89598 62.4439 9.88198C62.4439 11.6402 62.2766 13.0915 61.9426 14.2377C61.6084 15.3838 61.1349 16.2922 60.5224 16.9601C59.9098 17.6288 59.1766 18.0975 58.3227 18.3642C57.4686 18.6319 56.5218 18.7655 55.4831 18.7655H55.4833ZM66.6202 37.9641C67.8816 36.9322 68.8281 35.7002 69.4601 34.2674C70.0909 32.8346 70.4067 31.2586 70.4067 29.5397C70.4067 27.8972 70.0535 26.4449 69.3487 25.184C68.6429 23.9231 67.7243 22.8629 66.5924 22.0034C65.4594 21.1438 64.1982 20.4757 62.8057 19.9973C61.4136 19.5203 60.0494 19.2238 58.713 19.1093V18.9946C60.0119 18.8426 61.2551 18.5172 62.4441 18.0202C63.6317 17.5241 64.6799 16.874 65.5897 16.0718C66.4992 15.2691 67.2234 14.3336 67.7618 13.2638C68.2996 12.1942 68.5691 11.0285 68.5691 9.76759C68.5691 8.85062 68.3828 7.82912 68.0125 6.70159C67.6409 5.57518 66.9543 4.52388 65.9522 3.54966C64.9497 2.57556 63.5758 1.75414 61.8313 1.08553C60.086 0.417418 57.8237 0 55.1143 0C54.5941 0 44.7895 0 44.7895 0L44.7793 7.49358L50.3639 22.6175L50.3605 19.5674H56.4856C58.9723 19.5674 60.8469 20.447 62.1098 22.2038C63.3714 23.9617 64.0033 26.3685 64.0033 29.4247C64.0033 31.5651 63.8169 33.3415 63.4461 34.7548C62.6268 37.7059 60.4176 40.7171 57.2862 41.2848C57.2862 41.2848 59.2765 41.1684 61.8312 40.3996C63.764 39.818 65.3577 38.9956 66.6203 37.9642L66.6202 37.9641Z" fill="#07273E"/>
<defs>
<radialGradient id="paint0_radial_535" cx="0" cy="0" r="1" gradientUnits="userSpaceOnUse" gradientTransform="translate(104.5 35) rotate(90) scale(21 0.5)">
<stop stop-color="#FF831E"/>
<stop offset="1" stop-color="#FF831E" stop-opacity="0"/>
</radialGradient>
<clipPath id="clip0_535:0">
<rect width="16" height="16" fill="red" transform="translate(96.5)"/>
</clipPath>
</defs>
</svg>
