<svg width="113" height="102" viewBox="0 0 113 102" fill="none" xmlns="http://www.w3.org/2000/svg">
<mask id="path-1-outside-1_728_80" maskUnits="userSpaceOnUse" x="0" y="0" width="113" height="102" fill="black">
<rect fill="white" width="113" height="102"/>
<path fill-rule="evenodd" clip-rule="evenodd" d="M84.9608 1.01258C84.6004 1.09422 84.1532 1.29386 83.5607 1.63753C82.598 2.19601 70.8913 10.0529 64.164 14.6556C60.7911 16.9633 60.4584 17.246 59.9377 18.2474C59.2629 19.5448 59.2147 20.7138 59.7843 21.9704C60.4552 23.4506 61.7269 24.4535 63.3593 24.7896C63.8882 24.8985 64.0195 24.9018 64.6203 24.8213C64.9891 24.7718 65.5309 24.7152 65.8242 24.6953C66.3384 24.6606 66.3646 24.6662 66.5584 24.8519L66.7594 25.0445V35.6694V46.2943L66.5759 46.4859L66.3923 46.6775H51.1874H35.9824L35.7989 46.4859C35.6484 46.3287 35.6154 46.2312 35.6154 45.9427C35.6154 45.5425 35.4829 45.6809 37.0753 44.4171C41.3355 41.0358 44.2769 36.2697 45.3374 31.0293C45.6922 29.2762 45.754 28.6043 45.7526 26.5221C45.7515 24.8474 45.7297 24.4363 45.5978 23.5842C45.05 20.0484 43.8618 16.9895 41.8929 14.0461C39.2728 10.1291 35.1576 7.04274 30.371 5.40448C28.1959 4.66009 26.6495 4.40279 23.9705 4.33945C20.6736 4.26149 18.5452 4.60256 15.8705 5.63746C9.66205 8.03965 5.19692 12.3405 2.76373 18.2623C1.60157 21.0905 0.976296 24.3945 1.07772 27.1712C1.23282 31.4154 2.5813 35.5649 4.98547 39.1961C6.30643 41.1912 7.54317 42.5283 9.73035 44.3263L11.0622 45.421L11.0822 45.7945C11.1005 46.1354 11.0837 46.1858 10.8905 46.3709L10.6789 46.5738L6.80678 46.6872C2.90449 46.8016 2.30927 46.8498 1.73058 47.0982C1.3923 47.2434 1.27326 47.4269 1.11733 48.044C1.00942 48.4712 0.955055 54.0822 1.0461 55.4003C1.1299 56.6138 1.23453 56.9524 1.55888 57.0595C2.13935 57.2511 3.72414 57.2724 21.7508 57.3308C42.4609 57.3979 50.593 57.4522 52.5066 57.536C53.7892 57.5921 53.792 57.5926 53.992 57.7844C54.1655 57.9506 54.1925 58.0263 54.1925 58.3469C54.1925 58.6773 54.114 58.8809 53.4657 60.2301C52.4935 62.2537 46.078 75.2115 42.9914 81.3859C39.4601 88.4498 35.8412 95.8374 34.4801 98.7609L33.9774 99.8409L34.1102 100.101C34.4163 100.702 33.8515 100.687 56.7195 100.687C79.5442 100.687 79.0006 100.701 79.3407 100.106L79.4773 99.8674L78.9666 98.7742C77.5366 95.7128 74.0062 88.5042 70.5975 81.6855C67.4056 75.3005 61.0327 62.4288 60.0405 60.363C59.3313 58.8863 59.2466 58.6708 59.2466 58.3432C59.2466 58.0268 59.274 57.9502 59.447 57.7844C59.6471 57.5926 59.6499 57.5921 60.9325 57.536C62.8455 57.4522 70.9715 57.398 91.7224 57.3307C102.66 57.2952 110.631 57.2431 111.003 57.2046C111.92 57.1101 112.074 57.0462 112.211 56.7022C112.388 56.2598 112.448 55.0856 112.447 52.0409C112.446 48.9596 112.391 47.9971 112.186 47.5356C112.033 47.1883 111.685 46.9279 111.222 46.8132C111.038 46.7678 109.842 46.7222 108.251 46.6999L105.587 46.6626L105.399 46.4865L105.211 46.3104V35.6091V24.9079L105.403 24.7243C105.565 24.5691 105.654 24.5407 105.982 24.5407C106.196 24.5407 106.666 24.6176 107.028 24.7115C107.389 24.8055 107.781 24.8819 107.899 24.8813C108.341 24.8793 109.027 24.6621 109.825 24.2715C110.531 23.9262 110.709 23.8048 111.068 23.4205C111.353 23.116 111.587 22.769 111.798 22.3387C112.533 20.8426 112.532 19.6371 111.796 18.1756C111.537 17.6597 111.345 17.4811 109.848 16.3643C107.725 14.7807 104.846 12.7989 94.8299 6.02479C89.3862 2.34318 87.5577 1.13973 87.3513 1.10263C87.009 1.04107 85.145 0.970898 84.9608 1.01258ZM86.9416 3.66599C87.9469 4.19208 90.2736 5.68167 94.6933 8.62894C103.557 14.5395 109.606 18.8226 109.921 19.4107C110.043 19.6387 110.084 20.5102 109.994 20.9537C109.918 21.3301 109.871 21.4037 109.418 21.8516C108.972 22.2928 108.886 22.3475 108.519 22.4237C108.012 22.5292 107.213 22.4685 106.819 22.2945C106.523 22.1633 101 18.4828 96.2983 15.2827C90.1662 11.1094 86.6964 8.86704 86.0826 8.68093C85.8685 8.61595 85.7944 8.62928 85.4788 8.78922C84.4359 9.31791 81.4477 11.2404 76.8334 14.3514C69.0467 19.6011 65.2674 22.1153 64.9176 22.2783C64.5958 22.4282 64.4433 22.4546 63.8908 22.4556C63.0265 22.4573 62.7175 22.3361 62.2231 21.802C61.7569 21.2983 61.6851 21.0692 61.7155 20.1841L61.7394 19.4903L62.0468 19.1731C62.8215 18.3734 66.6488 15.6572 74.1697 10.5698C76.1606 9.22308 79.2135 7.15513 80.954 5.9743C82.6944 4.79353 84.2656 3.75337 84.4457 3.66298C84.8833 3.44305 85.1995 3.37547 85.83 3.36728C86.3284 3.36085 86.39 3.37739 86.9416 3.66599ZM26.2244 6.75086C28.3801 7.02573 30.1195 7.58017 32.4054 8.72097C34.8282 9.93016 36.6367 11.2707 38.1985 13.015C42.704 18.0471 44.4722 24.7276 43.0186 31.2261C42.1517 35.1017 40.0542 38.6549 36.9734 41.4672C33.6779 44.4754 29.7833 46.2349 25.5755 46.6165C24.4559 46.7181 21.4304 46.6551 20.388 46.5086C17.464 46.0977 14.8516 45.0976 12.3598 43.435C11.1124 42.6028 10.3403 41.9474 9.04655 40.6226C6.0262 37.5298 4.28616 34.0266 3.60393 29.665C3.43032 28.5549 3.42854 24.644 3.6012 23.5988C4.19738 19.9892 5.51724 16.9343 7.63066 14.2722C8.32061 13.4031 9.69422 11.991 10.5499 11.271C13.791 8.54422 17.7096 6.94886 21.9216 6.64134C22.9933 6.56311 25.1906 6.61906 26.2244 6.75086ZM23.1475 10.4256C22.8778 10.5431 22.5955 10.8819 22.5001 11.2027C22.4585 11.3424 22.4077 12.0256 22.387 12.7208C22.3523 13.8866 22.3381 13.9971 22.2038 14.1444C22.1237 14.2322 21.6684 14.5025 21.192 14.745C20.018 15.3425 19.3502 15.7907 18.7724 16.3686C17.7153 17.4259 17.0363 18.8704 16.841 20.4769C16.6708 21.8769 17.1173 23.5494 18.0259 24.9153C18.7142 25.9503 19.6168 26.6469 21.0751 27.2687C21.5698 27.4797 22.0156 27.719 22.1477 27.8445L22.3738 28.0594L22.351 31.6122C22.3266 35.4143 22.3289 35.3894 21.9727 35.7629C21.8202 35.9229 21.7384 35.9508 21.4217 35.9508C20.9442 35.9508 20.6911 35.7961 20.2033 35.2068C19.6536 34.5425 19.2377 33.6592 19.1545 32.9787C19.0572 32.1837 18.7844 31.658 18.3452 31.4189C17.9589 31.2086 17.6874 31.1896 17.3517 31.3498C16.483 31.7642 16.7046 33.9334 17.7999 35.7369C18.5765 37.0158 19.4196 37.7145 21.2191 38.5708C21.6431 38.7725 22.071 39.0265 22.1701 39.1352C22.3477 39.3298 22.3509 39.3512 22.3854 40.5626C22.4349 42.2987 22.572 42.6863 23.1962 42.8544C23.4446 42.9213 23.5331 42.914 23.7962 42.805C24.3092 42.5923 24.526 42.0386 24.6878 40.5284C24.8055 39.4289 24.8565 39.2842 25.2602 38.9023C25.4886 38.6861 25.7571 38.5149 26.0212 38.4167C26.5851 38.2071 27.2354 37.8419 27.7127 37.4668C28.8627 36.563 29.8672 34.5144 30.0683 32.6625C30.29 30.621 29.2168 28.2436 27.4838 26.9372C26.8429 26.4541 26.3596 26.197 25.678 25.9768C25.3911 25.884 25.1112 25.7383 24.9779 25.6122L24.756 25.4021L24.7601 21.9481C24.7622 20.0484 24.7883 18.347 24.8178 18.1672C24.8534 17.9515 24.9377 17.7712 25.0656 17.6377C25.2404 17.4552 25.3022 17.4351 25.6891 17.4351H26.1184L26.5182 17.8279C27.1525 18.4514 27.3746 18.9072 27.8694 20.6012C28.1755 21.6493 28.3508 21.9606 28.7177 22.1075C28.9448 22.1983 29.0495 22.2048 29.2945 22.1431C29.6869 22.0443 29.8486 21.8601 29.9774 21.3656C30.1757 20.6041 30.0763 19.7196 29.6758 18.6825C29.0594 17.0866 28.0768 16.0393 26.2927 15.0768C25.6173 14.7125 24.9933 14.175 24.8488 13.8332C24.7978 13.7123 24.756 13.3998 24.756 13.1389C24.756 11.9287 24.3009 10.7265 23.7313 10.4319C23.4929 10.3085 23.418 10.3077 23.1475 10.4256ZM86.6643 11.6384C88.1232 12.498 90.9582 14.3624 97.1179 18.5132C99.9352 20.4116 102.386 22.1051 102.565 22.2766L102.889 22.5884V34.4413V46.2943L102.706 46.4859L102.522 46.6775H99.3718H96.2214L96.0427 46.4896L95.8639 46.3018L95.8336 38.9228C95.803 31.4922 95.782 30.841 95.5464 30.0408C95.3879 29.5024 95.384 29.4997 94.6789 29.4444C94.33 29.4171 90.1389 29.375 85.3654 29.3509L76.6862 29.307L76.4231 29.6657C76.2784 29.8629 76.1182 30.1817 76.0672 30.3741C75.9054 30.9843 75.8477 33.4828 75.8454 39.9781L75.843 46.2943L75.6595 46.4859L75.476 46.6775H72.4964H69.5168L69.3224 46.4745L69.128 46.2715L69.1985 34.2717L69.2691 22.2718L69.4656 22.0767C69.8332 21.7117 81.962 13.5231 84.3724 12.0127C85.3734 11.3854 85.441 11.3543 85.8027 11.3543C86.1251 11.3543 86.2549 11.3971 86.6643 11.6384ZM21.9749 17.7613C22.1647 17.9558 22.2437 18.1094 22.2961 18.3855C22.3866 18.8627 22.3851 22.9599 22.2941 23.7539C22.2349 24.2711 22.1953 24.3975 22.0429 24.5567C21.8824 24.7242 21.8127 24.7457 21.4283 24.7457H20.9948L20.3815 24.1543C19.3877 23.1958 19.0991 22.3633 19.1775 20.6805C19.2403 19.3309 19.5021 18.7177 20.3565 17.9181L20.7997 17.5034H21.2614C21.7055 17.5034 21.7327 17.5132 21.9749 17.7613ZM26.5653 29.137C27.4522 30.0576 27.7248 30.8579 27.7226 32.5346C27.7206 33.9943 27.6159 34.226 26.3707 35.5237C25.833 36.0841 25.8279 36.0874 25.4845 36.0874C25.2027 36.0874 25.1038 36.0536 24.9475 35.9038L24.756 35.7202L24.7609 32.778C24.7637 31.1598 24.789 29.6737 24.8172 29.4757C24.8565 29.1994 24.922 29.0603 25.0988 28.8779C25.3073 28.6627 25.3651 28.6401 25.7079 28.6401H26.0868L26.5653 29.137ZM93.3487 31.9063L93.5323 32.0979V39.1961V46.2943L93.3487 46.4859L93.1652 46.6775H85.8909H78.6166L78.425 46.4939L78.2335 46.3104V39.2042V32.0979L78.417 31.9063L78.6005 31.7147H85.8829H93.1652L93.3487 31.9063ZM109.877 49.2605L110.06 49.4521V52.0409V54.6298L109.877 54.8214L109.693 55.013H56.7195H3.74565L3.56213 54.8214L3.37862 54.6298V52.0409V49.4521L3.56213 49.2605L3.74565 49.0689H56.7195H109.693L109.877 49.2605ZM57.2835 60.2568C57.5766 60.5631 59.3721 64.0983 67.8015 80.9649C75.4648 96.2986 75.8043 96.9936 75.8302 97.4004C75.8565 97.813 75.8505 97.8311 75.6215 98.0322L75.3859 98.2392L72.3932 98.2847C68.5144 98.3436 44.7902 98.3435 40.9834 98.2846L38.0531 98.2392L37.8246 98.0384C37.6213 97.8599 37.596 97.799 37.596 97.488C37.596 97.0355 37.7418 96.736 45.6299 80.9759C53.0276 66.1956 55.9168 60.5092 56.1567 60.2568C56.3102 60.0953 56.3892 60.0689 56.7195 60.0689C57.0496 60.0689 57.1291 60.0955 57.2835 60.2568Z"/>
</mask>
<path fill-rule="evenodd" clip-rule="evenodd" d="M84.9608 1.01258C84.6004 1.09422 84.1532 1.29386 83.5607 1.63753C82.598 2.19601 70.8913 10.0529 64.164 14.6556C60.7911 16.9633 60.4584 17.246 59.9377 18.2474C59.2629 19.5448 59.2147 20.7138 59.7843 21.9704C60.4552 23.4506 61.7269 24.4535 63.3593 24.7896C63.8882 24.8985 64.0195 24.9018 64.6203 24.8213C64.9891 24.7718 65.5309 24.7152 65.8242 24.6953C66.3384 24.6606 66.3646 24.6662 66.5584 24.8519L66.7594 25.0445V35.6694V46.2943L66.5759 46.4859L66.3923 46.6775H51.1874H35.9824L35.7989 46.4859C35.6484 46.3287 35.6154 46.2312 35.6154 45.9427C35.6154 45.5425 35.4829 45.6809 37.0753 44.4171C41.3355 41.0358 44.2769 36.2697 45.3374 31.0293C45.6922 29.2762 45.754 28.6043 45.7526 26.5221C45.7515 24.8474 45.7297 24.4363 45.5978 23.5842C45.05 20.0484 43.8618 16.9895 41.8929 14.0461C39.2728 10.1291 35.1576 7.04274 30.371 5.40448C28.1959 4.66009 26.6495 4.40279 23.9705 4.33945C20.6736 4.26149 18.5452 4.60256 15.8705 5.63746C9.66205 8.03965 5.19692 12.3405 2.76373 18.2623C1.60157 21.0905 0.976296 24.3945 1.07772 27.1712C1.23282 31.4154 2.5813 35.5649 4.98547 39.1961C6.30643 41.1912 7.54317 42.5283 9.73035 44.3263L11.0622 45.421L11.0822 45.7945C11.1005 46.1354 11.0837 46.1858 10.8905 46.3709L10.6789 46.5738L6.80678 46.6872C2.90449 46.8016 2.30927 46.8498 1.73058 47.0982C1.3923 47.2434 1.27326 47.4269 1.11733 48.044C1.00942 48.4712 0.955055 54.0822 1.0461 55.4003C1.1299 56.6138 1.23453 56.9524 1.55888 57.0595C2.13935 57.2511 3.72414 57.2724 21.7508 57.3308C42.4609 57.3979 50.593 57.4522 52.5066 57.536C53.7892 57.5921 53.792 57.5926 53.992 57.7844C54.1655 57.9506 54.1925 58.0263 54.1925 58.3469C54.1925 58.6773 54.114 58.8809 53.4657 60.2301C52.4935 62.2537 46.078 75.2115 42.9914 81.3859C39.4601 88.4498 35.8412 95.8374 34.4801 98.7609L33.9774 99.8409L34.1102 100.101C34.4163 100.702 33.8515 100.687 56.7195 100.687C79.5442 100.687 79.0006 100.701 79.3407 100.106L79.4773 99.8674L78.9666 98.7742C77.5366 95.7128 74.0062 88.5042 70.5975 81.6855C67.4056 75.3005 61.0327 62.4288 60.0405 60.363C59.3313 58.8863 59.2466 58.6708 59.2466 58.3432C59.2466 58.0268 59.274 57.9502 59.447 57.7844C59.6471 57.5926 59.6499 57.5921 60.9325 57.536C62.8455 57.4522 70.9715 57.398 91.7224 57.3307C102.66 57.2952 110.631 57.2431 111.003 57.2046C111.92 57.1101 112.074 57.0462 112.211 56.7022C112.388 56.2598 112.448 55.0856 112.447 52.0409C112.446 48.9596 112.391 47.9971 112.186 47.5356C112.033 47.1883 111.685 46.9279 111.222 46.8132C111.038 46.7678 109.842 46.7222 108.251 46.6999L105.587 46.6626L105.399 46.4865L105.211 46.3104V35.6091V24.9079L105.403 24.7243C105.565 24.5691 105.654 24.5407 105.982 24.5407C106.196 24.5407 106.666 24.6176 107.028 24.7115C107.389 24.8055 107.781 24.8819 107.899 24.8813C108.341 24.8793 109.027 24.6621 109.825 24.2715C110.531 23.9262 110.709 23.8048 111.068 23.4205C111.353 23.116 111.587 22.769 111.798 22.3387C112.533 20.8426 112.532 19.6371 111.796 18.1756C111.537 17.6597 111.345 17.4811 109.848 16.3643C107.725 14.7807 104.846 12.7989 94.8299 6.02479C89.3862 2.34318 87.5577 1.13973 87.3513 1.10263C87.009 1.04107 85.145 0.970898 84.9608 1.01258ZM86.9416 3.66599C87.9469 4.19208 90.2736 5.68167 94.6933 8.62894C103.557 14.5395 109.606 18.8226 109.921 19.4107C110.043 19.6387 110.084 20.5102 109.994 20.9537C109.918 21.3301 109.871 21.4037 109.418 21.8516C108.972 22.2928 108.886 22.3475 108.519 22.4237C108.012 22.5292 107.213 22.4685 106.819 22.2945C106.523 22.1633 101 18.4828 96.2983 15.2827C90.1662 11.1094 86.6964 8.86704 86.0826 8.68093C85.8685 8.61595 85.7944 8.62928 85.4788 8.78922C84.4359 9.31791 81.4477 11.2404 76.8334 14.3514C69.0467 19.6011 65.2674 22.1153 64.9176 22.2783C64.5958 22.4282 64.4433 22.4546 63.8908 22.4556C63.0265 22.4573 62.7175 22.3361 62.2231 21.802C61.7569 21.2983 61.6851 21.0692 61.7155 20.1841L61.7394 19.4903L62.0468 19.1731C62.8215 18.3734 66.6488 15.6572 74.1697 10.5698C76.1606 9.22308 79.2135 7.15513 80.954 5.9743C82.6944 4.79353 84.2656 3.75337 84.4457 3.66298C84.8833 3.44305 85.1995 3.37547 85.83 3.36728C86.3284 3.36085 86.39 3.37739 86.9416 3.66599ZM26.2244 6.75086C28.3801 7.02573 30.1195 7.58017 32.4054 8.72097C34.8282 9.93016 36.6367 11.2707 38.1985 13.015C42.704 18.0471 44.4722 24.7276 43.0186 31.2261C42.1517 35.1017 40.0542 38.6549 36.9734 41.4672C33.6779 44.4754 29.7833 46.2349 25.5755 46.6165C24.4559 46.7181 21.4304 46.6551 20.388 46.5086C17.464 46.0977 14.8516 45.0976 12.3598 43.435C11.1124 42.6028 10.3403 41.9474 9.04655 40.6226C6.0262 37.5298 4.28616 34.0266 3.60393 29.665C3.43032 28.5549 3.42854 24.644 3.6012 23.5988C4.19738 19.9892 5.51724 16.9343 7.63066 14.2722C8.32061 13.4031 9.69422 11.991 10.5499 11.271C13.791 8.54422 17.7096 6.94886 21.9216 6.64134C22.9933 6.56311 25.1906 6.61906 26.2244 6.75086ZM23.1475 10.4256C22.8778 10.5431 22.5955 10.8819 22.5001 11.2027C22.4585 11.3424 22.4077 12.0256 22.387 12.7208C22.3523 13.8866 22.3381 13.9971 22.2038 14.1444C22.1237 14.2322 21.6684 14.5025 21.192 14.745C20.018 15.3425 19.3502 15.7907 18.7724 16.3686C17.7153 17.4259 17.0363 18.8704 16.841 20.4769C16.6708 21.8769 17.1173 23.5494 18.0259 24.9153C18.7142 25.9503 19.6168 26.6469 21.0751 27.2687C21.5698 27.4797 22.0156 27.719 22.1477 27.8445L22.3738 28.0594L22.351 31.6122C22.3266 35.4143 22.3289 35.3894 21.9727 35.7629C21.8202 35.9229 21.7384 35.9508 21.4217 35.9508C20.9442 35.9508 20.6911 35.7961 20.2033 35.2068C19.6536 34.5425 19.2377 33.6592 19.1545 32.9787C19.0572 32.1837 18.7844 31.658 18.3452 31.4189C17.9589 31.2086 17.6874 31.1896 17.3517 31.3498C16.483 31.7642 16.7046 33.9334 17.7999 35.7369C18.5765 37.0158 19.4196 37.7145 21.2191 38.5708C21.6431 38.7725 22.071 39.0265 22.1701 39.1352C22.3477 39.3298 22.3509 39.3512 22.3854 40.5626C22.4349 42.2987 22.572 42.6863 23.1962 42.8544C23.4446 42.9213 23.5331 42.914 23.7962 42.805C24.3092 42.5923 24.526 42.0386 24.6878 40.5284C24.8055 39.4289 24.8565 39.2842 25.2602 38.9023C25.4886 38.6861 25.7571 38.5149 26.0212 38.4167C26.5851 38.2071 27.2354 37.8419 27.7127 37.4668C28.8627 36.563 29.8672 34.5144 30.0683 32.6625C30.29 30.621 29.2168 28.2436 27.4838 26.9372C26.8429 26.4541 26.3596 26.197 25.678 25.9768C25.3911 25.884 25.1112 25.7383 24.9779 25.6122L24.756 25.4021L24.7601 21.9481C24.7622 20.0484 24.7883 18.347 24.8178 18.1672C24.8534 17.9515 24.9377 17.7712 25.0656 17.6377C25.2404 17.4552 25.3022 17.4351 25.6891 17.4351H26.1184L26.5182 17.8279C27.1525 18.4514 27.3746 18.9072 27.8694 20.6012C28.1755 21.6493 28.3508 21.9606 28.7177 22.1075C28.9448 22.1983 29.0495 22.2048 29.2945 22.1431C29.6869 22.0443 29.8486 21.8601 29.9774 21.3656C30.1757 20.6041 30.0763 19.7196 29.6758 18.6825C29.0594 17.0866 28.0768 16.0393 26.2927 15.0768C25.6173 14.7125 24.9933 14.175 24.8488 13.8332C24.7978 13.7123 24.756 13.3998 24.756 13.1389C24.756 11.9287 24.3009 10.7265 23.7313 10.4319C23.4929 10.3085 23.418 10.3077 23.1475 10.4256ZM86.6643 11.6384C88.1232 12.498 90.9582 14.3624 97.1179 18.5132C99.9352 20.4116 102.386 22.1051 102.565 22.2766L102.889 22.5884V34.4413V46.2943L102.706 46.4859L102.522 46.6775H99.3718H96.2214L96.0427 46.4896L95.8639 46.3018L95.8336 38.9228C95.803 31.4922 95.782 30.841 95.5464 30.0408C95.3879 29.5024 95.384 29.4997 94.6789 29.4444C94.33 29.4171 90.1389 29.375 85.3654 29.3509L76.6862 29.307L76.4231 29.6657C76.2784 29.8629 76.1182 30.1817 76.0672 30.3741C75.9054 30.9843 75.8477 33.4828 75.8454 39.9781L75.843 46.2943L75.6595 46.4859L75.476 46.6775H72.4964H69.5168L69.3224 46.4745L69.128 46.2715L69.1985 34.2717L69.2691 22.2718L69.4656 22.0767C69.8332 21.7117 81.962 13.5231 84.3724 12.0127C85.3734 11.3854 85.441 11.3543 85.8027 11.3543C86.1251 11.3543 86.2549 11.3971 86.6643 11.6384ZM21.9749 17.7613C22.1647 17.9558 22.2437 18.1094 22.2961 18.3855C22.3866 18.8627 22.3851 22.9599 22.2941 23.7539C22.2349 24.2711 22.1953 24.3975 22.0429 24.5567C21.8824 24.7242 21.8127 24.7457 21.4283 24.7457H20.9948L20.3815 24.1543C19.3877 23.1958 19.0991 22.3633 19.1775 20.6805C19.2403 19.3309 19.5021 18.7177 20.3565 17.9181L20.7997 17.5034H21.2614C21.7055 17.5034 21.7327 17.5132 21.9749 17.7613ZM26.5653 29.137C27.4522 30.0576 27.7248 30.8579 27.7226 32.5346C27.7206 33.9943 27.6159 34.226 26.3707 35.5237C25.833 36.0841 25.8279 36.0874 25.4845 36.0874C25.2027 36.0874 25.1038 36.0536 24.9475 35.9038L24.756 35.7202L24.7609 32.778C24.7637 31.1598 24.789 29.6737 24.8172 29.4757C24.8565 29.1994 24.922 29.0603 25.0988 28.8779C25.3073 28.6627 25.3651 28.6401 25.7079 28.6401H26.0868L26.5653 29.137ZM93.3487 31.9063L93.5323 32.0979V39.1961V46.2943L93.3487 46.4859L93.1652 46.6775H85.8909H78.6166L78.425 46.4939L78.2335 46.3104V39.2042V32.0979L78.417 31.9063L78.6005 31.7147H85.8829H93.1652L93.3487 31.9063ZM109.877 49.2605L110.06 49.4521V52.0409V54.6298L109.877 54.8214L109.693 55.013H56.7195H3.74565L3.56213 54.8214L3.37862 54.6298V52.0409V49.4521L3.56213 49.2605L3.74565 49.0689H56.7195H109.693L109.877 49.2605ZM57.2835 60.2568C57.5766 60.5631 59.3721 64.0983 67.8015 80.9649C75.4648 96.2986 75.8043 96.9936 75.8302 97.4004C75.8565 97.813 75.8505 97.8311 75.6215 98.0322L75.3859 98.2392L72.3932 98.2847C68.5144 98.3436 44.7902 98.3435 40.9834 98.2846L38.0531 98.2392L37.8246 98.0384C37.6213 97.8599 37.596 97.799 37.596 97.488C37.596 97.0355 37.7418 96.736 45.6299 80.9759C53.0276 66.1956 55.9168 60.5092 56.1567 60.2568C56.3102 60.0953 56.3892 60.0689 56.7195 60.0689C57.0496 60.0689 57.1291 60.0955 57.2835 60.2568Z" fill="#389AE0"/>
<path fill-rule="evenodd" clip-rule="evenodd" d="M84.9608 1.01258C84.6004 1.09422 84.1532 1.29386 83.5607 1.63753C82.598 2.19601 70.8913 10.0529 64.164 14.6556C60.7911 16.9633 60.4584 17.246 59.9377 18.2474C59.2629 19.5448 59.2147 20.7138 59.7843 21.9704C60.4552 23.4506 61.7269 24.4535 63.3593 24.7896C63.8882 24.8985 64.0195 24.9018 64.6203 24.8213C64.9891 24.7718 65.5309 24.7152 65.8242 24.6953C66.3384 24.6606 66.3646 24.6662 66.5584 24.8519L66.7594 25.0445V35.6694V46.2943L66.5759 46.4859L66.3923 46.6775H51.1874H35.9824L35.7989 46.4859C35.6484 46.3287 35.6154 46.2312 35.6154 45.9427C35.6154 45.5425 35.4829 45.6809 37.0753 44.4171C41.3355 41.0358 44.2769 36.2697 45.3374 31.0293C45.6922 29.2762 45.754 28.6043 45.7526 26.5221C45.7515 24.8474 45.7297 24.4363 45.5978 23.5842C45.05 20.0484 43.8618 16.9895 41.8929 14.0461C39.2728 10.1291 35.1576 7.04274 30.371 5.40448C28.1959 4.66009 26.6495 4.40279 23.9705 4.33945C20.6736 4.26149 18.5452 4.60256 15.8705 5.63746C9.66205 8.03965 5.19692 12.3405 2.76373 18.2623C1.60157 21.0905 0.976296 24.3945 1.07772 27.1712C1.23282 31.4154 2.5813 35.5649 4.98547 39.1961C6.30643 41.1912 7.54317 42.5283 9.73035 44.3263L11.0622 45.421L11.0822 45.7945C11.1005 46.1354 11.0837 46.1858 10.8905 46.3709L10.6789 46.5738L6.80678 46.6872C2.90449 46.8016 2.30927 46.8498 1.73058 47.0982C1.3923 47.2434 1.27326 47.4269 1.11733 48.044C1.00942 48.4712 0.955055 54.0822 1.0461 55.4003C1.1299 56.6138 1.23453 56.9524 1.55888 57.0595C2.13935 57.2511 3.72414 57.2724 21.7508 57.3308C42.4609 57.3979 50.593 57.4522 52.5066 57.536C53.7892 57.5921 53.792 57.5926 53.992 57.7844C54.1655 57.9506 54.1925 58.0263 54.1925 58.3469C54.1925 58.6773 54.114 58.8809 53.4657 60.2301C52.4935 62.2537 46.078 75.2115 42.9914 81.3859C39.4601 88.4498 35.8412 95.8374 34.4801 98.7609L33.9774 99.8409L34.1102 100.101C34.4163 100.702 33.8515 100.687 56.7195 100.687C79.5442 100.687 79.0006 100.701 79.3407 100.106L79.4773 99.8674L78.9666 98.7742C77.5366 95.7128 74.0062 88.5042 70.5975 81.6855C67.4056 75.3005 61.0327 62.4288 60.0405 60.363C59.3313 58.8863 59.2466 58.6708 59.2466 58.3432C59.2466 58.0268 59.274 57.9502 59.447 57.7844C59.6471 57.5926 59.6499 57.5921 60.9325 57.536C62.8455 57.4522 70.9715 57.398 91.7224 57.3307C102.66 57.2952 110.631 57.2431 111.003 57.2046C111.92 57.1101 112.074 57.0462 112.211 56.7022C112.388 56.2598 112.448 55.0856 112.447 52.0409C112.446 48.9596 112.391 47.9971 112.186 47.5356C112.033 47.1883 111.685 46.9279 111.222 46.8132C111.038 46.7678 109.842 46.7222 108.251 46.6999L105.587 46.6626L105.399 46.4865L105.211 46.3104V35.6091V24.9079L105.403 24.7243C105.565 24.5691 105.654 24.5407 105.982 24.5407C106.196 24.5407 106.666 24.6176 107.028 24.7115C107.389 24.8055 107.781 24.8819 107.899 24.8813C108.341 24.8793 109.027 24.6621 109.825 24.2715C110.531 23.9262 110.709 23.8048 111.068 23.4205C111.353 23.116 111.587 22.769 111.798 22.3387C112.533 20.8426 112.532 19.6371 111.796 18.1756C111.537 17.6597 111.345 17.4811 109.848 16.3643C107.725 14.7807 104.846 12.7989 94.8299 6.02479C89.3862 2.34318 87.5577 1.13973 87.3513 1.10263C87.009 1.04107 85.145 0.970898 84.9608 1.01258ZM86.9416 3.66599C87.9469 4.19208 90.2736 5.68167 94.6933 8.62894C103.557 14.5395 109.606 18.8226 109.921 19.4107C110.043 19.6387 110.084 20.5102 109.994 20.9537C109.918 21.3301 109.871 21.4037 109.418 21.8516C108.972 22.2928 108.886 22.3475 108.519 22.4237C108.012 22.5292 107.213 22.4685 106.819 22.2945C106.523 22.1633 101 18.4828 96.2983 15.2827C90.1662 11.1094 86.6964 8.86704 86.0826 8.68093C85.8685 8.61595 85.7944 8.62928 85.4788 8.78922C84.4359 9.31791 81.4477 11.2404 76.8334 14.3514C69.0467 19.6011 65.2674 22.1153 64.9176 22.2783C64.5958 22.4282 64.4433 22.4546 63.8908 22.4556C63.0265 22.4573 62.7175 22.3361 62.2231 21.802C61.7569 21.2983 61.6851 21.0692 61.7155 20.1841L61.7394 19.4903L62.0468 19.1731C62.8215 18.3734 66.6488 15.6572 74.1697 10.5698C76.1606 9.22308 79.2135 7.15513 80.954 5.9743C82.6944 4.79353 84.2656 3.75337 84.4457 3.66298C84.8833 3.44305 85.1995 3.37547 85.83 3.36728C86.3284 3.36085 86.39 3.37739 86.9416 3.66599ZM26.2244 6.75086C28.3801 7.02573 30.1195 7.58017 32.4054 8.72097C34.8282 9.93016 36.6367 11.2707 38.1985 13.015C42.704 18.0471 44.4722 24.7276 43.0186 31.2261C42.1517 35.1017 40.0542 38.6549 36.9734 41.4672C33.6779 44.4754 29.7833 46.2349 25.5755 46.6165C24.4559 46.7181 21.4304 46.6551 20.388 46.5086C17.464 46.0977 14.8516 45.0976 12.3598 43.435C11.1124 42.6028 10.3403 41.9474 9.04655 40.6226C6.0262 37.5298 4.28616 34.0266 3.60393 29.665C3.43032 28.5549 3.42854 24.644 3.6012 23.5988C4.19738 19.9892 5.51724 16.9343 7.63066 14.2722C8.32061 13.4031 9.69422 11.991 10.5499 11.271C13.791 8.54422 17.7096 6.94886 21.9216 6.64134C22.9933 6.56311 25.1906 6.61906 26.2244 6.75086ZM23.1475 10.4256C22.8778 10.5431 22.5955 10.8819 22.5001 11.2027C22.4585 11.3424 22.4077 12.0256 22.387 12.7208C22.3523 13.8866 22.3381 13.9971 22.2038 14.1444C22.1237 14.2322 21.6684 14.5025 21.192 14.745C20.018 15.3425 19.3502 15.7907 18.7724 16.3686C17.7153 17.4259 17.0363 18.8704 16.841 20.4769C16.6708 21.8769 17.1173 23.5494 18.0259 24.9153C18.7142 25.9503 19.6168 26.6469 21.0751 27.2687C21.5698 27.4797 22.0156 27.719 22.1477 27.8445L22.3738 28.0594L22.351 31.6122C22.3266 35.4143 22.3289 35.3894 21.9727 35.7629C21.8202 35.9229 21.7384 35.9508 21.4217 35.9508C20.9442 35.9508 20.6911 35.7961 20.2033 35.2068C19.6536 34.5425 19.2377 33.6592 19.1545 32.9787C19.0572 32.1837 18.7844 31.658 18.3452 31.4189C17.9589 31.2086 17.6874 31.1896 17.3517 31.3498C16.483 31.7642 16.7046 33.9334 17.7999 35.7369C18.5765 37.0158 19.4196 37.7145 21.2191 38.5708C21.6431 38.7725 22.071 39.0265 22.1701 39.1352C22.3477 39.3298 22.3509 39.3512 22.3854 40.5626C22.4349 42.2987 22.572 42.6863 23.1962 42.8544C23.4446 42.9213 23.5331 42.914 23.7962 42.805C24.3092 42.5923 24.526 42.0386 24.6878 40.5284C24.8055 39.4289 24.8565 39.2842 25.2602 38.9023C25.4886 38.6861 25.7571 38.5149 26.0212 38.4167C26.5851 38.2071 27.2354 37.8419 27.7127 37.4668C28.8627 36.563 29.8672 34.5144 30.0683 32.6625C30.29 30.621 29.2168 28.2436 27.4838 26.9372C26.8429 26.4541 26.3596 26.197 25.678 25.9768C25.3911 25.884 25.1112 25.7383 24.9779 25.6122L24.756 25.4021L24.7601 21.9481C24.7622 20.0484 24.7883 18.347 24.8178 18.1672C24.8534 17.9515 24.9377 17.7712 25.0656 17.6377C25.2404 17.4552 25.3022 17.4351 25.6891 17.4351H26.1184L26.5182 17.8279C27.1525 18.4514 27.3746 18.9072 27.8694 20.6012C28.1755 21.6493 28.3508 21.9606 28.7177 22.1075C28.9448 22.1983 29.0495 22.2048 29.2945 22.1431C29.6869 22.0443 29.8486 21.8601 29.9774 21.3656C30.1757 20.6041 30.0763 19.7196 29.6758 18.6825C29.0594 17.0866 28.0768 16.0393 26.2927 15.0768C25.6173 14.7125 24.9933 14.175 24.8488 13.8332C24.7978 13.7123 24.756 13.3998 24.756 13.1389C24.756 11.9287 24.3009 10.7265 23.7313 10.4319C23.4929 10.3085 23.418 10.3077 23.1475 10.4256ZM86.6643 11.6384C88.1232 12.498 90.9582 14.3624 97.1179 18.5132C99.9352 20.4116 102.386 22.1051 102.565 22.2766L102.889 22.5884V34.4413V46.2943L102.706 46.4859L102.522 46.6775H99.3718H96.2214L96.0427 46.4896L95.8639 46.3018L95.8336 38.9228C95.803 31.4922 95.782 30.841 95.5464 30.0408C95.3879 29.5024 95.384 29.4997 94.6789 29.4444C94.33 29.4171 90.1389 29.375 85.3654 29.3509L76.6862 29.307L76.4231 29.6657C76.2784 29.8629 76.1182 30.1817 76.0672 30.3741C75.9054 30.9843 75.8477 33.4828 75.8454 39.9781L75.843 46.2943L75.6595 46.4859L75.476 46.6775H72.4964H69.5168L69.3224 46.4745L69.128 46.2715L69.1985 34.2717L69.2691 22.2718L69.4656 22.0767C69.8332 21.7117 81.962 13.5231 84.3724 12.0127C85.3734 11.3854 85.441 11.3543 85.8027 11.3543C86.1251 11.3543 86.2549 11.3971 86.6643 11.6384ZM21.9749 17.7613C22.1647 17.9558 22.2437 18.1094 22.2961 18.3855C22.3866 18.8627 22.3851 22.9599 22.2941 23.7539C22.2349 24.2711 22.1953 24.3975 22.0429 24.5567C21.8824 24.7242 21.8127 24.7457 21.4283 24.7457H20.9948L20.3815 24.1543C19.3877 23.1958 19.0991 22.3633 19.1775 20.6805C19.2403 19.3309 19.5021 18.7177 20.3565 17.9181L20.7997 17.5034H21.2614C21.7055 17.5034 21.7327 17.5132 21.9749 17.7613ZM26.5653 29.137C27.4522 30.0576 27.7248 30.8579 27.7226 32.5346C27.7206 33.9943 27.6159 34.226 26.3707 35.5237C25.833 36.0841 25.8279 36.0874 25.4845 36.0874C25.2027 36.0874 25.1038 36.0536 24.9475 35.9038L24.756 35.7202L24.7609 32.778C24.7637 31.1598 24.789 29.6737 24.8172 29.4757C24.8565 29.1994 24.922 29.0603 25.0988 28.8779C25.3073 28.6627 25.3651 28.6401 25.7079 28.6401H26.0868L26.5653 29.137ZM93.3487 31.9063L93.5323 32.0979V39.1961V46.2943L93.3487 46.4859L93.1652 46.6775H85.8909H78.6166L78.425 46.4939L78.2335 46.3104V39.2042V32.0979L78.417 31.9063L78.6005 31.7147H85.8829H93.1652L93.3487 31.9063ZM109.877 49.2605L110.06 49.4521V52.0409V54.6298L109.877 54.8214L109.693 55.013H56.7195H3.74565L3.56213 54.8214L3.37862 54.6298V52.0409V49.4521L3.56213 49.2605L3.74565 49.0689H56.7195H109.693L109.877 49.2605ZM57.2835 60.2568C57.5766 60.5631 59.3721 64.0983 67.8015 80.9649C75.4648 96.2986 75.8043 96.9936 75.8302 97.4004C75.8565 97.813 75.8505 97.8311 75.6215 98.0322L75.3859 98.2392L72.3932 98.2847C68.5144 98.3436 44.7902 98.3435 40.9834 98.2846L38.0531 98.2392L37.8246 98.0384C37.6213 97.8599 37.596 97.799 37.596 97.488C37.596 97.0355 37.7418 96.736 45.6299 80.9759C53.0276 66.1956 55.9168 60.5092 56.1567 60.2568C56.3102 60.0953 56.3892 60.0689 56.7195 60.0689C57.0496 60.0689 57.1291 60.0955 57.2835 60.2568Z" stroke="#389AE0" stroke-width="0.8" mask="url(#path-1-outside-1_728_80)"/>
</svg>
