<svg width="121" height="119" viewBox="0 0 121 119" fill="none" xmlns="http://www.w3.org/2000/svg">
<mask id="path-1-outside-1_733_68" maskUnits="userSpaceOnUse" x="0" y="0" width="121" height="119" fill="black">
<rect fill="white" width="121" height="119"/>
<path fill-rule="evenodd" clip-rule="evenodd" d="M36.1816 1.1118C36.0044 1.1725 35.8021 1.25976 35.7321 1.3056C35.5733 1.40969 35.3677 1.82404 35.3021 2.17224C35.2719 2.33302 35.2524 3.63178 35.2524 5.48663V8.53659L34.9932 8.79257L34.734 9.04855H33.7263C31.9306 9.04855 31.5339 9.22106 31.3046 10.1017C31.2396 10.3512 31.2285 10.8528 31.2285 13.5142V16.6342L30.9708 16.8876L30.7132 17.141L29.4619 17.1558L28.2105 17.1707L27.9013 17.3135C27.6599 17.425 27.5666 17.5003 27.4761 17.6571C27.186 18.1592 27.2045 17.3257 27.2045 29.8905V41.39H28.2596H29.3146V30.5547V19.7194L29.5738 19.4634L29.833 19.2074H41.3651H52.8971L53.1531 19.4666L53.4091 19.7258V29.5518V39.3779H54.4641H55.5192L55.5183 28.9859C55.5174 17.8508 55.5255 18.2284 55.2786 17.7444C55.1563 17.5048 54.9749 17.3694 54.6055 17.2423C54.3582 17.1572 54.1901 17.1462 53.1421 17.1462H51.9581L51.7035 16.8883L51.4489 16.6305L51.4353 13.3426L51.4216 10.0546L51.2933 9.78117C51.144 9.4631 51.0038 9.33967 50.6202 9.18808C50.3647 9.08713 50.2438 9.07662 49.1339 9.05905L47.9257 9.03992L47.6753 8.78643L47.425 8.53295L47.4114 5.29405L47.3977 2.05515L47.2857 1.77801C47.1444 1.42854 46.9938 1.27792 46.6443 1.13658L46.3672 1.02454L41.4355 1.01296L36.5037 1.00132L36.1816 1.1118ZM81.6256 2.19177V3.38355L81.3664 3.63953L81.1072 3.89552H80.6322H80.1571L78.4359 3.28206C77.4892 2.94466 76.6642 2.6686 76.6026 2.6686C76.541 2.6686 76.3707 2.72936 76.2241 2.80356C75.9862 2.92409 75.9394 2.97513 75.786 3.28088L75.6142 3.62319L75.601 8.45787L75.5878 13.2925L75.3328 13.5507L75.0778 13.809H74.5578H74.0378L70.3171 12.4797C66.3062 11.0468 66.4891 11.097 66.0957 11.3199C65.8675 11.4492 65.7096 11.666 65.5908 12.0134C65.5107 12.2475 65.5046 12.9844 65.4925 23.8083L65.4796 35.3536H66.5353H67.5909V24.9354V14.5173L67.8501 14.2613L68.1093 14.0053H68.5716H69.0339L81.0835 18.3062L93.133 22.607L93.4152 22.881L93.6973 23.155V32.2725V41.39H94.7524H95.8074V31.9026C95.8074 23.3585 95.7996 22.3887 95.7291 22.1487C95.6146 21.759 95.4756 21.5384 95.2741 21.4267C95.1761 21.3724 94.0249 20.9471 92.7159 20.4817L90.3359 19.6355L90.0537 19.3617L89.7715 19.0878V13.6613C89.7715 8.94642 89.7617 8.19703 89.6964 7.94629C89.5979 7.56826 89.4426 7.29863 89.2582 7.18551C89.1762 7.13521 88.016 6.70417 86.68 6.22758L84.2509 5.36114L83.9933 5.10849L83.7357 4.85585V2.92792V1H82.6806H81.6256V2.19177ZM45.1021 3.36627L45.3612 3.62226V6.07618V8.53016L45.1053 8.78938L44.8493 9.04855H41.3651H37.8808L37.6216 8.79257L37.3625 8.53659V6.08266V3.62869L37.6184 3.36946L37.8744 3.11029H41.3586H44.8429L45.1021 3.36627ZM83.1341 6.94494L87.1462 8.37483L87.4038 8.62414L87.6614 8.87345V13.2414V17.6093L87.4055 17.8685L87.1495 18.1277L86.6326 18.1265L86.1157 18.1254L82.1443 16.7052L78.1729 15.2851L77.9118 15.0272L77.6507 14.7693V10.4014V6.03344L77.9067 5.77421L78.1626 5.51504H78.6423H79.122L83.1341 6.94494ZM49.126 11.4148L49.3852 11.6708V14.1493V16.6278L49.1292 16.887L48.8732 17.1462H41.3651H33.8569L33.5977 16.8902L33.3386 16.6342V14.1558V11.6772L33.5945 11.418L33.8505 11.1588H41.3586H48.8668L49.126 11.4148ZM37.2643 26.2499V27.305H38.3194H39.3744V26.2499V25.1947H38.3194H37.2643V26.2499ZM73.5777 26.2499V27.305H74.6083H75.6388V26.2499V25.1947H74.6083H73.5777V26.2499ZM85.6495 30.2742V31.3293H86.7045H87.7596V30.2742V29.219H86.7045H85.6495V30.2742ZM45.3612 34.2984V35.3536H46.3918H47.4223V34.2984V33.2433H46.3918H45.3612V34.2984ZM11.0598 43.0725V46.8654L10.8006 47.1213L10.5414 47.3773H8.40126C6.40054 47.3773 6.24037 47.3837 5.94368 47.4754C5.76913 47.5293 5.56744 47.6197 5.4955 47.6763C5.3393 47.7992 5.1806 48.0956 5.09061 48.4325C5.03623 48.636 5.025 54.3642 5.02451 82.027L5.02392 115.376L4.76477 115.632L4.50557 115.888H2.75281H1V116.943V117.998H60.5H120V116.943V115.888H118.244H116.488L116.232 115.629L115.976 115.37L115.975 82.0238C115.975 54.3636 115.964 48.636 115.909 48.4325C115.819 48.0956 115.661 47.7992 115.504 47.6763C115.433 47.6197 115.231 47.5293 115.056 47.4754C114.778 47.3893 114.6 47.3773 113.602 47.3773H112.464L112.208 47.1182L111.952 46.8589V45.106V43.3531H110.897H109.842V45.1092V46.8654L109.583 47.1213L109.324 47.3773H106.845H104.367L104.111 47.1182L103.855 46.8589V45.106V43.3531H102.825H101.794V45.1092V46.8654L101.535 47.1213L101.276 47.3773H94.0813C86.9933 47.3773 86.8818 47.3788 86.5646 47.4768C86.1615 47.6013 85.9476 47.798 85.7918 48.1871L85.674 48.4815L85.6611 57.0331L85.6481 65.5847H86.7038H87.7596V57.7676V49.9505L88.0187 49.6945L88.2779 49.4385H100.816H113.354L113.61 49.6977L113.866 49.9569V53.4415V56.9261L113.607 57.182L113.348 57.438H104.553H95.7584V58.4932V59.5483H104.556H113.354L113.61 59.8075L113.866 60.0667V62.5207V64.9746L113.607 65.2306L113.348 65.4866H109.583H105.818V66.5417V67.5969H109.586H113.354L113.61 67.856L113.866 68.1153V70.5938V73.0722L113.607 73.3282L113.348 73.5842H109.583H105.818V74.6148V75.6454H109.586H113.354L113.61 75.9046L113.866 76.1638V78.6423V81.1208L113.607 81.3768L113.348 81.6328H109.583H105.818V82.6879V83.743H109.586H113.354L113.61 84.0022L113.866 84.2614V86.7154V89.1693L113.607 89.4253L113.348 89.6813H108.577H103.806V90.7365V91.7916H108.58H113.354L113.61 92.0508L113.866 92.31V94.7885V97.267L113.607 97.5229L113.348 97.7789H108.577H103.806V98.8095V99.8401H108.58H113.354L113.61 100.099L113.866 100.359V102.837V105.316L113.607 105.572L113.348 105.827H108.577H103.806V106.883V107.938H108.58H113.354L113.61 108.197L113.866 108.456V111.916V115.376L113.607 115.632L113.348 115.888H104.833H96.3193L96.0634 115.629L95.8074 115.37V99.8124V84.255L96.065 84.0026L96.3227 83.7502L97.5249 83.7317C98.6478 83.7145 98.7467 83.7056 99.0217 83.5976C99.428 83.438 99.6037 83.2481 99.73 82.8319C99.8327 82.493 99.8331 82.4676 99.82 76.5288L99.8068 70.566L99.6494 70.2336C99.5006 69.9195 99.475 69.8932 99.1832 69.7551C99.0134 69.6748 98.8082 69.609 98.7272 69.609C98.6462 69.609 90.5089 70.5042 80.6441 71.5984C66.7148 73.1434 62.6332 73.611 62.3724 73.6918C61.9562 73.8207 61.7559 74.0025 61.5993 74.394L61.4814 74.6884L61.4655 78.4428C61.4484 82.4744 61.456 82.6293 61.6937 83.1051C61.8056 83.3292 61.8696 83.3937 62.0878 83.5028C62.4852 83.7014 62.8052 83.743 63.9326 83.743H64.9689L65.2249 84.0022L65.4808 84.2614V99.8188V115.376L65.2217 115.632L64.9625 115.888H59.4908H54.0191L53.7636 115.629L53.5081 115.371L53.4954 95.0541L53.4827 74.7375L53.3743 74.4534C53.2152 74.0366 53.1046 73.91 52.761 73.7514L52.4522 73.6087L47.1776 73.5956L41.903 73.5825L41.6447 73.3273L41.3864 73.0722L41.3861 71.8682C41.3858 70.4689 41.324 69.9487 41.0673 69.1814C40.542 67.6114 39.6206 66.5911 38.1967 66.0026C37.9876 65.9162 37.789 65.7841 37.6201 65.619L37.3625 65.3672V63.4148V61.4623H36.3074H35.2524V63.415V65.3676L35.0149 65.6015C34.8489 65.765 34.6017 65.9209 34.193 66.1199C32.9951 66.7028 32.324 67.3846 31.7863 68.5648C31.3586 69.5033 31.2291 70.2761 31.2287 71.8927L31.2285 73.0722L30.9708 73.3256L30.7132 73.5789L29.4864 73.5947C28.3466 73.6094 28.2399 73.6184 27.9825 73.7217C27.6334 73.8617 27.4826 74.0123 27.3411 74.3622L27.2291 74.6393L27.2165 95.0049L27.2039 115.37L26.9483 115.629L26.6926 115.888H17.1693H7.64594L7.38998 115.629L7.13402 115.37V111.91V108.45L7.39317 108.194L7.65237 107.938H13.429H19.2058V106.883V105.827H13.4259H7.64594L7.38998 105.568L7.13402 105.309V102.831V100.352L7.39317 100.096L7.65237 99.8401H12.4231H17.1938V98.8095V97.7789H12.4199H7.64594L7.38998 97.5198L7.13402 97.2605V94.782V92.3036L7.39317 92.0476L7.65237 91.7916H12.4231H17.1938V90.7365V89.6813H12.4199H7.64594L7.38998 89.4221L7.13402 89.1629V86.7089V84.255L7.39317 83.999L7.65237 83.743H13.429H19.2058V82.6879V81.6328H13.4259H7.64594L7.38998 81.3736L7.13402 81.1144V78.6358V76.1574L7.39317 75.9014L7.65237 75.6454H12.4231H17.1938V74.6148V73.5842H12.4199H7.64594L7.38998 73.325L7.13402 73.0658V70.5873V68.1088L7.39317 67.8528L7.65237 67.5969H15.441H23.2297V66.5417V65.4866H15.4378H7.64594L7.38998 65.2274L7.13402 64.9682V62.5142V60.0603L7.39317 59.8043L7.65237 59.5483H16.447H25.2416V58.4932V57.438H16.4438H7.64594L7.38998 57.1788L7.13402 56.9196V53.435V49.9505L7.39317 49.6945L7.65237 49.4385H21.1964H34.7405L34.9964 49.6977L35.2524 49.9569V52.7405V55.524H36.309H37.3656L37.3518 52.0028L37.3379 48.4815L37.2201 48.1871C37.0644 47.798 36.8504 47.6013 36.4474 47.4768C36.1301 47.3788 36.0187 47.3773 28.9275 47.3773H21.7297L21.4737 47.1182L21.2177 46.8589V45.106V43.3531H20.1872H19.1567V45.1092V46.8654L18.8976 47.1213L18.6384 47.3773H16.1601H13.6818L13.4259 47.1182L13.1699 46.8589V43.0693V39.2797H12.1148H11.0598V43.0725ZM35.2524 40.3348V41.39H36.3074H37.3625V40.3348V39.2797H36.3074H35.2524V40.3348ZM81.6256 40.3348V41.39H82.6806H83.7357V40.3348V39.2797H82.6806H81.6256V40.3348ZM61.3113 43.4554C53.9216 45.7312 47.9987 47.58 47.8857 47.6463C47.7279 47.7387 47.6518 47.8331 47.5405 48.0742L47.3977 48.3834L47.385 57.9901L47.3722 67.5969H48.4032H49.4342V58.5285V49.46L49.7164 49.1835L49.9986 48.907L61.0214 45.5165L72.0442 42.1261H72.555H73.0658L73.3218 42.3853L73.5777 42.6445V46.7671V50.8896L73.3186 51.1456L73.0594 51.4016H69.2701H65.4808V52.4568V53.5119H69.2733H73.0658L73.3218 53.7711L73.5777 54.0303V56.4843V58.9382L73.3186 59.1942L73.0594 59.4502H66.2522H59.4449V60.5053V61.5604H66.2554H73.0658L73.3218 61.8196L73.5777 62.0788V63.8318V65.5847H74.6083H75.6388V53.05C75.6388 40.9518 75.6356 40.5051 75.5471 40.221C75.4968 40.0591 75.4079 39.8598 75.3497 39.778C75.2416 39.6261 74.7841 39.3757 74.6236 39.3805C74.5746 39.382 68.5841 41.2157 61.3113 43.4554ZM37.28 67.6702C37.7417 67.7905 37.9506 67.9275 38.4684 68.4498C38.8087 68.793 39.0059 69.0375 39.1063 69.2409L39.2518 69.5354L39.2664 71.2982L39.281 73.061L39.0227 73.3226L38.7644 73.5842H36.3074H33.8505L33.5921 73.3226L33.3338 73.061L33.3485 71.3228L33.3631 69.5845L33.5191 69.2551C33.6297 69.0216 33.7964 68.8001 34.0915 68.4944C34.5531 68.0161 34.8961 67.784 35.3014 67.6755C35.6759 67.5753 36.9031 67.572 37.28 67.6702ZM97.5112 72.1225L97.7703 72.3785V76.7464V81.1144L97.5144 81.3736L97.2584 81.6328H80.6719H64.0854L63.8262 81.3768L63.567 81.1208V78.5409V75.9611L63.8264 75.7049L64.0857 75.4488L80.106 73.6631C90.9732 72.4518 96.3074 71.8756 96.6892 71.872L97.252 71.8665L97.5112 72.1225ZM51.138 75.9014L51.3971 76.1574V95.7636V115.37L51.1412 115.629L50.8852 115.888H40.3591H29.833L29.5738 115.632L29.3146 115.376V95.77V76.1638L29.5706 75.9046L29.8266 75.6454H40.3526H50.8788L51.138 75.9014ZM35.2524 95.7913V107.938H36.3074H37.3625V95.7913V83.6449H36.3074H35.2524V95.7913ZM43.3493 95.7913V107.938H44.3798H45.4103V95.7913V83.6449H44.3798H43.3493V95.7913ZM93.4382 83.999L93.6973 84.255V99.8124V115.37L93.4414 115.629L93.1854 115.888H80.6474H68.1093L67.8501 115.632L67.5909 115.376V99.8188V84.2614L67.8469 84.0022L68.1029 83.743H80.6409H93.179L93.4382 83.999ZM75.5897 90.7365V91.7916H76.6202H77.6507V90.7365V89.6813H76.6202H75.5897V90.7365ZM83.6375 90.7365V91.7916H84.6926H85.7476V90.7365V89.6813H84.6926H83.6375V90.7365ZM75.5897 98.8095V99.8401H76.6202H77.6507V98.8095V97.7789H76.6202H75.5897V98.8095ZM83.6375 98.8095V99.8401H84.6926H85.7476V98.8095V97.7789H84.6926H83.6375V98.8095ZM75.5897 106.883V107.938H76.6202H77.6507V106.883V105.827H76.6202H75.5897V106.883ZM83.6375 106.883V107.938H84.6926H85.7476V106.883V105.827H84.6926H83.6375V106.883Z"/>
</mask>
<path fill-rule="evenodd" clip-rule="evenodd" d="M36.1816 1.1118C36.0044 1.1725 35.8021 1.25976 35.7321 1.3056C35.5733 1.40969 35.3677 1.82404 35.3021 2.17224C35.2719 2.33302 35.2524 3.63178 35.2524 5.48663V8.53659L34.9932 8.79257L34.734 9.04855H33.7263C31.9306 9.04855 31.5339 9.22106 31.3046 10.1017C31.2396 10.3512 31.2285 10.8528 31.2285 13.5142V16.6342L30.9708 16.8876L30.7132 17.141L29.4619 17.1558L28.2105 17.1707L27.9013 17.3135C27.6599 17.425 27.5666 17.5003 27.4761 17.6571C27.186 18.1592 27.2045 17.3257 27.2045 29.8905V41.39H28.2596H29.3146V30.5547V19.7194L29.5738 19.4634L29.833 19.2074H41.3651H52.8971L53.1531 19.4666L53.4091 19.7258V29.5518V39.3779H54.4641H55.5192L55.5183 28.9859C55.5174 17.8508 55.5255 18.2284 55.2786 17.7444C55.1563 17.5048 54.9749 17.3694 54.6055 17.2423C54.3582 17.1572 54.1901 17.1462 53.1421 17.1462H51.9581L51.7035 16.8883L51.4489 16.6305L51.4353 13.3426L51.4216 10.0546L51.2933 9.78117C51.144 9.4631 51.0038 9.33967 50.6202 9.18808C50.3647 9.08713 50.2438 9.07662 49.1339 9.05905L47.9257 9.03992L47.6753 8.78643L47.425 8.53295L47.4114 5.29405L47.3977 2.05515L47.2857 1.77801C47.1444 1.42854 46.9938 1.27792 46.6443 1.13658L46.3672 1.02454L41.4355 1.01296L36.5037 1.00132L36.1816 1.1118ZM81.6256 2.19177V3.38355L81.3664 3.63953L81.1072 3.89552H80.6322H80.1571L78.4359 3.28206C77.4892 2.94466 76.6642 2.6686 76.6026 2.6686C76.541 2.6686 76.3707 2.72936 76.2241 2.80356C75.9862 2.92409 75.9394 2.97513 75.786 3.28088L75.6142 3.62319L75.601 8.45787L75.5878 13.2925L75.3328 13.5507L75.0778 13.809H74.5578H74.0378L70.3171 12.4797C66.3062 11.0468 66.4891 11.097 66.0957 11.3199C65.8675 11.4492 65.7096 11.666 65.5908 12.0134C65.5107 12.2475 65.5046 12.9844 65.4925 23.8083L65.4796 35.3536H66.5353H67.5909V24.9354V14.5173L67.8501 14.2613L68.1093 14.0053H68.5716H69.0339L81.0835 18.3062L93.133 22.607L93.4152 22.881L93.6973 23.155V32.2725V41.39H94.7524H95.8074V31.9026C95.8074 23.3585 95.7996 22.3887 95.7291 22.1487C95.6146 21.759 95.4756 21.5384 95.2741 21.4267C95.1761 21.3724 94.0249 20.9471 92.7159 20.4817L90.3359 19.6355L90.0537 19.3617L89.7715 19.0878V13.6613C89.7715 8.94642 89.7617 8.19703 89.6964 7.94629C89.5979 7.56826 89.4426 7.29863 89.2582 7.18551C89.1762 7.13521 88.016 6.70417 86.68 6.22758L84.2509 5.36114L83.9933 5.10849L83.7357 4.85585V2.92792V1H82.6806H81.6256V2.19177ZM45.1021 3.36627L45.3612 3.62226V6.07618V8.53016L45.1053 8.78938L44.8493 9.04855H41.3651H37.8808L37.6216 8.79257L37.3625 8.53659V6.08266V3.62869L37.6184 3.36946L37.8744 3.11029H41.3586H44.8429L45.1021 3.36627ZM83.1341 6.94494L87.1462 8.37483L87.4038 8.62414L87.6614 8.87345V13.2414V17.6093L87.4055 17.8685L87.1495 18.1277L86.6326 18.1265L86.1157 18.1254L82.1443 16.7052L78.1729 15.2851L77.9118 15.0272L77.6507 14.7693V10.4014V6.03344L77.9067 5.77421L78.1626 5.51504H78.6423H79.122L83.1341 6.94494ZM49.126 11.4148L49.3852 11.6708V14.1493V16.6278L49.1292 16.887L48.8732 17.1462H41.3651H33.8569L33.5977 16.8902L33.3386 16.6342V14.1558V11.6772L33.5945 11.418L33.8505 11.1588H41.3586H48.8668L49.126 11.4148ZM37.2643 26.2499V27.305H38.3194H39.3744V26.2499V25.1947H38.3194H37.2643V26.2499ZM73.5777 26.2499V27.305H74.6083H75.6388V26.2499V25.1947H74.6083H73.5777V26.2499ZM85.6495 30.2742V31.3293H86.7045H87.7596V30.2742V29.219H86.7045H85.6495V30.2742ZM45.3612 34.2984V35.3536H46.3918H47.4223V34.2984V33.2433H46.3918H45.3612V34.2984ZM11.0598 43.0725V46.8654L10.8006 47.1213L10.5414 47.3773H8.40126C6.40054 47.3773 6.24037 47.3837 5.94368 47.4754C5.76913 47.5293 5.56744 47.6197 5.4955 47.6763C5.3393 47.7992 5.1806 48.0956 5.09061 48.4325C5.03623 48.636 5.025 54.3642 5.02451 82.027L5.02392 115.376L4.76477 115.632L4.50557 115.888H2.75281H1V116.943V117.998H60.5H120V116.943V115.888H118.244H116.488L116.232 115.629L115.976 115.37L115.975 82.0238C115.975 54.3636 115.964 48.636 115.909 48.4325C115.819 48.0956 115.661 47.7992 115.504 47.6763C115.433 47.6197 115.231 47.5293 115.056 47.4754C114.778 47.3893 114.6 47.3773 113.602 47.3773H112.464L112.208 47.1182L111.952 46.8589V45.106V43.3531H110.897H109.842V45.1092V46.8654L109.583 47.1213L109.324 47.3773H106.845H104.367L104.111 47.1182L103.855 46.8589V45.106V43.3531H102.825H101.794V45.1092V46.8654L101.535 47.1213L101.276 47.3773H94.0813C86.9933 47.3773 86.8818 47.3788 86.5646 47.4768C86.1615 47.6013 85.9476 47.798 85.7918 48.1871L85.674 48.4815L85.6611 57.0331L85.6481 65.5847H86.7038H87.7596V57.7676V49.9505L88.0187 49.6945L88.2779 49.4385H100.816H113.354L113.61 49.6977L113.866 49.9569V53.4415V56.9261L113.607 57.182L113.348 57.438H104.553H95.7584V58.4932V59.5483H104.556H113.354L113.61 59.8075L113.866 60.0667V62.5207V64.9746L113.607 65.2306L113.348 65.4866H109.583H105.818V66.5417V67.5969H109.586H113.354L113.61 67.856L113.866 68.1153V70.5938V73.0722L113.607 73.3282L113.348 73.5842H109.583H105.818V74.6148V75.6454H109.586H113.354L113.61 75.9046L113.866 76.1638V78.6423V81.1208L113.607 81.3768L113.348 81.6328H109.583H105.818V82.6879V83.743H109.586H113.354L113.61 84.0022L113.866 84.2614V86.7154V89.1693L113.607 89.4253L113.348 89.6813H108.577H103.806V90.7365V91.7916H108.58H113.354L113.61 92.0508L113.866 92.31V94.7885V97.267L113.607 97.5229L113.348 97.7789H108.577H103.806V98.8095V99.8401H108.58H113.354L113.61 100.099L113.866 100.359V102.837V105.316L113.607 105.572L113.348 105.827H108.577H103.806V106.883V107.938H108.58H113.354L113.61 108.197L113.866 108.456V111.916V115.376L113.607 115.632L113.348 115.888H104.833H96.3193L96.0634 115.629L95.8074 115.37V99.8124V84.255L96.065 84.0026L96.3227 83.7502L97.5249 83.7317C98.6478 83.7145 98.7467 83.7056 99.0217 83.5976C99.428 83.438 99.6037 83.2481 99.73 82.8319C99.8327 82.493 99.8331 82.4676 99.82 76.5288L99.8068 70.566L99.6494 70.2336C99.5006 69.9195 99.475 69.8932 99.1832 69.7551C99.0134 69.6748 98.8082 69.609 98.7272 69.609C98.6462 69.609 90.5089 70.5042 80.6441 71.5984C66.7148 73.1434 62.6332 73.611 62.3724 73.6918C61.9562 73.8207 61.7559 74.0025 61.5993 74.394L61.4814 74.6884L61.4655 78.4428C61.4484 82.4744 61.456 82.6293 61.6937 83.1051C61.8056 83.3292 61.8696 83.3937 62.0878 83.5028C62.4852 83.7014 62.8052 83.743 63.9326 83.743H64.9689L65.2249 84.0022L65.4808 84.2614V99.8188V115.376L65.2217 115.632L64.9625 115.888H59.4908H54.0191L53.7636 115.629L53.5081 115.371L53.4954 95.0541L53.4827 74.7375L53.3743 74.4534C53.2152 74.0366 53.1046 73.91 52.761 73.7514L52.4522 73.6087L47.1776 73.5956L41.903 73.5825L41.6447 73.3273L41.3864 73.0722L41.3861 71.8682C41.3858 70.4689 41.324 69.9487 41.0673 69.1814C40.542 67.6114 39.6206 66.5911 38.1967 66.0026C37.9876 65.9162 37.789 65.7841 37.6201 65.619L37.3625 65.3672V63.4148V61.4623H36.3074H35.2524V63.415V65.3676L35.0149 65.6015C34.8489 65.765 34.6017 65.9209 34.193 66.1199C32.9951 66.7028 32.324 67.3846 31.7863 68.5648C31.3586 69.5033 31.2291 70.2761 31.2287 71.8927L31.2285 73.0722L30.9708 73.3256L30.7132 73.5789L29.4864 73.5947C28.3466 73.6094 28.2399 73.6184 27.9825 73.7217C27.6334 73.8617 27.4826 74.0123 27.3411 74.3622L27.2291 74.6393L27.2165 95.0049L27.2039 115.37L26.9483 115.629L26.6926 115.888H17.1693H7.64594L7.38998 115.629L7.13402 115.37V111.91V108.45L7.39317 108.194L7.65237 107.938H13.429H19.2058V106.883V105.827H13.4259H7.64594L7.38998 105.568L7.13402 105.309V102.831V100.352L7.39317 100.096L7.65237 99.8401H12.4231H17.1938V98.8095V97.7789H12.4199H7.64594L7.38998 97.5198L7.13402 97.2605V94.782V92.3036L7.39317 92.0476L7.65237 91.7916H12.4231H17.1938V90.7365V89.6813H12.4199H7.64594L7.38998 89.4221L7.13402 89.1629V86.7089V84.255L7.39317 83.999L7.65237 83.743H13.429H19.2058V82.6879V81.6328H13.4259H7.64594L7.38998 81.3736L7.13402 81.1144V78.6358V76.1574L7.39317 75.9014L7.65237 75.6454H12.4231H17.1938V74.6148V73.5842H12.4199H7.64594L7.38998 73.325L7.13402 73.0658V70.5873V68.1088L7.39317 67.8528L7.65237 67.5969H15.441H23.2297V66.5417V65.4866H15.4378H7.64594L7.38998 65.2274L7.13402 64.9682V62.5142V60.0603L7.39317 59.8043L7.65237 59.5483H16.447H25.2416V58.4932V57.438H16.4438H7.64594L7.38998 57.1788L7.13402 56.9196V53.435V49.9505L7.39317 49.6945L7.65237 49.4385H21.1964H34.7405L34.9964 49.6977L35.2524 49.9569V52.7405V55.524H36.309H37.3656L37.3518 52.0028L37.3379 48.4815L37.2201 48.1871C37.0644 47.798 36.8504 47.6013 36.4474 47.4768C36.1301 47.3788 36.0187 47.3773 28.9275 47.3773H21.7297L21.4737 47.1182L21.2177 46.8589V45.106V43.3531H20.1872H19.1567V45.1092V46.8654L18.8976 47.1213L18.6384 47.3773H16.1601H13.6818L13.4259 47.1182L13.1699 46.8589V43.0693V39.2797H12.1148H11.0598V43.0725ZM35.2524 40.3348V41.39H36.3074H37.3625V40.3348V39.2797H36.3074H35.2524V40.3348ZM81.6256 40.3348V41.39H82.6806H83.7357V40.3348V39.2797H82.6806H81.6256V40.3348ZM61.3113 43.4554C53.9216 45.7312 47.9987 47.58 47.8857 47.6463C47.7279 47.7387 47.6518 47.8331 47.5405 48.0742L47.3977 48.3834L47.385 57.9901L47.3722 67.5969H48.4032H49.4342V58.5285V49.46L49.7164 49.1835L49.9986 48.907L61.0214 45.5165L72.0442 42.1261H72.555H73.0658L73.3218 42.3853L73.5777 42.6445V46.7671V50.8896L73.3186 51.1456L73.0594 51.4016H69.2701H65.4808V52.4568V53.5119H69.2733H73.0658L73.3218 53.7711L73.5777 54.0303V56.4843V58.9382L73.3186 59.1942L73.0594 59.4502H66.2522H59.4449V60.5053V61.5604H66.2554H73.0658L73.3218 61.8196L73.5777 62.0788V63.8318V65.5847H74.6083H75.6388V53.05C75.6388 40.9518 75.6356 40.5051 75.5471 40.221C75.4968 40.0591 75.4079 39.8598 75.3497 39.778C75.2416 39.6261 74.7841 39.3757 74.6236 39.3805C74.5746 39.382 68.5841 41.2157 61.3113 43.4554ZM37.28 67.6702C37.7417 67.7905 37.9506 67.9275 38.4684 68.4498C38.8087 68.793 39.0059 69.0375 39.1063 69.2409L39.2518 69.5354L39.2664 71.2982L39.281 73.061L39.0227 73.3226L38.7644 73.5842H36.3074H33.8505L33.5921 73.3226L33.3338 73.061L33.3485 71.3228L33.3631 69.5845L33.5191 69.2551C33.6297 69.0216 33.7964 68.8001 34.0915 68.4944C34.5531 68.0161 34.8961 67.784 35.3014 67.6755C35.6759 67.5753 36.9031 67.572 37.28 67.6702ZM97.5112 72.1225L97.7703 72.3785V76.7464V81.1144L97.5144 81.3736L97.2584 81.6328H80.6719H64.0854L63.8262 81.3768L63.567 81.1208V78.5409V75.9611L63.8264 75.7049L64.0857 75.4488L80.106 73.6631C90.9732 72.4518 96.3074 71.8756 96.6892 71.872L97.252 71.8665L97.5112 72.1225ZM51.138 75.9014L51.3971 76.1574V95.7636V115.37L51.1412 115.629L50.8852 115.888H40.3591H29.833L29.5738 115.632L29.3146 115.376V95.77V76.1638L29.5706 75.9046L29.8266 75.6454H40.3526H50.8788L51.138 75.9014ZM35.2524 95.7913V107.938H36.3074H37.3625V95.7913V83.6449H36.3074H35.2524V95.7913ZM43.3493 95.7913V107.938H44.3798H45.4103V95.7913V83.6449H44.3798H43.3493V95.7913ZM93.4382 83.999L93.6973 84.255V99.8124V115.37L93.4414 115.629L93.1854 115.888H80.6474H68.1093L67.8501 115.632L67.5909 115.376V99.8188V84.2614L67.8469 84.0022L68.1029 83.743H80.6409H93.179L93.4382 83.999ZM75.5897 90.7365V91.7916H76.6202H77.6507V90.7365V89.6813H76.6202H75.5897V90.7365ZM83.6375 90.7365V91.7916H84.6926H85.7476V90.7365V89.6813H84.6926H83.6375V90.7365ZM75.5897 98.8095V99.8401H76.6202H77.6507V98.8095V97.7789H76.6202H75.5897V98.8095ZM83.6375 98.8095V99.8401H84.6926H85.7476V98.8095V97.7789H84.6926H83.6375V98.8095ZM75.5897 106.883V107.938H76.6202H77.6507V106.883V105.827H76.6202H75.5897V106.883ZM83.6375 106.883V107.938H84.6926H85.7476V106.883V105.827H84.6926H83.6375V106.883Z" fill="#389AE0"/>
<path fill-rule="evenodd" clip-rule="evenodd" d="M36.1816 1.1118C36.0044 1.1725 35.8021 1.25976 35.7321 1.3056C35.5733 1.40969 35.3677 1.82404 35.3021 2.17224C35.2719 2.33302 35.2524 3.63178 35.2524 5.48663V8.53659L34.9932 8.79257L34.734 9.04855H33.7263C31.9306 9.04855 31.5339 9.22106 31.3046 10.1017C31.2396 10.3512 31.2285 10.8528 31.2285 13.5142V16.6342L30.9708 16.8876L30.7132 17.141L29.4619 17.1558L28.2105 17.1707L27.9013 17.3135C27.6599 17.425 27.5666 17.5003 27.4761 17.6571C27.186 18.1592 27.2045 17.3257 27.2045 29.8905V41.39H28.2596H29.3146V30.5547V19.7194L29.5738 19.4634L29.833 19.2074H41.3651H52.8971L53.1531 19.4666L53.4091 19.7258V29.5518V39.3779H54.4641H55.5192L55.5183 28.9859C55.5174 17.8508 55.5255 18.2284 55.2786 17.7444C55.1563 17.5048 54.9749 17.3694 54.6055 17.2423C54.3582 17.1572 54.1901 17.1462 53.1421 17.1462H51.9581L51.7035 16.8883L51.4489 16.6305L51.4353 13.3426L51.4216 10.0546L51.2933 9.78117C51.144 9.4631 51.0038 9.33967 50.6202 9.18808C50.3647 9.08713 50.2438 9.07662 49.1339 9.05905L47.9257 9.03992L47.6753 8.78643L47.425 8.53295L47.4114 5.29405L47.3977 2.05515L47.2857 1.77801C47.1444 1.42854 46.9938 1.27792 46.6443 1.13658L46.3672 1.02454L41.4355 1.01296L36.5037 1.00132L36.1816 1.1118ZM81.6256 2.19177V3.38355L81.3664 3.63953L81.1072 3.89552H80.6322H80.1571L78.4359 3.28206C77.4892 2.94466 76.6642 2.6686 76.6026 2.6686C76.541 2.6686 76.3707 2.72936 76.2241 2.80356C75.9862 2.92409 75.9394 2.97513 75.786 3.28088L75.6142 3.62319L75.601 8.45787L75.5878 13.2925L75.3328 13.5507L75.0778 13.809H74.5578H74.0378L70.3171 12.4797C66.3062 11.0468 66.4891 11.097 66.0957 11.3199C65.8675 11.4492 65.7096 11.666 65.5908 12.0134C65.5107 12.2475 65.5046 12.9844 65.4925 23.8083L65.4796 35.3536H66.5353H67.5909V24.9354V14.5173L67.8501 14.2613L68.1093 14.0053H68.5716H69.0339L81.0835 18.3062L93.133 22.607L93.4152 22.881L93.6973 23.155V32.2725V41.39H94.7524H95.8074V31.9026C95.8074 23.3585 95.7996 22.3887 95.7291 22.1487C95.6146 21.759 95.4756 21.5384 95.2741 21.4267C95.1761 21.3724 94.0249 20.9471 92.7159 20.4817L90.3359 19.6355L90.0537 19.3617L89.7715 19.0878V13.6613C89.7715 8.94642 89.7617 8.19703 89.6964 7.94629C89.5979 7.56826 89.4426 7.29863 89.2582 7.18551C89.1762 7.13521 88.016 6.70417 86.68 6.22758L84.2509 5.36114L83.9933 5.10849L83.7357 4.85585V2.92792V1H82.6806H81.6256V2.19177ZM45.1021 3.36627L45.3612 3.62226V6.07618V8.53016L45.1053 8.78938L44.8493 9.04855H41.3651H37.8808L37.6216 8.79257L37.3625 8.53659V6.08266V3.62869L37.6184 3.36946L37.8744 3.11029H41.3586H44.8429L45.1021 3.36627ZM83.1341 6.94494L87.1462 8.37483L87.4038 8.62414L87.6614 8.87345V13.2414V17.6093L87.4055 17.8685L87.1495 18.1277L86.6326 18.1265L86.1157 18.1254L82.1443 16.7052L78.1729 15.2851L77.9118 15.0272L77.6507 14.7693V10.4014V6.03344L77.9067 5.77421L78.1626 5.51504H78.6423H79.122L83.1341 6.94494ZM49.126 11.4148L49.3852 11.6708V14.1493V16.6278L49.1292 16.887L48.8732 17.1462H41.3651H33.8569L33.5977 16.8902L33.3386 16.6342V14.1558V11.6772L33.5945 11.418L33.8505 11.1588H41.3586H48.8668L49.126 11.4148ZM37.2643 26.2499V27.305H38.3194H39.3744V26.2499V25.1947H38.3194H37.2643V26.2499ZM73.5777 26.2499V27.305H74.6083H75.6388V26.2499V25.1947H74.6083H73.5777V26.2499ZM85.6495 30.2742V31.3293H86.7045H87.7596V30.2742V29.219H86.7045H85.6495V30.2742ZM45.3612 34.2984V35.3536H46.3918H47.4223V34.2984V33.2433H46.3918H45.3612V34.2984ZM11.0598 43.0725V46.8654L10.8006 47.1213L10.5414 47.3773H8.40126C6.40054 47.3773 6.24037 47.3837 5.94368 47.4754C5.76913 47.5293 5.56744 47.6197 5.4955 47.6763C5.3393 47.7992 5.1806 48.0956 5.09061 48.4325C5.03623 48.636 5.025 54.3642 5.02451 82.027L5.02392 115.376L4.76477 115.632L4.50557 115.888H2.75281H1V116.943V117.998H60.5H120V116.943V115.888H118.244H116.488L116.232 115.629L115.976 115.37L115.975 82.0238C115.975 54.3636 115.964 48.636 115.909 48.4325C115.819 48.0956 115.661 47.7992 115.504 47.6763C115.433 47.6197 115.231 47.5293 115.056 47.4754C114.778 47.3893 114.6 47.3773 113.602 47.3773H112.464L112.208 47.1182L111.952 46.8589V45.106V43.3531H110.897H109.842V45.1092V46.8654L109.583 47.1213L109.324 47.3773H106.845H104.367L104.111 47.1182L103.855 46.8589V45.106V43.3531H102.825H101.794V45.1092V46.8654L101.535 47.1213L101.276 47.3773H94.0813C86.9933 47.3773 86.8818 47.3788 86.5646 47.4768C86.1615 47.6013 85.9476 47.798 85.7918 48.1871L85.674 48.4815L85.6611 57.0331L85.6481 65.5847H86.7038H87.7596V57.7676V49.9505L88.0187 49.6945L88.2779 49.4385H100.816H113.354L113.61 49.6977L113.866 49.9569V53.4415V56.9261L113.607 57.182L113.348 57.438H104.553H95.7584V58.4932V59.5483H104.556H113.354L113.61 59.8075L113.866 60.0667V62.5207V64.9746L113.607 65.2306L113.348 65.4866H109.583H105.818V66.5417V67.5969H109.586H113.354L113.61 67.856L113.866 68.1153V70.5938V73.0722L113.607 73.3282L113.348 73.5842H109.583H105.818V74.6148V75.6454H109.586H113.354L113.61 75.9046L113.866 76.1638V78.6423V81.1208L113.607 81.3768L113.348 81.6328H109.583H105.818V82.6879V83.743H109.586H113.354L113.61 84.0022L113.866 84.2614V86.7154V89.1693L113.607 89.4253L113.348 89.6813H108.577H103.806V90.7365V91.7916H108.58H113.354L113.61 92.0508L113.866 92.31V94.7885V97.267L113.607 97.5229L113.348 97.7789H108.577H103.806V98.8095V99.8401H108.58H113.354L113.61 100.099L113.866 100.359V102.837V105.316L113.607 105.572L113.348 105.827H108.577H103.806V106.883V107.938H108.58H113.354L113.61 108.197L113.866 108.456V111.916V115.376L113.607 115.632L113.348 115.888H104.833H96.3193L96.0634 115.629L95.8074 115.37V99.8124V84.255L96.065 84.0026L96.3227 83.7502L97.5249 83.7317C98.6478 83.7145 98.7467 83.7056 99.0217 83.5976C99.428 83.438 99.6037 83.2481 99.73 82.8319C99.8327 82.493 99.8331 82.4676 99.82 76.5288L99.8068 70.566L99.6494 70.2336C99.5006 69.9195 99.475 69.8932 99.1832 69.7551C99.0134 69.6748 98.8082 69.609 98.7272 69.609C98.6462 69.609 90.5089 70.5042 80.6441 71.5984C66.7148 73.1434 62.6332 73.611 62.3724 73.6918C61.9562 73.8207 61.7559 74.0025 61.5993 74.394L61.4814 74.6884L61.4655 78.4428C61.4484 82.4744 61.456 82.6293 61.6937 83.1051C61.8056 83.3292 61.8696 83.3937 62.0878 83.5028C62.4852 83.7014 62.8052 83.743 63.9326 83.743H64.9689L65.2249 84.0022L65.4808 84.2614V99.8188V115.376L65.2217 115.632L64.9625 115.888H59.4908H54.0191L53.7636 115.629L53.5081 115.371L53.4954 95.0541L53.4827 74.7375L53.3743 74.4534C53.2152 74.0366 53.1046 73.91 52.761 73.7514L52.4522 73.6087L47.1776 73.5956L41.903 73.5825L41.6447 73.3273L41.3864 73.0722L41.3861 71.8682C41.3858 70.4689 41.324 69.9487 41.0673 69.1814C40.542 67.6114 39.6206 66.5911 38.1967 66.0026C37.9876 65.9162 37.789 65.7841 37.6201 65.619L37.3625 65.3672V63.4148V61.4623H36.3074H35.2524V63.415V65.3676L35.0149 65.6015C34.8489 65.765 34.6017 65.9209 34.193 66.1199C32.9951 66.7028 32.324 67.3846 31.7863 68.5648C31.3586 69.5033 31.2291 70.2761 31.2287 71.8927L31.2285 73.0722L30.9708 73.3256L30.7132 73.5789L29.4864 73.5947C28.3466 73.6094 28.2399 73.6184 27.9825 73.7217C27.6334 73.8617 27.4826 74.0123 27.3411 74.3622L27.2291 74.6393L27.2165 95.0049L27.2039 115.37L26.9483 115.629L26.6926 115.888H17.1693H7.64594L7.38998 115.629L7.13402 115.37V111.91V108.45L7.39317 108.194L7.65237 107.938H13.429H19.2058V106.883V105.827H13.4259H7.64594L7.38998 105.568L7.13402 105.309V102.831V100.352L7.39317 100.096L7.65237 99.8401H12.4231H17.1938V98.8095V97.7789H12.4199H7.64594L7.38998 97.5198L7.13402 97.2605V94.782V92.3036L7.39317 92.0476L7.65237 91.7916H12.4231H17.1938V90.7365V89.6813H12.4199H7.64594L7.38998 89.4221L7.13402 89.1629V86.7089V84.255L7.39317 83.999L7.65237 83.743H13.429H19.2058V82.6879V81.6328H13.4259H7.64594L7.38998 81.3736L7.13402 81.1144V78.6358V76.1574L7.39317 75.9014L7.65237 75.6454H12.4231H17.1938V74.6148V73.5842H12.4199H7.64594L7.38998 73.325L7.13402 73.0658V70.5873V68.1088L7.39317 67.8528L7.65237 67.5969H15.441H23.2297V66.5417V65.4866H15.4378H7.64594L7.38998 65.2274L7.13402 64.9682V62.5142V60.0603L7.39317 59.8043L7.65237 59.5483H16.447H25.2416V58.4932V57.438H16.4438H7.64594L7.38998 57.1788L7.13402 56.9196V53.435V49.9505L7.39317 49.6945L7.65237 49.4385H21.1964H34.7405L34.9964 49.6977L35.2524 49.9569V52.7405V55.524H36.309H37.3656L37.3518 52.0028L37.3379 48.4815L37.2201 48.1871C37.0644 47.798 36.8504 47.6013 36.4474 47.4768C36.1301 47.3788 36.0187 47.3773 28.9275 47.3773H21.7297L21.4737 47.1182L21.2177 46.8589V45.106V43.3531H20.1872H19.1567V45.1092V46.8654L18.8976 47.1213L18.6384 47.3773H16.1601H13.6818L13.4259 47.1182L13.1699 46.8589V43.0693V39.2797H12.1148H11.0598V43.0725ZM35.2524 40.3348V41.39H36.3074H37.3625V40.3348V39.2797H36.3074H35.2524V40.3348ZM81.6256 40.3348V41.39H82.6806H83.7357V40.3348V39.2797H82.6806H81.6256V40.3348ZM61.3113 43.4554C53.9216 45.7312 47.9987 47.58 47.8857 47.6463C47.7279 47.7387 47.6518 47.8331 47.5405 48.0742L47.3977 48.3834L47.385 57.9901L47.3722 67.5969H48.4032H49.4342V58.5285V49.46L49.7164 49.1835L49.9986 48.907L61.0214 45.5165L72.0442 42.1261H72.555H73.0658L73.3218 42.3853L73.5777 42.6445V46.7671V50.8896L73.3186 51.1456L73.0594 51.4016H69.2701H65.4808V52.4568V53.5119H69.2733H73.0658L73.3218 53.7711L73.5777 54.0303V56.4843V58.9382L73.3186 59.1942L73.0594 59.4502H66.2522H59.4449V60.5053V61.5604H66.2554H73.0658L73.3218 61.8196L73.5777 62.0788V63.8318V65.5847H74.6083H75.6388V53.05C75.6388 40.9518 75.6356 40.5051 75.5471 40.221C75.4968 40.0591 75.4079 39.8598 75.3497 39.778C75.2416 39.6261 74.7841 39.3757 74.6236 39.3805C74.5746 39.382 68.5841 41.2157 61.3113 43.4554ZM37.28 67.6702C37.7417 67.7905 37.9506 67.9275 38.4684 68.4498C38.8087 68.793 39.0059 69.0375 39.1063 69.2409L39.2518 69.5354L39.2664 71.2982L39.281 73.061L39.0227 73.3226L38.7644 73.5842H36.3074H33.8505L33.5921 73.3226L33.3338 73.061L33.3485 71.3228L33.3631 69.5845L33.5191 69.2551C33.6297 69.0216 33.7964 68.8001 34.0915 68.4944C34.5531 68.0161 34.8961 67.784 35.3014 67.6755C35.6759 67.5753 36.9031 67.572 37.28 67.6702ZM97.5112 72.1225L97.7703 72.3785V76.7464V81.1144L97.5144 81.3736L97.2584 81.6328H80.6719H64.0854L63.8262 81.3768L63.567 81.1208V78.5409V75.9611L63.8264 75.7049L64.0857 75.4488L80.106 73.6631C90.9732 72.4518 96.3074 71.8756 96.6892 71.872L97.252 71.8665L97.5112 72.1225ZM51.138 75.9014L51.3971 76.1574V95.7636V115.37L51.1412 115.629L50.8852 115.888H40.3591H29.833L29.5738 115.632L29.3146 115.376V95.77V76.1638L29.5706 75.9046L29.8266 75.6454H40.3526H50.8788L51.138 75.9014ZM35.2524 95.7913V107.938H36.3074H37.3625V95.7913V83.6449H36.3074H35.2524V95.7913ZM43.3493 95.7913V107.938H44.3798H45.4103V95.7913V83.6449H44.3798H43.3493V95.7913ZM93.4382 83.999L93.6973 84.255V99.8124V115.37L93.4414 115.629L93.1854 115.888H80.6474H68.1093L67.8501 115.632L67.5909 115.376V99.8188V84.2614L67.8469 84.0022L68.1029 83.743H80.6409H93.179L93.4382 83.999ZM75.5897 90.7365V91.7916H76.6202H77.6507V90.7365V89.6813H76.6202H75.5897V90.7365ZM83.6375 90.7365V91.7916H84.6926H85.7476V90.7365V89.6813H84.6926H83.6375V90.7365ZM75.5897 98.8095V99.8401H76.6202H77.6507V98.8095V97.7789H76.6202H75.5897V98.8095ZM83.6375 98.8095V99.8401H84.6926H85.7476V98.8095V97.7789H84.6926H83.6375V98.8095ZM75.5897 106.883V107.938H76.6202H77.6507V106.883V105.827H76.6202H75.5897V106.883ZM83.6375 106.883V107.938H84.6926H85.7476V106.883V105.827H84.6926H83.6375V106.883Z" stroke="#389AE0" stroke-width="0.8" mask="url(#path-1-outside-1_733_68)"/>
</svg>
