<svg width="121" height="121" viewBox="0 0 121 121" fill="none" xmlns="http://www.w3.org/2000/svg">
<mask id="path-1-outside-1_733_114" maskUnits="userSpaceOnUse" x="0" y="0" width="121" height="121" fill="black">
<rect fill="white" width="121" height="121"/>
<path fill-rule="evenodd" clip-rule="evenodd" d="M27.2091 1.8479C21.3489 4.81985 23.6655 13.8469 30.2822 13.8233C33.4318 13.8118 36.1153 11.4559 36.5907 8.28515C36.9118 6.14548 35.5708 3.18033 33.7825 2.07492C31.7319 0.807564 29.4178 0.727482 27.2091 1.8479ZM104.321 1.67022C103.999 2.27083 104.172 2.63263 105.427 3.99401C106.965 5.66285 108.344 6.099 108.748 5.04436C109.039 4.28609 108.53 3.42272 107.001 2.08028C105.52 0.779678 104.852 0.677432 104.321 1.67022ZM116.815 2.26797C115.716 3.26041 115.391 3.80131 115.473 4.50238C115.632 5.86877 116.851 5.88092 118.388 4.53205C119.856 3.24325 120.29 2.21542 119.678 1.47789C119.011 0.675286 118.387 0.847961 116.815 2.26797ZM82.6206 3.38625C82.3858 3.53569 82.0383 4.34901 81.8484 5.1938C81.2993 7.63699 79.4438 9.18141 77.0579 9.18141C75.3594 9.18141 72.2076 10.8485 71.3889 12.1805C69.9271 14.5572 69.7215 17.0841 70.9513 17.556C71.7861 17.8763 72.3835 17.2103 72.6269 15.688C72.9659 13.568 74.7573 12.0726 77.4064 11.6979C81.5124 11.1177 83.6839 9.15067 84.4128 5.35217C84.7117 3.79381 83.7089 2.69412 82.6206 3.38625ZM32.8602 4.84916C34.3874 6.37678 34.6016 7.4611 33.7139 9.17748C32.4573 11.6071 29.7567 12.0697 27.6467 10.2168C26.5713 9.27258 26.3829 8.88039 26.3829 7.58372C26.3829 5.16663 27.9974 3.53819 30.447 3.48385C31.1792 3.46776 31.8688 3.85816 32.8602 4.84916ZM51.6557 11.0976C51.5531 11.3647 52.0271 12.9731 52.7089 14.6713C54.6037 19.39 55.0806 22.191 54.8786 27.4142C54.7527 30.6653 54.4885 32.5648 53.9097 34.3855C52.5534 38.6495 49.8306 43.5019 48.7935 43.5019C48.5554 43.5019 46.0296 41.1581 43.181 38.2938C40.3324 35.4291 37.5674 32.8551 37.0366 32.5737C35.7653 31.8998 33.4093 31.9227 32.0572 32.6216C31.4573 32.9319 30.7487 33.7213 30.4688 34.3913C28.7685 38.4604 1 114.763 1 115.366C1 117.521 3.46965 120.008 5.61003 120.008C6.30324 120.008 84.2173 91.6114 86.6383 90.4764C89.1022 89.3209 89.7325 85.7816 87.9114 83.328C87.3422 82.5612 84.6877 79.7641 82.0125 77.1125C79.3373 74.4608 77.1487 72.0352 77.1487 71.7227C77.1487 70.426 81.9299 67.2764 86.2983 65.6959C94.3079 62.7976 102.403 62.8609 110.173 65.8829C114.595 67.6025 114.909 67.6611 115.345 66.8456C115.827 65.9454 115.535 65.564 113.621 64.5933C102.497 58.9519 87.9993 60.1799 77.2209 67.6765C75.9825 68.5377 74.7713 69.2423 74.5292 69.2423C74.0087 69.2423 69.6411 64.9151 69.6411 64.3992C69.6411 64.204 71.1694 62.5223 73.0374 60.6622C76.5323 57.1819 77.1744 55.9403 75.7183 55.4784C74.802 55.1874 73.7495 55.9556 70.365 59.3845C68.8953 60.8738 67.5289 62.0922 67.3291 62.0922C66.9351 62.0922 51.0508 46.3427 51.0508 45.9519C51.0508 45.8214 51.7772 44.5362 52.6653 43.0962C58.2931 33.968 59.036 22.6047 54.6394 12.9081C53.77 10.9904 53.4532 10.6114 52.7203 10.6114C52.2373 10.6114 51.7583 10.8302 51.6557 11.0976ZM105.791 13.2977C104.21 14.7256 103.799 15.7602 104.523 16.4849C105.248 17.2092 106.283 16.7977 107.71 15.2175C109.128 13.6481 109.196 13.3939 108.405 12.6031C107.614 11.8123 107.36 11.8799 105.791 13.2977ZM115.849 12.2781C114.902 12.6603 115.411 14.1039 117.014 15.5815C118.375 16.8363 118.737 17.0086 119.338 16.6872C120.42 16.1077 120.202 15.318 118.488 13.603C116.934 12.05 116.703 11.9335 115.849 12.2781ZM102.973 25.2617C99.836 26.0056 97.717 28.6883 97.2816 32.4675C97.0932 34.1006 96.8365 34.6111 95.553 35.9049C94.4448 37.0218 93.7605 37.4243 92.9697 37.4243C91.6813 37.4243 90.9452 38.1883 91.2648 39.1947C91.816 40.9315 96.4733 39.4507 98.2729 36.9664C98.8364 36.1888 99.3816 35.0083 99.4845 34.3434C99.5875 33.6784 99.7652 32.539 99.8799 31.8112C100.164 30.0097 102.274 27.9179 104.158 27.5711C106.089 27.2158 106.566 26.4943 105.545 25.4733C104.935 24.8634 104.725 24.8462 102.973 25.2617ZM71.5398 26.8747C69.2946 28.0116 68.2078 29.891 68.2168 32.6216C68.2414 39.9419 78.8304 41.2386 80.7377 34.155C81.4605 31.4708 80.0877 28.1585 77.7525 26.9527C75.5431 25.8115 73.6855 25.7883 71.5398 26.8747ZM77.2001 29.7873C79.7938 32.2723 78.1125 36.3518 74.4942 36.3518C72.4217 36.3518 70.7136 34.6462 70.7136 32.5762C70.7136 30.9621 71.6728 29.3848 72.9973 28.8206C74.2096 28.304 76.1076 28.7405 77.2001 29.7873ZM60.9705 60.0355C87.7988 86.862 87.4441 86.4637 85.8182 87.9277C85.4743 88.2377 81.7669 89.7385 77.5798 91.2629L69.9667 94.0343L62.7233 86.8223C58.7393 82.8554 55.3197 79.61 55.1242 79.61C54.5858 79.61 53.9108 80.3979 53.9108 81.0261C53.9108 81.3332 56.6457 84.3155 59.9884 87.6539C63.3311 90.9922 66.066 93.9821 66.066 94.2978C66.066 95.223 65.0174 95.8926 61.6386 97.1242L58.4626 98.2822L40.5762 80.3961L22.6902 62.5098L23.8686 59.3516C25.1284 55.976 25.7944 54.9421 26.7104 54.9421C27.026 54.9421 30.0159 57.677 33.3542 61.0197C36.6926 64.3624 39.6875 67.0973 40.0099 67.0973C40.9259 67.0973 41.5122 66.1864 41.0882 65.422C40.8905 65.0652 37.6618 61.7183 33.9134 57.9845C30.1649 54.2503 27.0979 51.0571 27.0979 50.8884C27.0979 50.1204 32.5706 35.7505 33.0754 35.1921C34.5455 33.5679 34.1404 33.2076 60.9705 60.0355ZM110.489 40.1267C108.335 41.2 107.179 43.1283 107.179 45.647C107.179 51.2008 113.577 54.0598 117.888 50.4325C121.176 47.6651 120.311 41.7001 116.361 39.9065C114.321 38.9806 112.664 39.0428 110.489 40.1267ZM115.414 42.2567C116.543 42.8409 117.547 44.4357 117.547 45.647C117.547 46.7492 116.639 48.3165 115.611 48.9904C113.134 50.6134 109.682 48.6672 109.682 45.647C109.682 44.4161 109.901 43.9263 110.897 42.9299C112.266 41.5607 113.665 41.3523 115.414 42.2567ZM82.5652 47.4538C81.1098 48.339 80.4363 49.6961 81.0723 50.4626C81.7748 51.3091 82.6239 51.1175 83.8712 49.8305C85.1618 48.4991 85.3191 47.6229 84.3599 47.1099C83.8791 46.8525 83.4047 46.9433 82.5652 47.4538ZM38.8048 82.2005C47.5065 90.9004 54.6258 98.2972 54.6258 98.6375C54.6258 98.9779 54.264 99.4898 53.8214 99.7751C52.9212 100.356 38.3979 105.708 37.7226 105.708C37.1484 105.708 15.3002 83.8525 15.3002 83.278C15.3002 82.588 20.641 68.0965 21.2305 67.1867C21.5172 66.7441 22.0288 66.3823 22.3677 66.3823C22.7063 66.3823 30.1031 73.5006 38.8048 82.2005ZM46.8501 72.339C46.1987 72.6018 46.3031 74.2313 46.9881 74.4944C47.6105 74.7333 48.6011 74.2678 48.811 73.6379C48.9429 73.2425 47.9633 72.0813 47.5397 72.1306C47.406 72.146 47.096 72.24 46.8501 72.339ZM104.199 84.3215C104.045 84.9118 104.369 85.4741 105.54 86.6453C107.232 88.3378 107.576 88.4579 108.39 87.6435C109.07 86.9632 108.815 86.1963 107.415 84.7044C106.095 83.2991 104.515 83.111 104.199 84.3215ZM116.726 84.8982C115.335 86.3222 115.016 87.6081 115.964 87.9717C116.693 88.2516 117.448 87.8223 118.923 86.2889C119.814 85.3623 120.059 84.8521 119.882 84.2933C119.511 83.1246 118.215 83.3731 116.726 84.8982ZM24.3658 96.7195C31.0587 103.416 33.5691 106.15 33.4747 106.64C33.3324 107.38 32.1262 108.015 28.4235 109.299L25.9957 110.141L18.5028 102.654C14.3818 98.5367 11.0102 95.0171 11.0102 94.8329C11.0102 94.2885 13.2156 88.4082 13.6024 87.922C13.798 87.6764 14.2209 87.4751 14.5423 87.4751C14.8637 87.4751 19.2843 91.635 24.3658 96.7195ZM105.427 96.2376C104.172 97.599 103.999 97.9608 104.321 98.5614C104.92 99.6807 105.894 99.4051 107.502 97.6604C108.756 96.2991 108.929 95.9373 108.607 95.3367C108.008 94.2173 107.034 94.493 105.427 96.2376ZM115.64 94.8637C114.766 95.7374 117.204 99.2728 118.68 99.2728C119.505 99.2728 120.143 98.3451 119.883 97.5246C119.377 95.9301 116.425 94.079 115.64 94.8637ZM16.4582 104.542C19.557 107.636 22.0928 110.347 22.0928 110.564C22.0928 110.782 21.8115 111.209 21.4672 111.513C20.8637 112.048 6.37259 117.506 5.55784 117.506C4.98762 117.506 3.50254 116.041 3.50254 115.479C3.50254 114.595 8.91624 100.17 9.4836 99.5409C9.79428 99.197 10.2229 98.9153 10.436 98.9153C10.6491 98.9153 13.359 101.447 16.4582 104.542Z"/>
</mask>
<path fill-rule="evenodd" clip-rule="evenodd" d="M27.2091 1.8479C21.3489 4.81985 23.6655 13.8469 30.2822 13.8233C33.4318 13.8118 36.1153 11.4559 36.5907 8.28515C36.9118 6.14548 35.5708 3.18033 33.7825 2.07492C31.7319 0.807564 29.4178 0.727482 27.2091 1.8479ZM104.321 1.67022C103.999 2.27083 104.172 2.63263 105.427 3.99401C106.965 5.66285 108.344 6.099 108.748 5.04436C109.039 4.28609 108.53 3.42272 107.001 2.08028C105.52 0.779678 104.852 0.677432 104.321 1.67022ZM116.815 2.26797C115.716 3.26041 115.391 3.80131 115.473 4.50238C115.632 5.86877 116.851 5.88092 118.388 4.53205C119.856 3.24325 120.29 2.21542 119.678 1.47789C119.011 0.675286 118.387 0.847961 116.815 2.26797ZM82.6206 3.38625C82.3858 3.53569 82.0383 4.34901 81.8484 5.1938C81.2993 7.63699 79.4438 9.18141 77.0579 9.18141C75.3594 9.18141 72.2076 10.8485 71.3889 12.1805C69.9271 14.5572 69.7215 17.0841 70.9513 17.556C71.7861 17.8763 72.3835 17.2103 72.6269 15.688C72.9659 13.568 74.7573 12.0726 77.4064 11.6979C81.5124 11.1177 83.6839 9.15067 84.4128 5.35217C84.7117 3.79381 83.7089 2.69412 82.6206 3.38625ZM32.8602 4.84916C34.3874 6.37678 34.6016 7.4611 33.7139 9.17748C32.4573 11.6071 29.7567 12.0697 27.6467 10.2168C26.5713 9.27258 26.3829 8.88039 26.3829 7.58372C26.3829 5.16663 27.9974 3.53819 30.447 3.48385C31.1792 3.46776 31.8688 3.85816 32.8602 4.84916ZM51.6557 11.0976C51.5531 11.3647 52.0271 12.9731 52.7089 14.6713C54.6037 19.39 55.0806 22.191 54.8786 27.4142C54.7527 30.6653 54.4885 32.5648 53.9097 34.3855C52.5534 38.6495 49.8306 43.5019 48.7935 43.5019C48.5554 43.5019 46.0296 41.1581 43.181 38.2938C40.3324 35.4291 37.5674 32.8551 37.0366 32.5737C35.7653 31.8998 33.4093 31.9227 32.0572 32.6216C31.4573 32.9319 30.7487 33.7213 30.4688 34.3913C28.7685 38.4604 1 114.763 1 115.366C1 117.521 3.46965 120.008 5.61003 120.008C6.30324 120.008 84.2173 91.6114 86.6383 90.4764C89.1022 89.3209 89.7325 85.7816 87.9114 83.328C87.3422 82.5612 84.6877 79.7641 82.0125 77.1125C79.3373 74.4608 77.1487 72.0352 77.1487 71.7227C77.1487 70.426 81.9299 67.2764 86.2983 65.6959C94.3079 62.7976 102.403 62.8609 110.173 65.8829C114.595 67.6025 114.909 67.6611 115.345 66.8456C115.827 65.9454 115.535 65.564 113.621 64.5933C102.497 58.9519 87.9993 60.1799 77.2209 67.6765C75.9825 68.5377 74.7713 69.2423 74.5292 69.2423C74.0087 69.2423 69.6411 64.9151 69.6411 64.3992C69.6411 64.204 71.1694 62.5223 73.0374 60.6622C76.5323 57.1819 77.1744 55.9403 75.7183 55.4784C74.802 55.1874 73.7495 55.9556 70.365 59.3845C68.8953 60.8738 67.5289 62.0922 67.3291 62.0922C66.9351 62.0922 51.0508 46.3427 51.0508 45.9519C51.0508 45.8214 51.7772 44.5362 52.6653 43.0962C58.2931 33.968 59.036 22.6047 54.6394 12.9081C53.77 10.9904 53.4532 10.6114 52.7203 10.6114C52.2373 10.6114 51.7583 10.8302 51.6557 11.0976ZM105.791 13.2977C104.21 14.7256 103.799 15.7602 104.523 16.4849C105.248 17.2092 106.283 16.7977 107.71 15.2175C109.128 13.6481 109.196 13.3939 108.405 12.6031C107.614 11.8123 107.36 11.8799 105.791 13.2977ZM115.849 12.2781C114.902 12.6603 115.411 14.1039 117.014 15.5815C118.375 16.8363 118.737 17.0086 119.338 16.6872C120.42 16.1077 120.202 15.318 118.488 13.603C116.934 12.05 116.703 11.9335 115.849 12.2781ZM102.973 25.2617C99.836 26.0056 97.717 28.6883 97.2816 32.4675C97.0932 34.1006 96.8365 34.6111 95.553 35.9049C94.4448 37.0218 93.7605 37.4243 92.9697 37.4243C91.6813 37.4243 90.9452 38.1883 91.2648 39.1947C91.816 40.9315 96.4733 39.4507 98.2729 36.9664C98.8364 36.1888 99.3816 35.0083 99.4845 34.3434C99.5875 33.6784 99.7652 32.539 99.8799 31.8112C100.164 30.0097 102.274 27.9179 104.158 27.5711C106.089 27.2158 106.566 26.4943 105.545 25.4733C104.935 24.8634 104.725 24.8462 102.973 25.2617ZM71.5398 26.8747C69.2946 28.0116 68.2078 29.891 68.2168 32.6216C68.2414 39.9419 78.8304 41.2386 80.7377 34.155C81.4605 31.4708 80.0877 28.1585 77.7525 26.9527C75.5431 25.8115 73.6855 25.7883 71.5398 26.8747ZM77.2001 29.7873C79.7938 32.2723 78.1125 36.3518 74.4942 36.3518C72.4217 36.3518 70.7136 34.6462 70.7136 32.5762C70.7136 30.9621 71.6728 29.3848 72.9973 28.8206C74.2096 28.304 76.1076 28.7405 77.2001 29.7873ZM60.9705 60.0355C87.7988 86.862 87.4441 86.4637 85.8182 87.9277C85.4743 88.2377 81.7669 89.7385 77.5798 91.2629L69.9667 94.0343L62.7233 86.8223C58.7393 82.8554 55.3197 79.61 55.1242 79.61C54.5858 79.61 53.9108 80.3979 53.9108 81.0261C53.9108 81.3332 56.6457 84.3155 59.9884 87.6539C63.3311 90.9922 66.066 93.9821 66.066 94.2978C66.066 95.223 65.0174 95.8926 61.6386 97.1242L58.4626 98.2822L40.5762 80.3961L22.6902 62.5098L23.8686 59.3516C25.1284 55.976 25.7944 54.9421 26.7104 54.9421C27.026 54.9421 30.0159 57.677 33.3542 61.0197C36.6926 64.3624 39.6875 67.0973 40.0099 67.0973C40.9259 67.0973 41.5122 66.1864 41.0882 65.422C40.8905 65.0652 37.6618 61.7183 33.9134 57.9845C30.1649 54.2503 27.0979 51.0571 27.0979 50.8884C27.0979 50.1204 32.5706 35.7505 33.0754 35.1921C34.5455 33.5679 34.1404 33.2076 60.9705 60.0355ZM110.489 40.1267C108.335 41.2 107.179 43.1283 107.179 45.647C107.179 51.2008 113.577 54.0598 117.888 50.4325C121.176 47.6651 120.311 41.7001 116.361 39.9065C114.321 38.9806 112.664 39.0428 110.489 40.1267ZM115.414 42.2567C116.543 42.8409 117.547 44.4357 117.547 45.647C117.547 46.7492 116.639 48.3165 115.611 48.9904C113.134 50.6134 109.682 48.6672 109.682 45.647C109.682 44.4161 109.901 43.9263 110.897 42.9299C112.266 41.5607 113.665 41.3523 115.414 42.2567ZM82.5652 47.4538C81.1098 48.339 80.4363 49.6961 81.0723 50.4626C81.7748 51.3091 82.6239 51.1175 83.8712 49.8305C85.1618 48.4991 85.3191 47.6229 84.3599 47.1099C83.8791 46.8525 83.4047 46.9433 82.5652 47.4538ZM38.8048 82.2005C47.5065 90.9004 54.6258 98.2972 54.6258 98.6375C54.6258 98.9779 54.264 99.4898 53.8214 99.7751C52.9212 100.356 38.3979 105.708 37.7226 105.708C37.1484 105.708 15.3002 83.8525 15.3002 83.278C15.3002 82.588 20.641 68.0965 21.2305 67.1867C21.5172 66.7441 22.0288 66.3823 22.3677 66.3823C22.7063 66.3823 30.1031 73.5006 38.8048 82.2005ZM46.8501 72.339C46.1987 72.6018 46.3031 74.2313 46.9881 74.4944C47.6105 74.7333 48.6011 74.2678 48.811 73.6379C48.9429 73.2425 47.9633 72.0813 47.5397 72.1306C47.406 72.146 47.096 72.24 46.8501 72.339ZM104.199 84.3215C104.045 84.9118 104.369 85.4741 105.54 86.6453C107.232 88.3378 107.576 88.4579 108.39 87.6435C109.07 86.9632 108.815 86.1963 107.415 84.7044C106.095 83.2991 104.515 83.111 104.199 84.3215ZM116.726 84.8982C115.335 86.3222 115.016 87.6081 115.964 87.9717C116.693 88.2516 117.448 87.8223 118.923 86.2889C119.814 85.3623 120.059 84.8521 119.882 84.2933C119.511 83.1246 118.215 83.3731 116.726 84.8982ZM24.3658 96.7195C31.0587 103.416 33.5691 106.15 33.4747 106.64C33.3324 107.38 32.1262 108.015 28.4235 109.299L25.9957 110.141L18.5028 102.654C14.3818 98.5367 11.0102 95.0171 11.0102 94.8329C11.0102 94.2885 13.2156 88.4082 13.6024 87.922C13.798 87.6764 14.2209 87.4751 14.5423 87.4751C14.8637 87.4751 19.2843 91.635 24.3658 96.7195ZM105.427 96.2376C104.172 97.599 103.999 97.9608 104.321 98.5614C104.92 99.6807 105.894 99.4051 107.502 97.6604C108.756 96.2991 108.929 95.9373 108.607 95.3367C108.008 94.2173 107.034 94.493 105.427 96.2376ZM115.64 94.8637C114.766 95.7374 117.204 99.2728 118.68 99.2728C119.505 99.2728 120.143 98.3451 119.883 97.5246C119.377 95.9301 116.425 94.079 115.64 94.8637ZM16.4582 104.542C19.557 107.636 22.0928 110.347 22.0928 110.564C22.0928 110.782 21.8115 111.209 21.4672 111.513C20.8637 112.048 6.37259 117.506 5.55784 117.506C4.98762 117.506 3.50254 116.041 3.50254 115.479C3.50254 114.595 8.91624 100.17 9.4836 99.5409C9.79428 99.197 10.2229 98.9153 10.436 98.9153C10.6491 98.9153 13.359 101.447 16.4582 104.542Z" fill="#389AE0"/>
<path fill-rule="evenodd" clip-rule="evenodd" d="M27.2091 1.8479C21.3489 4.81985 23.6655 13.8469 30.2822 13.8233C33.4318 13.8118 36.1153 11.4559 36.5907 8.28515C36.9118 6.14548 35.5708 3.18033 33.7825 2.07492C31.7319 0.807564 29.4178 0.727482 27.2091 1.8479ZM104.321 1.67022C103.999 2.27083 104.172 2.63263 105.427 3.99401C106.965 5.66285 108.344 6.099 108.748 5.04436C109.039 4.28609 108.53 3.42272 107.001 2.08028C105.52 0.779678 104.852 0.677432 104.321 1.67022ZM116.815 2.26797C115.716 3.26041 115.391 3.80131 115.473 4.50238C115.632 5.86877 116.851 5.88092 118.388 4.53205C119.856 3.24325 120.29 2.21542 119.678 1.47789C119.011 0.675286 118.387 0.847961 116.815 2.26797ZM82.6206 3.38625C82.3858 3.53569 82.0383 4.34901 81.8484 5.1938C81.2993 7.63699 79.4438 9.18141 77.0579 9.18141C75.3594 9.18141 72.2076 10.8485 71.3889 12.1805C69.9271 14.5572 69.7215 17.0841 70.9513 17.556C71.7861 17.8763 72.3835 17.2103 72.6269 15.688C72.9659 13.568 74.7573 12.0726 77.4064 11.6979C81.5124 11.1177 83.6839 9.15067 84.4128 5.35217C84.7117 3.79381 83.7089 2.69412 82.6206 3.38625ZM32.8602 4.84916C34.3874 6.37678 34.6016 7.4611 33.7139 9.17748C32.4573 11.6071 29.7567 12.0697 27.6467 10.2168C26.5713 9.27258 26.3829 8.88039 26.3829 7.58372C26.3829 5.16663 27.9974 3.53819 30.447 3.48385C31.1792 3.46776 31.8688 3.85816 32.8602 4.84916ZM51.6557 11.0976C51.5531 11.3647 52.0271 12.9731 52.7089 14.6713C54.6037 19.39 55.0806 22.191 54.8786 27.4142C54.7527 30.6653 54.4885 32.5648 53.9097 34.3855C52.5534 38.6495 49.8306 43.5019 48.7935 43.5019C48.5554 43.5019 46.0296 41.1581 43.181 38.2938C40.3324 35.4291 37.5674 32.8551 37.0366 32.5737C35.7653 31.8998 33.4093 31.9227 32.0572 32.6216C31.4573 32.9319 30.7487 33.7213 30.4688 34.3913C28.7685 38.4604 1 114.763 1 115.366C1 117.521 3.46965 120.008 5.61003 120.008C6.30324 120.008 84.2173 91.6114 86.6383 90.4764C89.1022 89.3209 89.7325 85.7816 87.9114 83.328C87.3422 82.5612 84.6877 79.7641 82.0125 77.1125C79.3373 74.4608 77.1487 72.0352 77.1487 71.7227C77.1487 70.426 81.9299 67.2764 86.2983 65.6959C94.3079 62.7976 102.403 62.8609 110.173 65.8829C114.595 67.6025 114.909 67.6611 115.345 66.8456C115.827 65.9454 115.535 65.564 113.621 64.5933C102.497 58.9519 87.9993 60.1799 77.2209 67.6765C75.9825 68.5377 74.7713 69.2423 74.5292 69.2423C74.0087 69.2423 69.6411 64.9151 69.6411 64.3992C69.6411 64.204 71.1694 62.5223 73.0374 60.6622C76.5323 57.1819 77.1744 55.9403 75.7183 55.4784C74.802 55.1874 73.7495 55.9556 70.365 59.3845C68.8953 60.8738 67.5289 62.0922 67.3291 62.0922C66.9351 62.0922 51.0508 46.3427 51.0508 45.9519C51.0508 45.8214 51.7772 44.5362 52.6653 43.0962C58.2931 33.968 59.036 22.6047 54.6394 12.9081C53.77 10.9904 53.4532 10.6114 52.7203 10.6114C52.2373 10.6114 51.7583 10.8302 51.6557 11.0976ZM105.791 13.2977C104.21 14.7256 103.799 15.7602 104.523 16.4849C105.248 17.2092 106.283 16.7977 107.71 15.2175C109.128 13.6481 109.196 13.3939 108.405 12.6031C107.614 11.8123 107.36 11.8799 105.791 13.2977ZM115.849 12.2781C114.902 12.6603 115.411 14.1039 117.014 15.5815C118.375 16.8363 118.737 17.0086 119.338 16.6872C120.42 16.1077 120.202 15.318 118.488 13.603C116.934 12.05 116.703 11.9335 115.849 12.2781ZM102.973 25.2617C99.836 26.0056 97.717 28.6883 97.2816 32.4675C97.0932 34.1006 96.8365 34.6111 95.553 35.9049C94.4448 37.0218 93.7605 37.4243 92.9697 37.4243C91.6813 37.4243 90.9452 38.1883 91.2648 39.1947C91.816 40.9315 96.4733 39.4507 98.2729 36.9664C98.8364 36.1888 99.3816 35.0083 99.4845 34.3434C99.5875 33.6784 99.7652 32.539 99.8799 31.8112C100.164 30.0097 102.274 27.9179 104.158 27.5711C106.089 27.2158 106.566 26.4943 105.545 25.4733C104.935 24.8634 104.725 24.8462 102.973 25.2617ZM71.5398 26.8747C69.2946 28.0116 68.2078 29.891 68.2168 32.6216C68.2414 39.9419 78.8304 41.2386 80.7377 34.155C81.4605 31.4708 80.0877 28.1585 77.7525 26.9527C75.5431 25.8115 73.6855 25.7883 71.5398 26.8747ZM77.2001 29.7873C79.7938 32.2723 78.1125 36.3518 74.4942 36.3518C72.4217 36.3518 70.7136 34.6462 70.7136 32.5762C70.7136 30.9621 71.6728 29.3848 72.9973 28.8206C74.2096 28.304 76.1076 28.7405 77.2001 29.7873ZM60.9705 60.0355C87.7988 86.862 87.4441 86.4637 85.8182 87.9277C85.4743 88.2377 81.7669 89.7385 77.5798 91.2629L69.9667 94.0343L62.7233 86.8223C58.7393 82.8554 55.3197 79.61 55.1242 79.61C54.5858 79.61 53.9108 80.3979 53.9108 81.0261C53.9108 81.3332 56.6457 84.3155 59.9884 87.6539C63.3311 90.9922 66.066 93.9821 66.066 94.2978C66.066 95.223 65.0174 95.8926 61.6386 97.1242L58.4626 98.2822L40.5762 80.3961L22.6902 62.5098L23.8686 59.3516C25.1284 55.976 25.7944 54.9421 26.7104 54.9421C27.026 54.9421 30.0159 57.677 33.3542 61.0197C36.6926 64.3624 39.6875 67.0973 40.0099 67.0973C40.9259 67.0973 41.5122 66.1864 41.0882 65.422C40.8905 65.0652 37.6618 61.7183 33.9134 57.9845C30.1649 54.2503 27.0979 51.0571 27.0979 50.8884C27.0979 50.1204 32.5706 35.7505 33.0754 35.1921C34.5455 33.5679 34.1404 33.2076 60.9705 60.0355ZM110.489 40.1267C108.335 41.2 107.179 43.1283 107.179 45.647C107.179 51.2008 113.577 54.0598 117.888 50.4325C121.176 47.6651 120.311 41.7001 116.361 39.9065C114.321 38.9806 112.664 39.0428 110.489 40.1267ZM115.414 42.2567C116.543 42.8409 117.547 44.4357 117.547 45.647C117.547 46.7492 116.639 48.3165 115.611 48.9904C113.134 50.6134 109.682 48.6672 109.682 45.647C109.682 44.4161 109.901 43.9263 110.897 42.9299C112.266 41.5607 113.665 41.3523 115.414 42.2567ZM82.5652 47.4538C81.1098 48.339 80.4363 49.6961 81.0723 50.4626C81.7748 51.3091 82.6239 51.1175 83.8712 49.8305C85.1618 48.4991 85.3191 47.6229 84.3599 47.1099C83.8791 46.8525 83.4047 46.9433 82.5652 47.4538ZM38.8048 82.2005C47.5065 90.9004 54.6258 98.2972 54.6258 98.6375C54.6258 98.9779 54.264 99.4898 53.8214 99.7751C52.9212 100.356 38.3979 105.708 37.7226 105.708C37.1484 105.708 15.3002 83.8525 15.3002 83.278C15.3002 82.588 20.641 68.0965 21.2305 67.1867C21.5172 66.7441 22.0288 66.3823 22.3677 66.3823C22.7063 66.3823 30.1031 73.5006 38.8048 82.2005ZM46.8501 72.339C46.1987 72.6018 46.3031 74.2313 46.9881 74.4944C47.6105 74.7333 48.6011 74.2678 48.811 73.6379C48.9429 73.2425 47.9633 72.0813 47.5397 72.1306C47.406 72.146 47.096 72.24 46.8501 72.339ZM104.199 84.3215C104.045 84.9118 104.369 85.4741 105.54 86.6453C107.232 88.3378 107.576 88.4579 108.39 87.6435C109.07 86.9632 108.815 86.1963 107.415 84.7044C106.095 83.2991 104.515 83.111 104.199 84.3215ZM116.726 84.8982C115.335 86.3222 115.016 87.6081 115.964 87.9717C116.693 88.2516 117.448 87.8223 118.923 86.2889C119.814 85.3623 120.059 84.8521 119.882 84.2933C119.511 83.1246 118.215 83.3731 116.726 84.8982ZM24.3658 96.7195C31.0587 103.416 33.5691 106.15 33.4747 106.64C33.3324 107.38 32.1262 108.015 28.4235 109.299L25.9957 110.141L18.5028 102.654C14.3818 98.5367 11.0102 95.0171 11.0102 94.8329C11.0102 94.2885 13.2156 88.4082 13.6024 87.922C13.798 87.6764 14.2209 87.4751 14.5423 87.4751C14.8637 87.4751 19.2843 91.635 24.3658 96.7195ZM105.427 96.2376C104.172 97.599 103.999 97.9608 104.321 98.5614C104.92 99.6807 105.894 99.4051 107.502 97.6604C108.756 96.2991 108.929 95.9373 108.607 95.3367C108.008 94.2173 107.034 94.493 105.427 96.2376ZM115.64 94.8637C114.766 95.7374 117.204 99.2728 118.68 99.2728C119.505 99.2728 120.143 98.3451 119.883 97.5246C119.377 95.9301 116.425 94.079 115.64 94.8637ZM16.4582 104.542C19.557 107.636 22.0928 110.347 22.0928 110.564C22.0928 110.782 21.8115 111.209 21.4672 111.513C20.8637 112.048 6.37259 117.506 5.55784 117.506C4.98762 117.506 3.50254 116.041 3.50254 115.479C3.50254 114.595 8.91624 100.17 9.4836 99.5409C9.79428 99.197 10.2229 98.9153 10.436 98.9153C10.6491 98.9153 13.359 101.447 16.4582 104.542Z" stroke="#389AE0" stroke-width="0.8" mask="url(#path-1-outside-1_733_114)"/>
</svg>
