<?xml version="1.0" encoding="UTF-8"?>
<svg xmlns="http://www.w3.org/2000/svg" xmlns:xlink="http://www.w3.org/1999/xlink" width="18px" height="18px" viewBox="0 0 18 18" version="1.1">
<g id="surface1">
<path style="fill:#0094F7;" d="M 14.738281 6.78125 L 11.109375 6.464844 L 9.691406 3.128906 C 9.433594 2.519531 8.566406 2.519531 8.308594 3.128906 L 6.890625 6.472656 L 3.269531 6.78125 C 2.609375 6.832031 2.339844 7.65625 2.84375 8.09375 L 5.59375 10.476562 L 4.769531 14.015625 C 4.621094 14.664062 5.316406 15.171875 5.886719 14.828125 L 9 12.953125 L 12.113281 14.835938 C 12.683594 15.179688 13.378906 14.671875 13.230469 14.023438 L 12.40625 10.476562 L 15.15625 8.09375 C 15.660156 7.65625 15.398438 6.832031 14.738281 6.78125 Z M 9 11.550781 L 6.179688 13.253906 L 6.929688 10.042969 L 4.441406 7.882812 L 7.726562 7.597656 L 9 4.574219 L 10.28125 7.605469 L 13.566406 7.890625 L 11.078125 10.050781 L 11.828125 13.261719 Z M 9 11.550781 "/>
</g>
</svg>
