<svg width="110" height="18" viewBox="0 0 110 18" fill="none" xmlns="http://www.w3.org/2000/svg">
<path d="M95.1678 18L97.4126 11.1202L92 7.3774H98.6294L101 0L103.413 7.3774H110L104.587 11.1202L106.874 18L101 13.6082L95.1678 18Z" fill="#0094F7"/>
<path d="M72.1678 18L74.4126 11.1202L69 7.3774H75.6294L78 0L80.4126 7.3774H87L81.5874 11.1202L83.8741 18L78 13.6082L72.1678 18Z" fill="#0094F7"/>
<path d="M49.1678 18L51.4126 11.1202L46 7.3774H52.6294L55 0L57.4126 7.3774H64L58.5874 11.1202L60.8741 18L55 13.6082L49.1678 18Z" fill="#0094F7"/>
<path d="M26.1678 18L28.4126 11.1202L23 7.3774H29.6294L32 0L34.4126 7.3774H41L35.5874 11.1202L37.8741 18L32 13.6082L26.1678 18Z" fill="#0094F7"/>
<path d="M3.16783 18L5.41259 11.1202L0 7.3774H6.62937L9 0L11.4126 7.3774H18L12.5874 11.1202L14.8741 18L9 13.6082L3.16783 18Z" fill="#0094F7"/>
</svg>
