<svg width="120" height="120" viewBox="0 0 120 120" fill="none" xmlns="http://www.w3.org/2000/svg">
<g clip-path="url(#clip0_934:9887)">
<path d="M82.397 84.7947H60.1313C59.1603 84.7947 58.3735 85.5817 58.3735 86.5525C58.3735 87.5233 59.1603 88.3103 60.1313 88.3103H82.397C83.368 88.3103 84.1548 87.5233 84.1548 86.5525C84.1548 85.5817 83.368 84.7947 82.397 84.7947Z" fill="#389AE0"/>
<path d="M82.397 69.4622H68.8032C67.8322 69.4622 67.0454 70.2492 67.0454 71.22C67.0454 72.1908 67.8322 72.9778 68.8032 72.9778H82.397C83.368 72.9778 84.1548 72.1908 84.1548 71.22C84.1548 70.2492 83.368 69.4622 82.397 69.4622Z" fill="#389AE0"/>
<path d="M35.8013 69.4622C34.8303 69.4622 34.0435 70.2492 34.0435 71.22C34.0435 72.1908 34.8303 72.9778 35.8013 72.9778H63.4125C64.3835 72.9778 65.1703 72.1908 65.1703 71.22C65.1703 70.2492 64.3835 69.4622 63.4125 69.4622H35.8013Z" fill="#389AE0"/>
<path d="M82.3967 61.7959H35.8013C34.8303 61.7959 34.0435 62.5829 34.0435 63.5537C34.0435 64.5245 34.8303 65.3115 35.8013 65.3115H82.3969C83.3679 65.3115 84.1547 64.5245 84.1547 63.5537C84.1547 62.5829 83.3677 61.7959 82.3967 61.7959Z" fill="#389AE0"/>
<path d="M35.8013 47.4614H65.5219C66.4929 47.4614 67.2797 46.6744 67.2797 45.7036C67.2797 44.7328 66.4929 43.9458 65.5219 43.9458H35.8013C34.8303 43.9458 34.0435 44.7328 34.0435 45.7036C34.0435 46.6744 34.8303 47.4614 35.8013 47.4614Z" fill="#389AE0"/>
<path d="M35.8013 39.7949H48.8813C49.8523 39.7949 50.6391 39.0079 50.6391 38.0371C50.6391 37.0663 49.8523 36.2793 48.8813 36.2793H35.8013C34.8303 36.2793 34.0435 37.0663 34.0435 38.0371C34.0435 39.0079 34.8303 39.7949 35.8013 39.7949Z" fill="#389AE0"/>
<path d="M109.994 22.9159L112.542 17.6919C113.132 16.4828 112.663 15.0412 111.476 14.4102L106.344 11.6814L105.335 5.95749C105.101 4.63327 103.876 3.74265 102.543 3.92921L96.7874 4.73804L92.6071 0.701396C91.6389 -0.23376 90.123 -0.23376 89.1557 0.701162L84.9749 4.73827L79.2191 3.92944C77.8872 3.74358 76.6612 4.63327 76.4275 5.95772L75.5512 10.9262H25.6645C24.0489 10.9262 22.7348 12.2404 22.7348 13.8559V75.914C13.6206 78.8177 7 87.3632 7 97.427C7 109.874 17.1262 120 29.5731 120C34.0834 120 38.4379 118.673 42.1659 116.163C42.9712 115.621 43.1842 114.529 42.6419 113.724C42.0998 112.918 41.0076 112.705 40.202 113.247C37.0567 115.365 33.3812 116.484 29.5729 116.484C19.0647 116.484 10.5154 107.935 10.5154 97.4268C10.5154 86.9186 18.8897 78.4999 29.3979 78.4999C39.9062 78.4999 48.6304 86.9186 48.6304 97.4268C48.6304 101.171 47.5443 104.796 45.4898 107.909C44.9552 108.719 45.1783 109.809 45.9885 110.344C46.7987 110.879 47.8888 110.656 48.4241 109.845C48.9731 109.014 49.4603 108.15 49.8909 107.263H92.534C94.1495 107.263 95.4637 105.948 95.4637 104.333V82.2655C95.4637 81.2948 94.6769 80.5077 93.7059 80.5077C92.7348 80.5077 91.9481 81.2948 91.9481 82.2655V103.747H51.2453C51.8387 101.709 52.146 99.5849 52.146 97.4268C52.146 96.9395 52.1287 96.4562 52.0982 95.9765H82.397C83.368 95.9765 84.1548 95.1894 84.1548 94.2187C84.1548 93.2479 83.368 92.4609 82.397 92.4609H51.5943C51.2697 91.0206 50.8068 89.6324 50.2209 88.3103H54.7405C55.7116 88.3103 56.4984 87.5233 56.4984 86.5525C56.4984 85.5817 55.7116 84.7947 54.7405 84.7947H48.2713C47.2363 83.2675 46.0188 81.8741 44.6512 80.6441H82.3966C83.3676 80.6441 84.1544 79.8571 84.1544 78.8863C84.1544 77.9155 83.3676 77.1285 82.3966 77.1285H39.4412C36.4584 75.6726 33.1096 74.8541 29.5731 74.8541C28.4444 74.8541 27.3351 74.9385 26.2504 75.0993V14.4419H70.2337C69.0864 15.0878 68.6399 16.5018 69.2202 17.6922L71.7679 22.9162L71.1527 24.1778H45.0011C44.0301 24.1778 43.2433 24.9648 43.2433 25.9356C43.2433 26.9064 44.0301 27.6934 45.0011 27.6934H69.4382L69.2202 28.1401C68.6308 29.3488 69.0991 30.7905 70.2866 31.4219L75.4185 34.1507L75.794 36.2795H54.2723C53.3013 36.2795 52.5145 37.0665 52.5145 38.0373C52.5145 39.0081 53.3013 39.7951 54.2723 39.7951H76.4141L76.4282 39.8744C76.6621 41.1993 77.8923 42.0899 79.2198 41.9026L81.2955 41.6111V43.9459H71.1473C70.1763 43.9459 69.3895 44.733 69.3895 45.7037C69.3895 46.6745 70.1763 47.4616 71.1473 47.4616H81.2955V51.6121H35.8014C34.8304 51.6121 34.0436 52.3991 34.0436 53.3699C34.0436 54.3407 34.8304 55.1277 35.8014 55.1277H81.295V59.4299C81.295 60.4035 81.8427 61.2653 82.7242 61.6787C83.6062 62.0922 84.6184 61.9621 85.3673 61.3396L90.8809 56.7538L91.9478 57.6412V74.0624C91.9478 75.0332 92.7346 75.8202 93.7056 75.8202C94.6766 75.8202 95.4634 75.0332 95.4634 74.0624V60.5648L96.3951 61.3396C96.8538 61.7209 97.4113 61.9176 97.9773 61.9176C98.3352 61.9176 98.6966 61.8388 99.0381 61.6787C99.9196 61.2653 100.467 60.4035 100.467 59.4299V41.6108L102.543 41.9024C103.876 42.0894 105.101 41.1991 105.335 39.8741L106.344 34.1505L111.476 31.4216C112.663 30.7902 113.132 29.3486 112.542 28.1399L109.994 22.9159ZM96.9517 57.2298L92.47 53.5026C92.0097 53.1196 91.4455 52.9279 90.8814 52.9279C90.3175 52.9279 89.7534 53.1194 89.293 53.5021L84.8109 57.2298V41.117L84.9752 41.0938L89.1559 45.1309C89.6397 45.5983 90.2605 45.8319 90.8814 45.8319C91.502 45.8319 92.1231 45.5983 92.6066 45.1312L96.7877 41.0938L96.9517 41.1168V57.2298ZM106.614 24.0048L108.945 28.7854L104.25 31.2824C103.57 31.6438 103.102 32.2865 102.97 33.0444L102.046 38.2825L96.7787 37.5426C96.0168 37.4352 95.2609 37.6806 94.7074 38.2155L90.8812 41.9101L87.0545 38.2152C86.586 37.7629 85.9741 37.518 85.3352 37.518C85.2187 37.518 85.1015 37.5262 84.9841 37.5426L79.7165 38.2825L78.7928 33.044C78.6588 32.2858 78.1921 31.6438 77.5129 31.2829L72.8167 28.7856L75.148 24.0051C75.4853 23.313 75.4853 22.5194 75.148 21.8273L72.8167 17.0467L77.5131 14.5492C78.1921 14.1878 78.6588 13.5461 78.7928 12.7876L79.7165 7.5496L84.9845 8.28976C85.7477 8.39687 86.5007 8.15148 87.055 7.61687L90.8812 3.92218L94.7074 7.61663C95.2607 8.15124 96.0156 8.39616 96.7785 8.28976L102.046 7.5496L102.969 12.7867C103.102 13.5451 103.569 14.1876 104.249 14.5494L108.945 17.0467L106.614 21.8273C106.277 22.5191 106.277 23.313 106.614 24.0048Z" fill="#389AE0"/>
<path d="M32.5921 100.942C32.5921 102.607 31.2379 103.962 29.5729 103.962C27.9079 103.962 26.5537 102.607 26.5537 100.942C26.5537 99.9716 25.7669 99.1846 24.7959 99.1846C23.8249 99.1846 23.0381 99.9716 23.0381 100.942C23.0381 104.546 25.9696 107.477 29.5729 107.477C33.1762 107.477 36.1078 104.546 36.1078 100.942C36.1078 99.9716 35.321 99.1846 34.35 99.1846C33.3789 99.1846 32.5921 99.9716 32.5921 100.942Z" fill="#389AE0"/>
<path d="M36.8398 92.6392V96.5321C36.8398 97.5029 37.6266 98.2899 38.5977 98.2899C39.5687 98.2899 40.3555 97.5029 40.3555 96.5321V92.6392C40.3555 91.6684 39.5687 90.8813 38.5977 90.8813C37.6266 90.8813 36.8398 91.6684 36.8398 92.6392Z" fill="#389AE0"/>
<path d="M18.7905 92.6392V96.5321C18.7905 97.5029 19.5773 98.2899 20.5483 98.2899C21.5194 98.2899 22.3062 97.5029 22.3062 96.5321V92.6392C22.3062 91.6684 21.5194 90.8813 20.5483 90.8813C19.5773 90.8813 18.7905 91.6684 18.7905 92.6392Z" fill="#389AE0"/>
<path d="M101.349 20.62C102.25 20.2591 102.688 19.2358 102.327 18.3347C100.442 13.6282 95.949 10.5872 90.8813 10.5872C84.083 10.5872 78.5522 16.1179 78.5522 22.9162C78.5522 29.7143 84.083 35.245 90.8813 35.245C95.7551 35.245 100.181 32.3634 102.156 27.9032C102.549 27.0157 102.148 25.9774 101.261 25.5841C100.373 25.1911 99.335 25.5918 98.9417 26.4794C97.5291 29.6686 94.3653 31.7292 90.8811 31.7292C86.0215 31.7292 82.0676 27.7755 82.0676 22.916C82.0676 18.0562 86.0213 14.1025 90.8811 14.1025C94.5036 14.1025 97.7152 16.2768 99.0633 19.6418C99.425 20.5432 100.449 20.981 101.349 20.62Z" fill="#389AE0"/>
<path d="M94.416 19.2131L90.2099 23.4194L87.3463 20.5561C86.6601 19.8696 85.5471 19.8694 84.8606 20.5561C84.1741 21.2426 84.1741 22.3556 84.8606 23.0419L88.9671 27.1481C89.3102 27.4912 89.7602 27.663 90.2099 27.663C90.6597 27.663 91.1097 27.4915 91.4531 27.1481L96.9023 21.6989C97.5888 21.0124 97.5888 19.8994 96.9023 19.2131C96.2156 18.5266 95.1028 18.5266 94.416 19.2131Z" fill="#389AE0"/>
</g>
<defs>
<clipPath id="clip0_934:9887">
<rect width="120" height="120" fill="white"/>
</clipPath>
</defs>
</svg>
