<svg width="120" height="120" viewBox="0 0 120 120" fill="none" xmlns="http://www.w3.org/2000/svg">
<g clip-path="url(#clip0_934:9888)">
<path d="M59.4297 115.299V119.257C60.7855 119.257 62.1471 119.21 63.4797 119.117L63.2081 115.159C61.9615 115.253 60.7024 115.299 59.4297 115.299Z" fill="#389AE0"/>
<path d="M51.3594 118.721C52.6833 118.9 54.0391 119.036 55.39 119.118L55.6538 115.159C54.3889 115.076 53.1239 114.948 51.8938 114.781L51.3594 118.721Z" fill="#389AE0"/>
<path d="M66.9766 114.781L67.5129 118.702C68.8416 118.519 70.1848 118.29 71.5068 118.015L70.7038 114.14C69.4649 114.395 68.2164 114.611 66.9766 114.781Z" fill="#389AE0"/>
<path d="M43.4268 117.091C44.7275 117.452 46.0533 117.773 47.3656 118.043L48.157 114.166C46.9317 113.915 45.6948 113.615 44.4839 113.279L43.4268 117.091Z" fill="#389AE0"/>
<path d="M74.3779 113.243L75.4467 117.055C76.7387 116.693 78.0394 116.279 79.3083 115.828L77.9757 112.1C76.788 112.529 75.583 112.907 74.3779 113.243Z" fill="#389AE0"/>
<path d="M35.7852 114.387C37.0144 114.92 38.2851 115.42 39.5636 115.874L40.8836 112.142C39.696 111.717 38.5083 111.253 37.3622 110.756L35.7852 114.387Z" fill="#389AE0"/>
<path d="M7.17793 78.55L3.45361 79.8836C3.90876 81.1544 4.40933 82.4193 4.94566 83.6437L8.57334 82.0608C8.07277 80.9147 7.60313 79.7358 7.17793 78.55Z" fill="#389AE0"/>
<path d="M5.12946 71.2744L1.25439 72.0881C1.53174 73.4081 1.8487 74.7301 2.22075 76.0231L6.02817 74.9485C5.68995 73.7386 5.38748 72.5075 5.12946 71.2744Z" fill="#389AE0"/>
<path d="M4.09256 63.79L0.14502 64.0654C0.237789 65.4048 0.37791 66.7606 0.562483 68.0922L4.4849 67.5501C4.31289 66.3074 4.17954 65.0308 4.09256 63.79Z" fill="#389AE0"/>
<path d="M4.07897 56.2253L0.120794 55.9683C0.0405866 57.2603 0 58.5658 0 59.8849V60.0115L3.95818 59.8849C3.95818 58.6567 3.99876 57.4371 4.07897 56.2253Z" fill="#389AE0"/>
<path d="M5.07886 48.7353L1.19992 47.9438C0.933211 49.2552 0.705152 50.6013 0.527344 51.9388L4.44976 52.4635C4.61598 51.215 4.82761 49.9597 5.07886 48.7353Z" fill="#389AE0"/>
<path d="M7.09713 41.45L3.36508 40.1357C2.91573 41.4123 2.50793 42.7091 2.14941 44.0031L5.96554 45.0583C6.29603 43.8543 6.67774 42.6415 7.09713 41.45Z" fill="#389AE0"/>
<path d="M10.0934 34.5077L6.57687 32.6909C5.95937 33.8776 5.37472 35.1194 4.84033 36.3582L8.47478 37.9276C8.97728 36.7718 9.52327 35.6219 10.0934 34.5077Z" fill="#389AE0"/>
<path d="M106.871 61.8642C106.872 59.1159 106.634 56.3724 106.162 53.6647L102.263 54.346C105.166 70.9827 98.187 87.7972 84.3566 97.4878L81.1686 92.283C80.0901 90.5378 79.9964 88.3577 80.9193 86.5255L81.8189 84.7271C82.1523 84.0555 82.8384 83.6312 83.5883 83.6341H86.3792C88.8095 83.6419 90.9973 82.1614 91.8932 79.9021L94.5709 73.2043C94.8531 72.5037 94.998 71.7538 94.9961 70.9981V66.6438C94.999 65.5933 94.5815 64.5845 93.8365 63.8433L91.4612 61.4689C90.2571 60.2629 88.4162 59.9643 86.8913 60.7268L82.0209 63.163C81.4643 63.4413 80.8091 63.4413 80.2515 63.163L72.3352 59.2048C71.6665 58.8704 71.2451 58.1863 71.2471 57.4393V51.9688C71.2471 49.7829 69.4748 48.0106 67.2889 48.0106C66.1959 48.0106 65.3098 47.1244 65.3098 46.0315V44.0524C65.3098 43.4301 65.6036 42.8435 66.1012 42.4695L72.4347 37.7199L70.0594 34.5532L63.7269 39.3028C62.2358 40.4276 61.3564 42.1854 61.3516 44.0524V46.0315C61.3516 49.3103 64.01 51.9688 67.2889 51.9688V57.4393C67.2812 59.6899 68.5538 61.7492 70.5706 62.7494L78.487 66.7075C80.1597 67.5396 82.1253 67.5396 83.798 66.7075L88.6694 64.2733L91.0437 66.6476V71.002C91.0447 71.2533 90.9954 71.5026 90.9017 71.7364L88.222 78.4352C87.9243 79.1889 87.1947 79.6827 86.3849 79.6798H83.5941C81.3435 79.6721 79.2842 80.9448 78.285 82.9616L77.3843 84.7609C75.8459 87.8136 76.0025 91.4471 77.798 94.3568L81.0236 99.6234C68.8321 106.642 53.9938 107.313 41.2187 101.425L43.6471 99.8031C43.9699 99.5867 44.3496 99.4697 44.7391 99.4669H49.8153C51.3914 99.4717 52.9038 98.8455 54.0151 97.7274L59.6122 92.1303C60.7293 91.019 61.3564 89.5067 61.3516 87.9305V78.7898C61.3516 77.7172 61.0607 76.6648 60.5109 75.7439L56.2831 68.6741C55.2018 66.9085 53.2816 65.8291 51.2107 65.8224H45.6571C43.6693 65.8204 41.812 66.8129 40.7094 68.4663L38.5225 71.7596H33.6444C31.4585 71.7596 29.6862 73.5319 29.6862 75.7178V79.4982C29.6862 80.1698 29.3451 80.796 28.7798 81.1603L22.6048 85.1426C18.176 78.1868 15.8258 70.1101 15.8326 61.8642C15.8326 61.2013 15.8519 60.5422 15.8819 59.8851H19.324C20.0739 59.8832 20.76 60.3074 21.0934 60.98L23.4107 65.6243C24.0804 66.9646 25.4526 67.8082 26.9514 67.8014H29.0407C30.2844 67.8034 31.4566 67.2216 32.2055 66.2292C32.9554 65.2368 33.195 63.9505 32.8529 62.7552L30.3317 53.9478H34.2377C35.5868 53.9478 36.8942 53.4888 37.9466 52.6462L44.4066 47.4781C46.4872 45.8083 47.2013 42.9575 46.1538 40.504L42.7658 32.5876C42.3754 31.6773 42.7184 30.6192 43.5679 30.1099L48.5513 27.12C50.3574 26.0309 51.4542 24.0673 51.434 21.9577L51.4011 19.0626C57.7838 17.8643 64.355 18.1117 70.6296 19.7873L71.6433 15.9712C51.9877 10.7152 31.1676 18.561 19.87 35.4818C8.5724 52.4026 9.30586 74.6394 21.6945 90.7784C34.0831 106.918 55.3747 113.375 74.6409 106.834C93.907 100.294 106.868 82.2097 106.871 61.8642ZM47.4487 19.999L47.4719 22.0138C47.4806 22.7173 47.1144 23.3715 46.5104 23.7329L41.525 26.7238C38.9873 28.2593 37.964 31.427 39.1246 34.157L42.5126 42.0733C42.8634 42.8908 42.6257 43.8427 41.9309 44.3993L35.4708 49.5664C35.12 49.8428 34.6852 49.9916 34.2377 49.9897H30.3317C29.088 49.9877 27.9159 50.5704 27.1669 51.5629C26.417 52.5544 26.1774 53.8415 26.5195 55.0369L29.0407 63.8433H26.9514L24.6332 59.2087C23.634 57.1919 21.5747 55.9192 19.324 55.9269H16.2481C18.6312 38.836 30.8603 24.7544 47.4487 19.999ZM24.8767 88.3838L30.9251 84.4855C32.623 83.3955 33.6473 81.5149 33.6444 79.4982V75.7178H38.5225C39.8464 75.7178 41.0824 75.0558 41.8159 73.9542L44.0104 70.6618C44.3777 70.111 44.9961 69.7805 45.6571 69.7805H51.2107C51.8959 69.7815 52.5327 70.1362 52.8931 70.7189L57.1122 77.7761C57.2968 78.0825 57.3934 78.4323 57.3934 78.7898V87.9305C57.3934 88.4562 57.1857 88.9607 56.8136 89.3318L51.2165 94.9289C50.8454 95.3009 50.341 95.5096 49.8153 95.5087H44.7391C43.5659 95.5087 42.4179 95.8566 41.4419 96.5079L37.2209 99.3267C32.4519 96.4924 28.2628 92.7787 24.8767 88.3838Z" fill="#389AE0"/>
<path d="M81.4888 110.71L83.0726 114.338C84.3057 113.802 85.532 113.214 86.7235 112.595L84.9029 109.083C83.7867 109.661 82.6387 110.21 81.4888 110.71Z" fill="#389AE0"/>
<path d="M28.582 110.661C29.7378 111.363 30.9274 112.03 32.1189 112.64L33.9375 109.123C32.8253 108.549 31.7169 107.925 30.6365 107.27L28.582 110.661Z" fill="#389AE0"/>
<path d="M88.1914 107.227L90.2478 110.605C91.392 109.906 92.5294 109.158 93.63 108.38L91.3417 105.151C90.3232 105.878 89.2583 106.576 88.1914 107.227Z" fill="#389AE0"/>
<path d="M21.9683 105.998C23.0168 106.851 24.1039 107.674 25.1978 108.446L27.4736 105.206C26.4434 104.478 25.4375 103.717 24.4557 102.922L21.9683 105.998Z" fill="#389AE0"/>
<path d="M99.8789 97.6974L102.773 100.401C103.691 99.4117 104.588 98.3903 105.436 97.3476L102.367 94.8477C101.574 95.8217 100.734 96.7813 99.8789 97.6974Z" fill="#389AE0"/>
<path d="M94.3594 102.861L96.8603 105.929C97.901 105.079 98.9263 104.183 99.9101 103.266L97.2091 100.373C96.2863 101.235 95.3364 102.064 94.3594 102.861Z" fill="#389AE0"/>
<path d="M16.0308 100.471C16.9546 101.46 17.9209 102.42 18.8979 103.332L21.5979 100.435C20.6837 99.5838 19.7812 98.6851 18.9182 97.7651L16.0308 100.471Z" fill="#389AE0"/>
<path d="M14.1441 91.9128L10.9146 94.2002C11.6925 95.297 12.5177 96.3774 13.3681 97.423L16.4257 94.9153C15.6342 93.9451 14.8689 92.9362 14.1441 91.9128Z" fill="#389AE0"/>
<path d="M104.656 91.8314L107.889 94.1236C108.665 93.0249 109.415 91.8865 110.113 90.7346L106.733 88.6772C106.078 89.7412 105.381 90.8061 104.656 91.8314Z" fill="#389AE0"/>
<path d="M10.2002 85.4653L6.69141 87.2975C7.3147 88.4852 7.98632 89.6728 8.68499 90.8179L12.0711 88.7538C11.4101 87.6879 10.7849 86.5815 10.2002 85.4653Z" fill="#389AE0"/>
<path d="M108.591 85.3716L112.105 87.1951C112.725 86.0074 113.31 84.7705 113.847 83.5336L110.217 81.9497C109.717 83.1074 109.169 84.2574 108.591 85.3716Z" fill="#389AE0"/>
<path d="M111.609 78.4331L115.337 79.757C115.79 78.4824 116.202 77.1846 116.562 75.8935L112.749 74.8296C112.412 76.0308 112.028 77.2435 111.609 78.4331Z" fill="#389AE0"/>
<path d="M113.641 71.1546L117.518 71.9461C117.79 70.6338 118.019 69.2876 118.201 67.9521L114.279 67.4197C114.109 68.6759 113.894 69.9293 113.641 71.1546Z" fill="#389AE0"/>
<path d="M114.661 63.6673L118.609 63.9321C118.7 62.5908 118.745 61.2292 118.745 59.885H114.787C114.787 61.1558 114.745 62.4169 114.661 63.6673Z" fill="#389AE0"/>
<path d="M14.0166 28.0399L10.7783 25.7603C10.0072 26.858 9.26117 28.0003 8.5625 29.1541L11.9467 31.2066C12.5999 30.1272 13.2967 29.0632 14.0166 28.0399Z" fill="#389AE0"/>
<path d="M18.7772 22.1615L15.8782 19.4683C14.9621 20.4578 14.0672 21.485 13.2227 22.5258L16.2976 25.02C17.0852 24.0459 17.9211 23.0843 18.7772 22.1615Z" fill="#389AE0"/>
<path d="M24.2929 16.9886L21.7872 13.9253C20.7464 14.7757 19.7211 15.6744 18.7422 16.5944L21.4509 19.4799C22.365 18.6208 23.3237 17.782 24.2929 16.9886Z" fill="#389AE0"/>
<path d="M30.4507 12.6072L28.3799 9.23267C27.2318 9.93714 26.0964 10.689 25.0034 11.4669L27.2975 14.6926C28.319 13.9707 29.3781 13.2633 30.4507 12.6072Z" fill="#389AE0"/>
<path d="M37.1434 9.10988L35.5596 5.48413C34.3352 6.02046 33.108 6.60993 31.9106 7.23516L33.7428 10.742C34.8551 10.1584 35.9993 9.61625 37.1434 9.10988Z" fill="#389AE0"/>
<path d="M44.2496 6.56082L43.1751 2.75146C41.8869 3.11481 40.5862 3.53034 39.3164 3.98839L40.6538 7.71271C41.8396 7.28752 43.0485 6.90098 44.2496 6.56082Z" fill="#389AE0"/>
<path d="M51.6546 5.00689L51.0999 1.08447C49.7741 1.26905 48.4309 1.50387 47.1089 1.78121L47.9216 5.65821C49.1547 5.39537 50.4099 5.17697 51.6546 5.00689Z" fill="#389AE0"/>
<path d="M75.6027 17.2139L74.4644 36.5699C74.2991 39.3917 75.3476 42.1497 77.346 44.15L81.1853 47.9854L88.173 29.8035L95.2371 36.8666V45.6024C95.2342 47.1747 95.8604 48.6841 96.9765 49.7916L100.408 53.226L104.606 46.2296L105.613 47.2346C107.104 48.7788 109.311 49.3973 111.388 48.8542C113.463 48.3111 115.084 46.6896 115.628 44.6138C116.171 42.5381 115.552 40.33 114.008 38.8399L113.003 37.8339L120.001 33.6351L116.569 30.1988C115.459 29.0807 113.948 28.4545 112.371 28.4594H103.632L96.5803 21.3982L114.773 14.4018L110.925 10.5606C108.927 8.56025 106.168 7.51272 103.348 7.68087L83.9916 8.81923L77.6253 2.45001C75.2751 0.208071 71.5779 0.208071 69.2277 2.45001C66.9085 4.76925 66.9085 8.52836 69.2277 10.8476L75.6027 17.2139ZM79.6914 40.8402C78.7849 39.6961 78.3307 38.2582 78.4148 36.8009L79.3464 20.9682L85.1174 26.7392L79.6914 40.8402ZM99.6282 46.8229C99.3489 46.4712 99.1962 46.0354 99.1952 45.586V40.8151L101.726 43.3421L99.6282 46.8229ZM112.37 32.4117C112.819 32.4127 113.255 32.5654 113.606 32.8447L110.12 34.9484L107.592 32.4233L112.37 32.4117ZM103.579 11.6313C105.036 11.5453 106.475 12.0005 107.618 12.9079L93.5092 18.3339L87.7382 12.5629L103.579 11.6313ZM72.0282 5.25049C72.8003 4.47934 74.0517 4.47934 74.8248 5.25049L111.21 41.6365C111.981 42.4086 111.981 43.6601 111.21 44.4322C110.427 45.1811 109.194 45.1811 108.411 44.4322L72.0282 8.04711C71.2571 7.27403 71.2571 6.02357 72.0282 5.25049Z" fill="#389AE0"/>
<path d="M59.1924 4.47038L59.176 0.512207C57.8221 0.512207 56.4605 0.566323 55.1289 0.661025L55.4101 4.6192C56.6596 4.51967 57.9197 4.47038 59.1924 4.47038Z" fill="#389AE0"/>
</g>
<defs>
<clipPath id="clip0_934:9888">
<rect width="120" height="120" fill="white"/>
</clipPath>
</defs>
</svg>
