<svg width="120" height="120" viewBox="0 0 120 120" fill="none" xmlns="http://www.w3.org/2000/svg">
<path d="M110.626 52.5002H72.4794C75.3075 45.4043 75.7708 37.5853 73.8004 30.205C71.83 22.8248 67.5311 16.2772 61.5425 11.5352C61.5107 11.5164 61.4863 11.4846 61.4525 11.4677C55.179 6.47158 47.3962 3.75122 39.3763 3.75122C31.3564 3.75122 23.5736 6.47158 17.3 11.4677C17.2663 11.4846 17.2419 11.5164 17.21 11.5352C11.4231 16.1299 7.20966 22.4119 5.15442 29.5096C3.09917 36.6073 3.304 44.1686 5.74048 51.1446C8.17697 58.1206 12.7243 64.1653 18.7515 68.44C24.7788 72.7147 31.9871 75.0075 39.3763 75.0002C41.2607 75.0002 43.1419 74.8466 45.0013 74.5408V95.6252C45.0013 97.117 45.5939 98.5478 46.6488 99.6027C47.7037 100.658 49.1345 101.25 50.6263 101.25V105C49.1345 105 47.7037 105.593 46.6488 106.648C45.5939 107.703 45.0013 109.133 45.0013 110.625C45.0013 112.117 45.5939 113.548 46.6488 114.603C47.7037 115.658 49.1345 116.25 50.6263 116.25H110.626C112.118 116.25 113.549 115.658 114.604 114.603C115.659 113.548 116.251 112.117 116.251 110.625C116.251 109.133 115.659 107.703 114.604 106.648C113.549 105.593 112.118 105 110.626 105V101.25C112.118 101.25 113.549 100.658 114.604 99.6027C115.659 98.5478 116.251 97.117 116.251 95.6252V58.1252C116.251 56.6333 115.659 55.2026 114.604 54.1477C113.549 53.0928 112.118 52.5002 110.626 52.5002ZM55.07 52.5002C55.7463 48.7863 56.1256 45.0244 56.2044 41.2502H71.1444C70.9255 45.1401 69.9838 48.9552 68.3675 52.5002H55.07ZM30.0163 61.4271C34.8689 59.9426 40.0043 59.6296 45.0013 60.5139V67.9296C44.3591 68.8564 43.5238 69.6332 42.5528 70.2064C41.5817 70.7796 40.4981 71.1357 39.3763 71.2502C36.0201 71.2502 32.5494 67.6333 30.0163 61.4271ZM30.68 70.0146C27.3444 69.072 24.1856 67.5892 21.3294 65.6252C22.9729 64.4941 24.7202 63.5216 26.5475 62.7208C27.5694 65.3371 28.961 67.7933 30.68 70.0146ZM45.1888 56.7358C39.6913 55.8425 34.0614 56.2418 28.745 57.9021C27.1881 52.4857 26.3633 46.8854 26.2925 41.2502H52.4544C52.3734 45.0274 51.972 48.7909 51.2544 52.5002H50.6263C49.3785 52.5031 48.1672 52.9208 47.1828 53.6876C46.1985 54.4544 45.497 55.5267 45.1888 56.7358ZM39.3763 7.50019C42.7307 7.50019 46.1975 11.1114 48.7307 17.3102C45.7019 18.2546 42.5488 18.7399 39.3763 18.7502C36.2038 18.7399 33.0507 18.2546 30.0219 17.3102C32.555 11.1114 36.0219 7.50019 39.3763 7.50019ZM26.5475 16.0352C24.7203 15.2308 22.9726 14.2565 21.3275 13.1252C24.1837 11.1585 27.3431 9.67379 30.68 8.73019C28.9603 10.955 27.5686 13.4151 26.5475 16.0352ZM48.0725 8.73581C51.4091 9.67768 54.5685 11.1605 57.425 13.1252C55.7798 14.2546 54.0321 15.227 52.205 16.0296C51.183 13.4134 49.7914 10.9572 48.0725 8.73581ZM39.3763 22.5002C42.9799 22.488 46.5607 21.9285 49.9963 20.8408C51.5583 26.2589 52.3869 31.8619 52.46 37.5002H26.2925C26.3657 31.8619 27.1943 26.2589 28.7563 20.8408C32.1919 21.9285 35.7727 22.488 39.3763 22.5002ZM71.1557 37.5002H56.2082C56.1243 31.4237 55.2044 25.3877 53.4744 19.5621C55.9509 18.4915 58.2973 17.1422 60.4682 15.5402C63.6104 18.3144 66.1725 21.683 68.0068 25.452C69.8411 29.221 70.9113 33.3157 71.1557 37.5002ZM18.2844 15.5402C20.4553 17.1422 22.8017 18.4915 25.2782 19.5621C23.5482 25.3877 22.6283 31.4237 22.5444 37.5002H7.59692C7.84133 33.3157 8.91151 29.221 10.7458 25.452C12.5801 21.683 15.1422 18.3144 18.2844 15.5402ZM7.59692 41.2502H22.5444C22.6288 47.324 23.548 53.3574 25.2763 59.1808C22.7949 60.2448 20.4434 61.5892 18.2675 63.1877C15.131 60.4147 12.5735 57.049 10.7423 53.2842C8.91103 49.5193 7.84209 45.4296 7.59692 41.2502ZM112.501 110.625C112.501 111.122 112.304 111.599 111.952 111.951C111.6 112.303 111.124 112.5 110.626 112.5H50.6263C50.129 112.5 49.6521 112.303 49.3005 111.951C48.9488 111.599 48.7513 111.122 48.7513 110.625C48.7513 110.128 48.9488 109.651 49.3005 109.299C49.6521 108.948 50.129 108.75 50.6263 108.75H110.626C111.124 108.75 111.6 108.948 111.952 109.299C112.304 109.651 112.501 110.128 112.501 110.625ZM106.876 105H54.3763V101.25H106.876V105ZM112.501 95.6252C112.501 96.1225 112.304 96.5994 111.952 96.951C111.6 97.3027 111.124 97.5002 110.626 97.5002H50.6263C50.129 97.5002 49.6521 97.3027 49.3005 96.951C48.9488 96.5994 48.7513 96.1225 48.7513 95.6252V58.1252C48.7513 57.6279 48.9488 57.151 49.3005 56.7994C49.6521 56.4477 50.129 56.2502 50.6263 56.2502H110.626C111.124 56.2502 111.6 56.4477 111.952 56.7994C112.304 57.151 112.501 57.6279 112.501 58.1252V95.6252Z" fill="#389AE0"/>
<path d="M35.625 97.5H5.625C5.12772 97.5 4.65081 97.6975 4.29917 98.0492C3.94754 98.4008 3.75 98.8777 3.75 99.375V114.375C3.75 114.872 3.94754 115.349 4.29917 115.701C4.65081 116.052 5.12772 116.25 5.625 116.25H35.625C36.1223 116.25 36.5992 116.052 36.9508 115.701C37.3025 115.349 37.5 114.872 37.5 114.375V99.375C37.5 98.8777 37.3025 98.4008 36.9508 98.0492C36.5992 97.6975 36.1223 97.5 35.625 97.5ZM33.75 112.5H7.5V101.25H33.75V112.5Z" fill="#389AE0"/>
<path d="M24.375 108.75H28.125C28.6223 108.75 29.0992 108.552 29.4508 108.201C29.8025 107.849 30 107.372 30 106.875C30 106.378 29.8025 105.901 29.4508 105.549C29.0992 105.198 28.6223 105 28.125 105H24.375C23.8777 105 23.4008 105.198 23.0492 105.549C22.6975 105.901 22.5 106.378 22.5 106.875C22.5 107.372 22.6975 107.849 23.0492 108.201C23.4008 108.552 23.8777 108.75 24.375 108.75Z" fill="#389AE0"/>
<path d="M13.125 108.75H16.875C17.3723 108.75 17.8492 108.552 18.2008 108.201C18.5525 107.849 18.75 107.372 18.75 106.875C18.75 106.378 18.5525 105.901 18.2008 105.549C17.8492 105.198 17.3723 105 16.875 105H13.125C12.6277 105 12.1508 105.198 11.7992 105.549C11.4475 105.901 11.25 106.378 11.25 106.875C11.25 107.372 11.4475 107.849 11.7992 108.201C12.1508 108.552 12.6277 108.75 13.125 108.75Z" fill="#389AE0"/>
<path d="M37.5 90H18.75C18.2527 90 17.7758 90.1975 17.4242 90.5492C17.0725 90.9008 16.875 91.3777 16.875 91.875C16.875 92.3723 17.0725 92.8492 17.4242 93.2008C17.7758 93.5525 18.2527 93.75 18.75 93.75H37.5C37.9973 93.75 38.4742 93.5525 38.8258 93.2008C39.1775 92.8492 39.375 92.3723 39.375 91.875C39.375 91.3777 39.1775 90.9008 38.8258 90.5492C38.4742 90.1975 37.9973 90 37.5 90Z" fill="#389AE0"/>
<path d="M7.5 93.75H11.25C11.7473 93.75 12.2242 93.5525 12.5758 93.2008C12.9275 92.8492 13.125 92.3723 13.125 91.875C13.125 91.3777 12.9275 90.9008 12.5758 90.5492C12.2242 90.1975 11.7473 90 11.25 90H7.5C7.00272 90 6.52581 90.1975 6.17417 90.5492C5.82254 90.9008 5.625 91.3777 5.625 91.875C5.625 92.3723 5.82254 92.8492 6.17417 93.2008C6.52581 93.5525 7.00272 93.75 7.5 93.75Z" fill="#389AE0"/>
<path d="M37.5 82.5H18.75C18.2527 82.5 17.7758 82.6975 17.4242 83.0492C17.0725 83.4008 16.875 83.8777 16.875 84.375C16.875 84.8723 17.0725 85.3492 17.4242 85.7008C17.7758 86.0525 18.2527 86.25 18.75 86.25H37.5C37.9973 86.25 38.4742 86.0525 38.8258 85.7008C39.1775 85.3492 39.375 84.8723 39.375 84.375C39.375 83.8777 39.1775 83.4008 38.8258 83.0492C38.4742 82.6975 37.9973 82.5 37.5 82.5Z" fill="#389AE0"/>
<path d="M7.5 86.25H11.25C11.7473 86.25 12.2242 86.0525 12.5758 85.7008C12.9275 85.3492 13.125 84.8723 13.125 84.375C13.125 83.8777 12.9275 83.4008 12.5758 83.0492C12.2242 82.6975 11.7473 82.5 11.25 82.5H7.5C7.00272 82.5 6.52581 82.6975 6.17417 83.0492C5.82254 83.4008 5.625 83.8777 5.625 84.375C5.625 84.8723 5.82254 85.3492 6.17417 85.7008C6.52581 86.0525 7.00272 86.25 7.5 86.25Z" fill="#389AE0"/>
<path d="M106.875 60H54.375C53.8777 60 53.4008 60.1975 53.0492 60.5492C52.6975 60.9008 52.5 61.3777 52.5 61.875V91.875C52.5 92.3723 52.6975 92.8492 53.0492 93.2008C53.4008 93.5525 53.8777 93.75 54.375 93.75H106.875C107.372 93.75 107.849 93.5525 108.201 93.2008C108.552 92.8492 108.75 92.3723 108.75 91.875V61.875C108.75 61.3777 108.552 60.9008 108.201 60.5492C107.849 60.1975 107.372 60 106.875 60ZM105 90H56.25V63.75H105V90Z" fill="#389AE0"/>
<path d="M114.375 33.75H95.625C95.1277 33.75 94.6508 33.9475 94.2992 34.2992C93.9475 34.6508 93.75 35.1277 93.75 35.625C93.75 36.1223 93.9475 36.5992 94.2992 36.9508C94.6508 37.3025 95.1277 37.5 95.625 37.5H114.375C114.872 37.5 115.349 37.3025 115.701 36.9508C116.052 36.5992 116.25 36.1223 116.25 35.625C116.25 35.1277 116.052 34.6508 115.701 34.2992C115.349 33.9475 114.872 33.75 114.375 33.75Z" fill="#389AE0"/>
<path d="M84.375 37.5H88.125C88.6223 37.5 89.0992 37.3025 89.4508 36.9508C89.8025 36.5992 90 36.1223 90 35.625C90 35.1277 89.8025 34.6508 89.4508 34.2992C89.0992 33.9475 88.6223 33.75 88.125 33.75H84.375C83.8777 33.75 83.4008 33.9475 83.0492 34.2992C82.6975 34.6508 82.5 35.1277 82.5 35.625C82.5 36.1223 82.6975 36.5992 83.0492 36.9508C83.4008 37.3025 83.8777 37.5 84.375 37.5Z" fill="#389AE0"/>
<path d="M114.375 26.25H95.625C95.1277 26.25 94.6508 26.4475 94.2992 26.7992C93.9475 27.1508 93.75 27.6277 93.75 28.125C93.75 28.6223 93.9475 29.0992 94.2992 29.4508C94.6508 29.8025 95.1277 30 95.625 30H114.375C114.872 30 115.349 29.8025 115.701 29.4508C116.052 29.0992 116.25 28.6223 116.25 28.125C116.25 27.6277 116.052 27.1508 115.701 26.7992C115.349 26.4475 114.872 26.25 114.375 26.25Z" fill="#389AE0"/>
<path d="M84.375 30H88.125C88.6223 30 89.0992 29.8025 89.4508 29.4508C89.8025 29.0992 90 28.6223 90 28.125C90 27.6277 89.8025 27.1508 89.4508 26.7992C89.0992 26.4475 88.6223 26.25 88.125 26.25H84.375C83.8777 26.25 83.4008 26.4475 83.0492 26.7992C82.6975 27.1508 82.5 27.6277 82.5 28.125C82.5 28.6223 82.6975 29.0992 83.0492 29.4508C83.4008 29.8025 83.8777 30 84.375 30Z" fill="#389AE0"/>
<path d="M114.375 3.75H84.375C83.8777 3.75 83.4008 3.94754 83.0492 4.29917C82.6975 4.65081 82.5 5.12772 82.5 5.625V20.625C82.5 21.1223 82.6975 21.5992 83.0492 21.9508C83.4008 22.3025 83.8777 22.5 84.375 22.5H114.375C114.872 22.5 115.349 22.3025 115.701 21.9508C116.052 21.5992 116.25 21.1223 116.25 20.625V5.625C116.25 5.12772 116.052 4.65081 115.701 4.29917C115.349 3.94754 114.872 3.75 114.375 3.75ZM112.5 18.75H86.25V7.5H112.5V18.75Z" fill="#389AE0"/>
<path d="M103.125 15H106.875C107.372 15 107.849 14.8025 108.201 14.4508C108.552 14.0992 108.75 13.6223 108.75 13.125C108.75 12.6277 108.552 12.1508 108.201 11.7992C107.849 11.4475 107.372 11.25 106.875 11.25H103.125C102.628 11.25 102.151 11.4475 101.799 11.7992C101.448 12.1508 101.25 12.6277 101.25 13.125C101.25 13.6223 101.448 14.0992 101.799 14.4508C102.151 14.8025 102.628 15 103.125 15Z" fill="#389AE0"/>
<path d="M91.875 15H95.625C96.1223 15 96.5992 14.8025 96.9508 14.4508C97.3025 14.0992 97.5 13.6223 97.5 13.125C97.5 12.6277 97.3025 12.1508 96.9508 11.7992C96.5992 11.4475 96.1223 11.25 95.625 11.25H91.875C91.3777 11.25 90.9008 11.4475 90.5492 11.7992C90.1975 12.1508 90 12.6277 90 13.125C90 13.6223 90.1975 14.0992 90.5492 14.4508C90.9008 14.8025 91.3777 15 91.875 15Z" fill="#389AE0"/>
</svg>
