<svg width="120" height="120" viewBox="0 0 120 120" fill="none" xmlns="http://www.w3.org/2000/svg">
<path d="M119.697 45.7972C118.607 25.739 102.038 10.0252 81.9497 10C80.8514 10 79.9609 10.8905 79.9609 11.9887V23.0064C79.959 23.7201 80.3377 24.3795 80.9553 24.7368C81.5758 25.0748 82.3245 25.0748 82.944 24.7368C83.8491 24.2047 84.8784 23.9231 85.9271 23.9212C89.2229 23.9212 91.8934 26.5925 91.8934 29.8874C91.8934 33.1822 89.2229 35.8536 85.9271 35.8536C85.2484 35.8565 84.5745 35.7351 83.9384 35.4952C83.5947 35.3719 83.2626 35.2185 82.944 35.0379C82.3284 34.6825 81.5681 34.6834 80.9524 35.0398C80.3367 35.3972 79.959 36.0565 79.9609 36.7683V47.786C79.9609 48.8843 80.8514 49.7747 81.9497 49.7747H90.1241C89.9716 50.4263 89.8978 51.0944 89.9046 51.7635C89.9046 57.2548 94.3569 61.7071 99.8483 61.7071C105.341 61.7071 109.792 57.2548 109.792 51.7635C109.8 51.0944 109.726 50.4263 109.573 49.7747H117.747C118.846 49.7747 119.736 48.8843 119.736 47.786C119.736 47.1295 119.716 46.4537 119.697 45.7972ZM106.73 45.7972C106.017 45.7943 105.359 46.1721 105.002 46.7877C104.644 47.4044 104.643 48.1637 105 48.7803C105.18 49.0979 105.333 49.431 105.457 49.7747C105.696 50.4108 105.817 51.0847 105.814 51.7635C105.814 55.0583 103.144 57.7297 99.8483 57.7297C96.5535 57.7297 93.8821 55.0583 93.8821 51.7635C93.8801 51.0847 94.0015 50.4108 94.2404 49.7747C94.3647 49.431 94.5172 49.0979 94.6978 48.7803C95.0542 48.1637 95.0532 47.4044 94.6958 46.7877C94.3385 46.1721 93.6801 45.7943 92.9673 45.7972H83.9384V39.6125C84.591 39.765 85.2581 39.8378 85.9271 39.831C91.4195 39.831 95.8708 35.3787 95.8708 29.8874C95.8708 24.396 91.4195 19.9437 85.9271 19.9437C85.26 19.9398 84.5929 20.0068 83.9384 20.1427V14.0367C101.033 15.0719 114.665 28.7036 115.699 45.7972H106.73Z" fill="#389AE0"/>
<path d="M95.8696 45.7973H84.8529C84.1391 45.7943 83.4788 46.174 83.1224 46.7916C82.7845 47.4112 82.7845 48.1608 83.1224 48.7804C83.6546 49.6844 83.9352 50.7147 83.9371 51.7635C83.9371 55.0583 81.2667 57.7297 77.9709 57.7297C74.6761 57.7297 72.0047 55.0583 72.0047 51.7635C72.0028 51.0847 72.1242 50.4108 72.3631 49.7747C72.4873 49.431 72.6398 49.0979 72.8204 48.7804C73.1768 48.1637 73.1758 47.4044 72.8185 46.7877C72.4611 46.1721 71.8027 45.7943 71.09 45.7973H62.0611V39.6126C62.7136 39.765 63.3807 39.8378 64.0498 39.831C69.5421 39.831 73.9935 35.3787 73.9935 29.8874C73.9935 24.396 69.5421 19.9437 64.0498 19.9437C63.3807 19.9369 62.7136 20.0097 62.0611 20.1622V11.9887C62.0611 10.8905 61.1716 10 60.0723 10C46.7367 9.99127 34.3838 17.0179 27.5767 28.4852C20.7695 39.9534 20.5161 54.162 26.9105 65.8652L25.6656 66.645C25.2908 66.88 25.0053 67.2335 24.8538 67.6491L21.7338 76.2245L13.8701 79.8845L12.9399 77.8734C12.4767 76.8771 11.2929 76.445 10.2966 76.9091L1.5862 80.9662C1.10552 81.1867 0.732635 81.5887 0.549105 82.0849C0.365574 82.5811 0.387908 83.1288 0.60931 83.6095L12.4427 108.966C12.9068 109.96 14.0906 110.39 15.0859 109.926L23.7759 105.869C24.7703 105.404 25.2005 104.222 24.7373 103.228L23.8624 101.349L29.178 98.861L39.6169 102.655C39.8169 102.727 40.0276 102.767 40.2413 102.772L59.0964 103.292H59.1498C59.4402 103.291 59.7266 103.228 59.9888 103.106L67.6456 99.5465C67.9253 99.4154 68.171 99.2212 68.3642 98.9804L72.029 94.3679L92.7398 83.1851C93.6623 82.685 94.0372 81.5527 93.5953 80.6001L89.377 71.5537C94.8548 64.8427 97.8505 56.4488 97.8583 47.786C97.8583 46.6877 96.9688 45.7973 95.8696 45.7973ZM58.0836 14.0746V23.0064C58.0816 23.7182 58.4594 24.3776 59.075 24.7349C59.6907 25.0913 60.451 25.0923 61.0667 24.7369C61.3852 24.5562 61.7173 24.4028 62.0611 24.2795C62.6971 24.0396 63.371 23.9182 64.0498 23.9212C67.3456 23.9212 70.016 26.5926 70.016 29.8874C70.016 33.1822 67.3456 35.8536 64.0498 35.8536C63.371 35.8565 62.6971 35.7351 62.0611 35.4953C61.7173 35.3719 61.3852 35.2185 61.0667 35.0379C60.451 34.6825 59.6907 34.6834 59.075 35.0398C58.4594 35.3972 58.0816 36.0565 58.0836 36.7683V45.7973H51.8989C52.0513 45.1457 52.1251 44.4776 52.1174 43.8085C52.1174 38.3172 47.666 33.8648 42.1737 33.8648C36.6823 33.8648 32.23 38.3172 32.23 43.8085C32.2232 44.4776 32.297 45.1457 32.4495 45.7973H26.324C27.3669 28.7134 40.9987 15.0971 58.0836 14.0746ZM26.324 49.7747H35.2927C36.0055 49.7776 36.6639 49.3999 37.0212 48.7842C37.3786 48.1676 37.3796 47.4082 37.0232 46.7916C36.8426 46.4741 36.6901 46.141 36.5658 45.7973C36.3269 45.1612 36.2055 44.4873 36.2075 43.8085C36.2075 40.5137 38.8789 37.8423 42.1737 37.8423C45.4695 37.8423 48.1399 40.5137 48.1399 43.8085C48.1428 44.4873 48.0214 45.1612 47.7826 45.7973C47.6583 46.141 47.5058 46.4741 47.3252 46.7916C46.9688 47.4082 46.9698 48.1676 47.3271 48.7842C47.6845 49.3999 48.3429 49.7776 49.0556 49.7747H58.0836V55.9594C57.432 55.807 56.7649 55.7341 56.0948 55.7409C53.6895 55.7371 51.3658 56.6149 49.5644 58.2094L47.599 55.1923C47.0067 54.2834 45.7938 54.0173 44.8752 54.5951L30.2694 63.7551C27.9496 59.4397 26.6027 54.6669 26.324 49.7747ZM58.0836 81.8693L47.3669 77.9588L44.8111 72.4782L47.3766 70.4001C49.0945 73.6192 52.4466 75.6293 56.0948 75.6283C56.7649 75.6351 57.432 75.5623 58.0836 75.4098V81.8693ZM15.2131 105.482L5.07037 83.7308L10.1714 81.344L20.2976 103.105L15.2131 105.482ZM69.7878 91.0604C69.5518 91.1896 69.343 91.3644 69.1751 91.5741L65.5501 96.1478L58.7439 99.2941L40.6802 98.7988L29.7684 94.8214C29.2712 94.6436 28.7245 94.6679 28.2448 94.8893L22.1912 97.7433L15.5491 83.49L24.1585 79.4786C24.6373 79.2562 25.0073 78.8522 25.1888 78.357L28.3584 69.6621L45.3345 59.0124L48.7148 64.2028L41.0987 70.368C40.3889 70.9429 40.1626 71.9276 40.5491 72.7549L44.109 80.3933C44.3314 80.8711 44.7344 81.2401 45.2287 81.4217L58.3147 86.1944C58.8109 86.375 59.3596 86.3508 59.8383 86.1265L86.0774 73.8823L89.1974 80.5827L69.7878 91.0604ZM85.8686 69.5825L62.0611 80.6953V72.5656C62.064 71.8538 61.6862 71.1944 61.0706 70.8371C60.4549 70.4807 59.6946 70.4797 59.0779 70.8351C58.7604 71.0158 58.4283 71.1692 58.0836 71.2925C57.4485 71.5324 56.7746 71.6537 56.0948 71.6508C53.6283 71.6576 51.4124 70.1408 50.5268 67.8384L52.6048 66.1556C53.3963 65.5147 53.5749 64.3785 53.0185 63.525L51.76 61.5935C53.3933 59.9 55.8608 59.3086 58.0836 60.0767C58.4283 60.2001 58.7604 60.3535 59.0779 60.5341C59.6946 60.8895 60.4549 60.8885 61.0706 60.5322C61.6862 60.1748 62.064 59.5155 62.0611 58.8037V49.7747H68.2467C68.0943 50.4263 68.0205 51.0944 68.0273 51.7635C68.0273 57.2548 72.4796 61.7071 77.9709 61.7071C83.4633 61.7071 87.9146 57.2548 87.9146 51.7635C87.9088 51.0963 87.8428 50.4302 87.7165 49.7747H93.7915C93.3613 57.0606 90.5812 64.0115 85.8686 69.5844V69.5825Z" fill="#389AE0"/>
</svg>
