<svg width="120" height="120" viewBox="0 0 120 120" fill="none" xmlns="http://www.w3.org/2000/svg">
<path d="M116.129 7.7352H103.167L100.943 6.25197C94.8 2.16199 87.6523 0 80.2703 0H65.8064C63.6716 0 61.9355 1.73462 61.9355 3.8676C61.9355 5.28314 62.3458 6.59426 63.0116 7.73713L52.2581 7.7352C49.0568 7.7352 46.4516 10.3381 46.4516 13.5366C46.4516 14.3004 46.6084 15.0256 46.8774 15.6947C45.7974 15.9867 44.8452 16.5746 44.1116 17.3791L42.1548 15.424L39.3348 18.2396C38.2684 19.3071 36.6716 19.6165 35.191 18.9976C33.8013 18.4233 32.9032 17.0813 32.9032 15.5768V11.6028H21.2903V15.5768C21.2903 17.0813 20.3923 18.4252 18.9232 19.0286C17.52 19.6203 15.9232 19.3071 14.8548 18.2396L12.0387 15.424L3.82452 23.631L6.64065 26.4466C7.7071 27.5141 8.01871 29.1095 7.40129 30.5869C6.82645 31.9754 5.48323 32.8746 3.97742 32.8746H0V44.4774H3.97742C5.48323 44.4774 6.82839 45.3766 7.43419 46.8405C8.02065 48.2444 7.70903 49.8398 6.64258 50.9073L3.82452 53.721L12.0387 61.928L14.8587 59.1124C15.9252 58.0449 17.52 57.7355 19.0006 58.3505C20.3903 58.9287 21.2903 60.2707 21.2903 61.7752V65.7492H23.2258V69.6671C23.2258 73.3684 23.6381 77.0561 24.4045 80.6607C22.5581 81.4942 20.7658 82.4669 19.0587 83.604L16.8329 85.0872H3.87097C1.73613 85.0872 0 86.8218 0 88.9548V112.16C0 114.293 1.73613 116.028 3.87097 116.028H15.4839C17.0497 116.028 18.3948 115.09 19.0045 113.75C25.0606 117.726 32.2123 119.896 39.4897 119.896H56.129C56.9264 119.896 57.6871 119.733 58.38 119.441C58.7148 119.559 59.0477 119.683 59.3865 119.795L60 120L60.6135 119.797C69.7568 116.753 77.609 111.377 83.6535 104.487C84.031 104.526 84.4142 104.603 84.8071 104.766C86.1968 105.34 87.0968 106.682 87.0968 108.186V112.16H98.7097V108.186C98.7097 106.682 99.6097 105.338 101.075 104.733C102.48 104.149 104.075 104.456 105.143 105.524L107.961 108.339L116.175 100.132L113.359 97.3165C112.293 96.2491 111.981 94.6537 112.599 93.1763C113.174 91.7878 114.517 90.8886 116.023 90.8886H120V79.2858H116.023C114.517 79.2858 113.172 78.3866 112.566 76.9227C111.979 75.5187 112.291 73.9234 113.357 72.8559L116.174 70.0403L107.959 61.8332L105.139 64.6489C104.073 65.7163 102.478 66.0257 100.995 65.4069C99.6077 64.8345 98.7097 63.4924 98.7097 61.9879V58.014H96.7742V38.7901C98.2316 38.0823 99.6406 37.2817 100.994 36.3922C101.601 37.7342 102.948 38.676 104.516 38.676H116.129C118.264 38.676 120 36.9414 120 34.8084V11.6028C120 9.46982 118.264 7.7352 116.129 7.7352ZM52.2581 11.6028L69.6774 11.6047V11.6028H75.8129C76.98 11.6028 78.0348 12.1423 78.7568 13.0396C77.9129 13.7667 77.1735 14.5886 76.5194 15.4704H52.2581C51.1916 15.4704 50.3226 14.6041 50.3226 13.5366C50.3226 12.4691 51.1916 11.6028 52.2581 11.6028ZM64.1923 29.475L60.5865 27.0732H73.5484V30.9408H66.6503C65.8123 30.4883 64.9877 30.0068 64.1923 29.475ZM53.3497 30.9408H52.2581C51.1916 30.9408 50.3226 30.0745 50.3226 29.007C50.3226 27.9395 51.1916 27.0732 52.2581 27.0732H59.4135L55.8097 29.475C55.0123 30.0068 54.1877 30.4883 53.3497 30.9408ZM48.3871 19.338H74.4484C74.0052 20.5737 73.7303 21.8713 73.6239 23.2056H48.3871C47.3206 23.2056 46.4516 22.3393 46.4516 21.2718C46.4516 20.2043 47.3206 19.338 48.3871 19.338ZM20.4155 54.7517C17.5548 53.5604 14.2974 54.1986 12.1181 56.378L12.0387 56.4592L9.29806 53.721L9.37935 53.6397C11.5587 51.4603 12.1974 48.2058 10.98 45.2896C9.80516 42.4469 7.05677 40.6098 3.97742 40.6098H3.87097V36.7422H3.97742C7.05677 36.7422 9.80516 34.9051 11.0052 32.0005C12.1974 29.1443 11.5587 25.8916 9.37935 23.7123L9.29806 23.631L12.0387 20.8928L12.12 20.974C14.3032 23.1572 17.5606 23.7915 20.4774 22.5732C23.3226 21.3994 25.1613 18.6534 25.1613 15.5768V15.4704H29.0323V15.5768C29.0323 18.6534 30.871 21.4014 33.7761 22.5984C36.6329 23.7935 39.8923 23.1553 42.0735 20.974L42.1548 20.8928L42.5845 21.324C42.6077 23.9752 44.4252 26.1856 46.8774 26.8508C46.6084 27.518 46.4516 28.2431 46.4516 29.007C46.4516 30.6275 47.1232 32.0914 48.1994 33.1453C45.5594 34.0194 42.8168 34.5415 40.0413 34.7078C38.3245 29.0747 33.1394 25.1394 27.0968 25.1394C19.6258 25.1394 13.5484 31.2135 13.5484 38.676C13.5484 44.7501 17.5335 49.9558 23.2258 51.6402V56.7299C22.471 55.8926 21.5226 55.21 20.4155 54.7517ZM23.2258 32.4492V47.5057C19.7671 45.9993 17.4194 42.6016 17.4194 38.6741C17.4194 33.3426 21.7606 29.0051 27.0968 29.0051C30.9832 29.0051 34.349 31.3005 35.88 34.6904C34.5619 34.5976 33.2477 34.4506 31.9432 34.1915L23.2258 32.4492ZM15.4839 112.16H3.87097V88.9548H15.4839V112.16ZM56.129 116.028H39.4897C32.2374 116.028 25.1323 113.613 19.3548 109.248V88.0556L21.2052 86.8218C26.7077 83.1572 33.1142 81.2196 39.7297 81.2196H50.3226C50.3226 83.3526 48.5884 85.0872 46.4594 85.0872H46.4516H40.6335V88.9548H46.4516H46.4594H63.871C64.9374 88.9548 65.8064 89.8211 65.8064 90.8886C65.8064 91.956 64.9374 92.8224 63.871 92.8224H40.6452V96.69H67.7419C68.8084 96.69 69.6774 97.5563 69.6774 98.6238C69.6774 99.6912 68.8084 100.558 67.7419 100.558H40.6452V104.425H63.871C64.9374 104.425 65.8064 105.292 65.8064 106.359C65.8064 107.426 64.9374 108.293 63.871 108.293H40.6452V112.16H56.129C57.1955 112.16 58.0645 113.027 58.0645 114.094C58.0645 115.162 57.1955 116.028 56.129 116.028ZM34.8387 69.6671V46.2836C35.9535 46.3686 37.0703 46.4112 38.1774 46.4112C45.5381 46.4112 52.2058 44.9048 58.0645 41.9557V85.0872H53.1174C53.7832 83.9443 54.1935 82.6351 54.1935 81.2196C54.1935 79.0866 52.4574 77.352 50.3226 77.352H39.7297C38.3477 77.352 36.9794 77.4525 35.6187 77.6034C35.1097 74.9966 34.8387 72.3357 34.8387 69.6671ZM73.5232 98.3705C73.409 95.8101 71.6381 93.6945 69.2516 93.0467C69.5206 92.3776 69.6774 91.6524 69.6774 90.8886C69.6774 87.6901 67.0723 85.0872 63.871 85.0872H61.9355V41.9557C67.7942 44.9067 74.4619 46.4112 81.8226 46.4112C82.9297 46.4112 84.0464 46.3686 85.1613 46.2836V69.669C85.1613 80.5447 80.9129 90.7687 73.5232 98.3705ZM61.8232 115.204C61.8929 114.844 61.9355 114.473 61.9355 114.094C61.9355 113.413 61.7961 112.768 61.5794 112.16H63.871C66.9561 112.16 69.4645 109.735 69.6426 106.697C81.7955 98.2757 89.0323 84.5264 89.0323 69.6671V41.9441L86.8529 42.2226C85.1826 42.4353 83.489 42.5436 81.8226 42.5436C73.9277 42.5436 66.929 40.6891 61.0181 37.0303L60 36.3999L58.9819 37.0303C53.071 40.6891 46.0723 42.5436 38.1774 42.5436C36.511 42.5436 34.8194 42.4353 33.1471 42.2226L30.9677 41.9441V69.6671C30.9677 72.5388 31.2542 75.4008 31.7923 78.2087C30.5284 78.4833 29.2858 78.8371 28.0568 79.2432C27.4316 76.0969 27.0968 72.8888 27.0968 69.6671V37.1676L31.1865 37.9856C33.4839 38.4439 35.8374 38.676 38.1774 38.676C45.2381 38.676 52.0781 36.6088 57.9561 32.6928L60 31.3314L62.0439 32.6928C67.9219 36.6088 74.76 38.676 81.8226 38.676C84.1626 38.676 86.5161 38.4439 88.8155 37.9856L92.9032 37.1676V69.669C92.9032 89.9081 80.5084 107.867 61.8232 115.204ZM96.3465 76.0757C100.003 77.4854 102.581 81.0513 102.581 85.0872C102.581 90.4187 98.2393 94.7562 92.9032 94.7562C92.1058 94.7562 91.3297 94.6556 90.5729 94.468C93.5748 88.8233 95.551 82.6081 96.3465 76.0757ZM99.5826 69.0096C102.439 70.2047 105.699 69.5665 107.88 67.3852L107.961 67.304L110.702 70.0422L110.621 70.1234C108.441 72.3028 107.803 75.5574 109.02 78.4736C110.195 81.3163 112.943 83.1534 116.023 83.1534H116.129V87.021H116.023C112.943 87.021 110.195 88.8581 108.995 91.7627C107.803 94.6189 108.441 97.8715 110.621 100.051L110.702 100.132L107.961 102.87L107.88 102.789C105.697 100.608 102.439 99.9678 99.5206 101.19C96.6774 102.366 94.8387 105.11 94.8387 108.186V108.293H90.9677V108.186C90.9677 105.143 89.1658 102.429 86.309 101.207C87.1064 100.136 87.8613 99.0357 88.5774 97.9063C89.9632 98.3763 91.411 98.6238 92.9032 98.6238C100.374 98.6238 106.452 92.5497 106.452 85.0872C106.452 79.0576 102.352 73.7609 96.6774 72.0998C96.7142 71.2895 96.7742 70.4851 96.7742 69.6671V67.0313C97.529 67.8706 98.4774 68.5532 99.5826 69.0096ZM88.0568 34.1934C84.5342 34.8954 80.9361 34.9476 77.4193 34.4526V24.4142C77.4193 21.2737 78.7432 18.3324 81.0077 16.2381C82.8793 18.1893 85.4729 19.338 88.2832 19.338H89.0323V15.4704H88.2832C85.9026 15.4704 83.7658 14.1477 82.6858 11.9857C81.3774 9.36539 78.7452 7.7352 75.8129 7.7352H69.6697C67.5406 7.7352 65.8064 6.00058 65.8064 3.8676H80.2703C86.8858 3.8676 93.2923 5.80527 98.7948 9.46982L100.645 10.7036V31.9077C99.4142 32.8379 98.1213 33.681 96.7742 34.4332V32.4492L88.0568 34.1934ZM116.129 34.8084H104.516V11.6028H116.129V34.8084Z" fill="#389AE0"/>
<path d="M15.4839 73.4844H19.3549V77.352H15.4839V73.4844Z" fill="#389AE0"/>
<path d="M7.7417 73.4844H11.6127V77.352H7.7417V73.4844Z" fill="#389AE0"/>
<path d="M0 73.4844H3.87097V77.352H0V73.4844Z" fill="#389AE0"/>
<path d="M116.129 46.4111H120V50.2787H116.129V46.4111Z" fill="#389AE0"/>
<path d="M108.387 46.4111H112.258V50.2787H108.387V46.4111Z" fill="#389AE0"/>
<path d="M100.645 46.4111H104.516V50.2787H100.645V46.4111Z" fill="#389AE0"/>
<path d="M90.6272 23.7162C86.2646 24.8049 82.8098 28.0015 81.3872 32.2636L85.0588 33.4877C86.0614 30.4845 88.4924 28.2355 91.5659 27.4678L93.3698 27.0172L92.4311 23.2676L90.6272 23.7162Z" fill="#389AE0"/>
</svg>
