<svg width="120" height="120" viewBox="0 0 120 120" fill="none" xmlns="http://www.w3.org/2000/svg">
<g clip-path="url(#clip0_934:1376)">
<path d="M60.002 40.9568C69.7459 40.9568 78.1925 34.0282 80.086 24.4826C80.2752 23.5303 79.6562 22.6052 78.7039 22.4166C77.7514 22.2279 76.8266 22.8466 76.6379 23.7987C75.0697 31.7037 68.0734 37.4412 60.0022 37.4412C50.649 37.4412 43.0393 29.8315 43.0393 20.4783C43.0393 11.1251 50.6488 3.51562 60.002 3.51562C67.8066 3.51562 74.5742 8.79844 76.4593 16.3624C76.6941 17.3046 77.649 17.8774 78.59 17.643C79.5322 17.4082 80.1055 16.4543 79.8706 15.5123C77.5944 6.37898 69.4241 0 60.002 0C48.7102 0 39.5234 9.18656 39.5234 20.4783C39.5237 31.7702 48.7102 40.9568 60.002 40.9568Z" fill="#389AE0"/>
<path d="M67.7642 14.5679L58.7358 23.5965L52.2389 17.0994C51.5524 16.4132 50.4394 16.4132 49.7531 17.0994C49.0667 17.7861 49.0667 18.899 49.7531 19.5854L57.4929 27.3252C57.8224 27.6547 58.2696 27.8399 58.7358 27.8399C59.202 27.8399 59.6492 27.6547 59.9787 27.3252L70.2502 17.0537C70.9367 16.367 70.9367 15.2542 70.2502 14.5677C69.5637 13.8817 68.4509 13.8817 67.7642 14.5679Z" fill="#389AE0"/>
<path d="M118.157 48.1738L112.423 42.44C111.737 41.7538 110.624 41.7538 109.937 42.44C109.251 43.1267 109.251 44.2395 109.937 44.926L115.335 50.3239L103.622 62.0377L81.812 40.2282L93.5259 28.5144L104.136 39.1253C104.823 39.8115 105.936 39.8115 106.622 39.1253C107.309 38.4385 107.309 37.3257 106.622 36.6392L95.6755 25.6925C94.4898 24.5073 92.5607 24.5075 91.375 25.6928L78.9897 38.0783C77.8047 39.2638 77.8047 41.1929 78.9899 42.3788L80.0952 43.4842L76.3216 47.2578C73.6959 49.8838 69.7691 50.6942 66.3177 49.3227C61.5609 47.432 56.1484 48.5492 52.5292 52.1685L49.6645 55.0339L40.2988 45.6683L41.0104 44.9567C42.1954 43.7713 42.1954 41.8421 41.0102 40.6562L28.6251 28.2711C27.4394 27.0854 25.5102 27.0859 24.3245 28.2711L1.84398 50.7519C1.26953 51.3261 0.953125 52.0899 0.953125 52.9023C0.953125 53.7146 1.2693 54.4782 1.84375 55.0529L14.2286 67.4373C14.803 68.012 15.5666 68.3284 16.3792 68.3284C17.1918 68.3284 17.9554 68.012 18.5294 67.4377L19.0204 66.9467L28.9387 76.865C29.3059 77.2323 29.6423 77.6234 29.9502 78.0329L20.3301 87.653C17.815 90.1681 17.815 94.2608 20.3301 96.7763C21.5877 98.0338 23.2396 98.6626 24.8915 98.6626C24.9552 98.6626 25.0187 98.66 25.0825 98.6581C25.0806 98.7226 25.0778 98.787 25.0778 98.852C25.0778 100.575 25.7488 102.195 26.9673 103.414C28.1859 104.632 29.8059 105.303 31.529 105.303C31.5939 105.303 31.6581 105.3 31.7228 105.298C31.6724 107.013 32.2987 108.745 33.6048 110.051C34.8231 111.269 36.4431 111.941 38.1663 111.941C38.9924 111.941 39.7942 111.785 40.54 111.49C40.7952 112.651 41.3718 113.756 42.2732 114.657C43.5309 115.915 45.1827 116.544 46.8346 116.544C48.4865 116.544 50.1386 115.915 51.3962 114.657L52.7812 113.272L57.3709 117.862C58.75 119.241 60.5835 120 62.5335 120C64.4838 120 66.3175 119.241 67.6959 117.862C69.0749 116.483 69.8343 114.65 69.8345 112.7C69.8345 112.511 69.8275 112.323 69.8132 112.137C71.8675 112.293 73.9698 111.588 75.5355 110.023C77.1018 108.456 77.8061 106.349 77.6488 104.297C79.7017 104.455 81.8083 103.75 83.3748 102.183C84.94 100.618 85.6448 98.5128 85.4887 96.4616C85.7177 96.4789 85.9492 96.4859 86.1817 96.4813C88.1805 96.4459 90.033 95.619 91.3977 94.1537C94.0441 91.3128 93.9196 86.7242 91.1202 83.9246L85.6579 78.4623L100.366 63.7541L101.471 64.8591C102.046 65.4338 102.809 65.7502 103.622 65.7502C104.434 65.7502 105.198 65.4338 105.772 64.8596L118.157 52.4748C118.731 51.9003 119.048 51.1367 119.048 50.3242C119.048 49.5116 118.731 48.748 118.157 48.1738ZM22.8161 94.2906C21.6716 93.1459 21.6716 91.2835 22.8161 90.1391L33.6927 79.2624C34.2489 78.7065 34.983 78.4027 35.7667 78.4027C35.789 78.4027 35.8113 78.403 35.8338 78.4034C36.6419 78.4213 37.3891 78.7609 37.9375 79.3599C38.9809 80.4997 38.8926 82.3639 37.7411 83.5166L26.9676 94.2903C25.8229 95.435 23.9603 95.4345 22.8161 94.2906ZM33.6039 100.928C33.0496 101.482 32.3127 101.787 31.529 101.787C30.745 101.787 30.0077 101.482 29.4534 100.928C28.8988 100.373 28.5937 99.6357 28.5937 98.852C28.5937 98.0677 28.8991 97.3309 29.4534 96.7766L41.5595 84.6704C42.1145 84.1154 42.8505 83.8107 43.6345 83.8107H43.6584C44.451 83.8168 45.1916 84.1339 45.7434 84.7034C46.8522 85.8477 46.8377 87.6952 45.711 88.8216L33.6051 100.928C33.6044 100.928 33.6041 100.928 33.6039 100.928ZM42.2732 105.534L40.2421 107.565C39.6876 108.119 38.9505 108.425 38.1665 108.425C37.3825 108.425 36.6454 108.119 36.0909 107.565C35.5363 107.01 35.2312 106.273 35.2312 105.489C35.2312 104.705 35.5366 103.968 36.0909 103.414L46.0323 93.4721C46.5871 92.9188 47.3221 92.6145 48.1049 92.6145C48.1127 92.6145 48.1206 92.6145 48.1286 92.6148C48.9215 92.6209 49.6619 92.9377 50.2136 93.5073C51.3224 94.6515 51.3081 96.4993 50.1815 97.6257L42.2732 105.534C42.2732 105.533 42.2732 105.534 42.2732 105.534ZM54.2036 106.878L48.9105 112.171C47.766 113.315 45.9034 113.315 44.7592 112.171C43.6155 111.027 43.6148 109.167 44.7571 108.022L50.0535 102.725C50.6141 102.165 51.3597 101.866 52.1512 101.866C52.9438 101.873 53.6842 102.19 54.2359 102.759C55.3448 103.903 55.3302 105.751 54.2036 106.878ZM88.634 86.4109C90.1103 87.8872 90.1961 90.2855 88.8248 91.7577C88.116 92.5187 87.1551 92.9478 86.1189 92.9663C85.0752 92.9778 84.1075 92.5909 83.3746 91.858C82.6879 91.1717 81.5751 91.1717 80.8886 91.858C80.5455 92.2013 80.3739 92.6513 80.3739 93.1011C80.3739 93.5511 80.5455 94.0009 80.8886 94.3442C82.3647 95.8201 82.3647 98.2215 80.8886 99.6973C79.4127 101.174 77.0113 101.174 75.5355 99.6973C74.8487 99.0111 73.7359 99.0111 73.0495 99.6973C72.7063 100.041 72.5348 100.491 72.5348 100.94C72.5348 101.39 72.7063 101.84 73.0495 102.184C74.5255 103.659 74.5255 106.061 73.0495 107.537C71.5741 109.013 69.1724 109.013 67.6961 107.537C67.0098 106.851 65.8968 106.851 65.2103 107.537C64.5238 108.224 64.5238 109.336 65.2103 110.023C65.9254 110.738 66.3189 111.688 66.3189 112.7C66.3189 113.71 65.9249 114.661 65.2101 115.376C64.4952 116.091 63.5448 116.485 62.5335 116.485C61.5227 116.485 60.572 116.091 59.857 115.376L55.2672 110.786L56.6896 109.364C59.1658 106.888 59.1977 102.827 56.7606 100.313C55.9356 99.4611 54.9182 98.8674 53.8035 98.57C55.0684 96.1653 54.7178 93.1032 52.7383 91.0604C51.8608 90.155 50.7658 89.5421 49.5674 89.266C50.5412 86.9488 50.1126 84.1599 48.2678 82.2561C47.0554 81.005 45.4281 80.3084 43.686 80.2949C43.6684 80.2949 43.6513 80.2949 43.6338 80.2949C43.1252 80.2949 42.6262 80.3546 42.1436 80.4683C41.9819 79.2057 41.4475 77.987 40.5309 76.9859C39.3283 75.6725 37.6879 74.9277 35.9116 74.8888C34.7324 74.8618 33.5999 75.1508 32.6038 75.7145C32.2408 75.2483 31.848 74.802 31.4252 74.379L21.5069 64.4607L29.4198 56.548C30.1063 55.8613 30.1063 54.7485 29.4198 54.062C28.7336 53.3757 27.6205 53.3757 26.9341 54.062L16.3797 64.6161L4.66586 52.9023L26.4756 31.0928L38.1895 42.8066L32.7346 48.2612C32.0481 48.9479 32.0481 50.0607 32.7346 50.7472C33.4211 51.4335 34.5341 51.4335 35.2204 50.7472L37.8135 48.1541L47.1791 57.5199L45.2641 59.435C43.885 60.8141 43.1256 62.6476 43.1256 64.5976C43.1256 66.5476 43.885 68.3813 45.2641 69.7602C46.6431 71.139 48.4764 71.8984 50.4266 71.8984C52.3769 71.8984 54.2104 71.139 55.5892 69.7602L60.6895 64.6599C62.091 63.2584 64.3173 63.0221 65.9816 64.0981C65.9842 64.0998 65.987 64.1012 65.9896 64.1031L88.634 86.4109ZM83.1719 75.9763L72.2531 65.0574C72.2744 65.0516 72.2959 65.0471 72.3173 65.0408L81.4445 62.4322C82.378 62.1655 82.9185 61.1926 82.6516 60.2593C82.3846 59.3256 81.4115 58.7844 80.4787 59.0523L71.3512 61.6609C70.1767 61.9965 68.9153 61.8088 67.8895 61.1457C64.8433 59.1767 60.7691 59.6082 58.203 62.1742L53.1027 67.2746C52.3879 67.9895 51.4373 68.383 50.4262 68.383C49.4151 68.383 48.4645 67.9892 47.7496 67.2744C46.2738 65.7985 46.2738 63.3971 47.7496 61.9213L55.0162 54.6547C57.6421 52.0288 61.5688 51.2183 65.02 52.5899C69.7769 54.4803 75.1891 53.3633 78.8085 49.7441L82.5822 45.9704L97.8801 61.2681L83.1719 75.9763Z" fill="#389AE0"/>
</g>
<defs>
<clipPath id="clip0_934:1376">
<rect width="120" height="120" fill="white"/>
</clipPath>
</defs>
</svg>
